G04 #@! TF.GenerationSoftware,KiCad,Pcbnew,7.0.1*
G04 #@! TF.CreationDate,2023-08-17T16:00:53-05:00*
G04 #@! TF.ProjectId,MiniWAV,4d696e69-5741-4562-9e6b-696361645f70,A*
G04 #@! TF.SameCoordinates,Original*
G04 #@! TF.FileFunction,Legend,Top*
G04 #@! TF.FilePolarity,Positive*
%FSLAX46Y46*%
G04 Gerber Fmt 4.6, Leading zero omitted, Abs format (unit mm)*
G04 Created by KiCad (PCBNEW 7.0.1) date 2023-08-17 16:00:53*
%MOMM*%
%LPD*%
G01*
G04 APERTURE LIST*
G04 Aperture macros list*
%AMRoundRect*
0 Rectangle with rounded corners*
0 $1 Rounding radius*
0 $2 $3 $4 $5 $6 $7 $8 $9 X,Y pos of 4 corners*
0 Add a 4 corners polygon primitive as box body*
4,1,4,$2,$3,$4,$5,$6,$7,$8,$9,$2,$3,0*
0 Add four circle primitives for the rounded corners*
1,1,$1+$1,$2,$3*
1,1,$1+$1,$4,$5*
1,1,$1+$1,$6,$7*
1,1,$1+$1,$8,$9*
0 Add four rect primitives between the rounded corners*
20,1,$1+$1,$2,$3,$4,$5,0*
20,1,$1+$1,$4,$5,$6,$7,0*
20,1,$1+$1,$6,$7,$8,$9,0*
20,1,$1+$1,$8,$9,$2,$3,0*%
G04 Aperture macros list end*
%ADD10C,0.150000*%
%ADD11C,0.190500*%
%ADD12C,0.120000*%
%ADD13C,0.200000*%
%ADD14C,0.127000*%
%ADD15RoundRect,0.225000X0.225000X0.250000X-0.225000X0.250000X-0.225000X-0.250000X0.225000X-0.250000X0*%
%ADD16RoundRect,0.225000X-0.250000X0.225000X-0.250000X-0.225000X0.250000X-0.225000X0.250000X0.225000X0*%
%ADD17R,1.450000X0.950000*%
%ADD18RoundRect,0.020500X0.184500X-0.764500X0.184500X0.764500X-0.184500X0.764500X-0.184500X-0.764500X0*%
%ADD19RoundRect,0.200000X0.200000X0.275000X-0.200000X0.275000X-0.200000X-0.275000X0.200000X-0.275000X0*%
%ADD20R,2.000000X0.800000*%
%ADD21R,1.400000X1.800000*%
%ADD22R,1.900000X1.400000*%
%ADD23RoundRect,0.225000X0.250000X-0.225000X0.250000X0.225000X-0.250000X0.225000X-0.250000X-0.225000X0*%
%ADD24R,0.950000X1.450000*%
%ADD25C,1.700000*%
%ADD26R,2.200000X2.800000*%
%ADD27R,2.800000X2.800000*%
%ADD28R,0.800000X0.500000*%
%ADD29R,0.800000X0.400000*%
%ADD30C,2.286000*%
%ADD31O,1.700000X1.700000*%
%ADD32C,4.500000*%
G04 APERTURE END LIST*
D10*
X140150000Y-95805000D02*
G75*
G03*
X140150000Y-95805000I-750000J0D01*
G01*
X125547619Y-107007095D02*
X125280952Y-106626142D01*
X125090476Y-107007095D02*
X125090476Y-106207095D01*
X125090476Y-106207095D02*
X125395238Y-106207095D01*
X125395238Y-106207095D02*
X125471428Y-106245190D01*
X125471428Y-106245190D02*
X125509523Y-106283285D01*
X125509523Y-106283285D02*
X125547619Y-106359476D01*
X125547619Y-106359476D02*
X125547619Y-106473761D01*
X125547619Y-106473761D02*
X125509523Y-106549952D01*
X125509523Y-106549952D02*
X125471428Y-106588047D01*
X125471428Y-106588047D02*
X125395238Y-106626142D01*
X125395238Y-106626142D02*
X125090476Y-106626142D01*
X125852380Y-106969000D02*
X125966666Y-107007095D01*
X125966666Y-107007095D02*
X126157142Y-107007095D01*
X126157142Y-107007095D02*
X126233333Y-106969000D01*
X126233333Y-106969000D02*
X126271428Y-106930904D01*
X126271428Y-106930904D02*
X126309523Y-106854714D01*
X126309523Y-106854714D02*
X126309523Y-106778523D01*
X126309523Y-106778523D02*
X126271428Y-106702333D01*
X126271428Y-106702333D02*
X126233333Y-106664238D01*
X126233333Y-106664238D02*
X126157142Y-106626142D01*
X126157142Y-106626142D02*
X126004761Y-106588047D01*
X126004761Y-106588047D02*
X125928571Y-106549952D01*
X125928571Y-106549952D02*
X125890476Y-106511857D01*
X125890476Y-106511857D02*
X125852380Y-106435666D01*
X125852380Y-106435666D02*
X125852380Y-106359476D01*
X125852380Y-106359476D02*
X125890476Y-106283285D01*
X125890476Y-106283285D02*
X125928571Y-106245190D01*
X125928571Y-106245190D02*
X126004761Y-106207095D01*
X126004761Y-106207095D02*
X126195238Y-106207095D01*
X126195238Y-106207095D02*
X126309523Y-106245190D01*
X126538095Y-106207095D02*
X126995238Y-106207095D01*
X126766666Y-107007095D02*
X126766666Y-106207095D01*
X151125904Y-106657380D02*
X151164000Y-106695476D01*
X151164000Y-106695476D02*
X151202095Y-106809761D01*
X151202095Y-106809761D02*
X151202095Y-106885952D01*
X151202095Y-106885952D02*
X151164000Y-107000238D01*
X151164000Y-107000238D02*
X151087809Y-107076428D01*
X151087809Y-107076428D02*
X151011619Y-107114523D01*
X151011619Y-107114523D02*
X150859238Y-107152619D01*
X150859238Y-107152619D02*
X150744952Y-107152619D01*
X150744952Y-107152619D02*
X150592571Y-107114523D01*
X150592571Y-107114523D02*
X150516380Y-107076428D01*
X150516380Y-107076428D02*
X150440190Y-107000238D01*
X150440190Y-107000238D02*
X150402095Y-106885952D01*
X150402095Y-106885952D02*
X150402095Y-106809761D01*
X150402095Y-106809761D02*
X150440190Y-106695476D01*
X150440190Y-106695476D02*
X150478285Y-106657380D01*
X151202095Y-105933571D02*
X151202095Y-106314523D01*
X151202095Y-106314523D02*
X150402095Y-106314523D01*
X151202095Y-105666904D02*
X150402095Y-105666904D01*
X151202095Y-105209761D02*
X150744952Y-105552619D01*
X150402095Y-105209761D02*
X150859238Y-105666904D01*
X127914285Y-106207095D02*
X128409523Y-106207095D01*
X128409523Y-106207095D02*
X128142857Y-106511857D01*
X128142857Y-106511857D02*
X128257142Y-106511857D01*
X128257142Y-106511857D02*
X128333333Y-106549952D01*
X128333333Y-106549952D02*
X128371428Y-106588047D01*
X128371428Y-106588047D02*
X128409523Y-106664238D01*
X128409523Y-106664238D02*
X128409523Y-106854714D01*
X128409523Y-106854714D02*
X128371428Y-106930904D01*
X128371428Y-106930904D02*
X128333333Y-106969000D01*
X128333333Y-106969000D02*
X128257142Y-107007095D01*
X128257142Y-107007095D02*
X128028571Y-107007095D01*
X128028571Y-107007095D02*
X127952380Y-106969000D01*
X127952380Y-106969000D02*
X127914285Y-106930904D01*
X128638095Y-106207095D02*
X128904762Y-107007095D01*
X128904762Y-107007095D02*
X129171428Y-106207095D01*
X140390476Y-107007095D02*
X140390476Y-106207095D01*
X140390476Y-106207095D02*
X140580952Y-106207095D01*
X140580952Y-106207095D02*
X140695238Y-106245190D01*
X140695238Y-106245190D02*
X140771428Y-106321380D01*
X140771428Y-106321380D02*
X140809523Y-106397571D01*
X140809523Y-106397571D02*
X140847619Y-106549952D01*
X140847619Y-106549952D02*
X140847619Y-106664238D01*
X140847619Y-106664238D02*
X140809523Y-106816619D01*
X140809523Y-106816619D02*
X140771428Y-106892809D01*
X140771428Y-106892809D02*
X140695238Y-106969000D01*
X140695238Y-106969000D02*
X140580952Y-107007095D01*
X140580952Y-107007095D02*
X140390476Y-107007095D01*
X141190476Y-107007095D02*
X141190476Y-106207095D01*
X141571428Y-107007095D02*
X141571428Y-106207095D01*
X141571428Y-106207095D02*
X142028571Y-107007095D01*
X142028571Y-107007095D02*
X142028571Y-106207095D01*
D11*
X132283094Y-91892526D02*
X132283094Y-90622526D01*
X132283094Y-90622526D02*
X132706428Y-91529669D01*
X132706428Y-91529669D02*
X133129761Y-90622526D01*
X133129761Y-90622526D02*
X133129761Y-91892526D01*
X133734523Y-91892526D02*
X133734523Y-91045859D01*
X133734523Y-90622526D02*
X133674047Y-90683002D01*
X133674047Y-90683002D02*
X133734523Y-90743478D01*
X133734523Y-90743478D02*
X133795000Y-90683002D01*
X133795000Y-90683002D02*
X133734523Y-90622526D01*
X133734523Y-90622526D02*
X133734523Y-90743478D01*
X134339285Y-91045859D02*
X134339285Y-91892526D01*
X134339285Y-91166811D02*
X134399762Y-91106335D01*
X134399762Y-91106335D02*
X134520714Y-91045859D01*
X134520714Y-91045859D02*
X134702143Y-91045859D01*
X134702143Y-91045859D02*
X134823095Y-91106335D01*
X134823095Y-91106335D02*
X134883571Y-91227288D01*
X134883571Y-91227288D02*
X134883571Y-91892526D01*
X135488333Y-91892526D02*
X135488333Y-91045859D01*
X135488333Y-90622526D02*
X135427857Y-90683002D01*
X135427857Y-90683002D02*
X135488333Y-90743478D01*
X135488333Y-90743478D02*
X135548810Y-90683002D01*
X135548810Y-90683002D02*
X135488333Y-90622526D01*
X135488333Y-90622526D02*
X135488333Y-90743478D01*
X135972143Y-90622526D02*
X136274524Y-91892526D01*
X136274524Y-91892526D02*
X136516429Y-90985383D01*
X136516429Y-90985383D02*
X136758334Y-91892526D01*
X136758334Y-91892526D02*
X137060715Y-90622526D01*
X137484048Y-91529669D02*
X138088810Y-91529669D01*
X137363096Y-91892526D02*
X137786429Y-90622526D01*
X137786429Y-90622526D02*
X138209763Y-91892526D01*
X138451667Y-90622526D02*
X138875000Y-91892526D01*
X138875000Y-91892526D02*
X139298334Y-90622526D01*
D10*
X153725904Y-106657380D02*
X153764000Y-106695476D01*
X153764000Y-106695476D02*
X153802095Y-106809761D01*
X153802095Y-106809761D02*
X153802095Y-106885952D01*
X153802095Y-106885952D02*
X153764000Y-107000238D01*
X153764000Y-107000238D02*
X153687809Y-107076428D01*
X153687809Y-107076428D02*
X153611619Y-107114523D01*
X153611619Y-107114523D02*
X153459238Y-107152619D01*
X153459238Y-107152619D02*
X153344952Y-107152619D01*
X153344952Y-107152619D02*
X153192571Y-107114523D01*
X153192571Y-107114523D02*
X153116380Y-107076428D01*
X153116380Y-107076428D02*
X153040190Y-107000238D01*
X153040190Y-107000238D02*
X153002095Y-106885952D01*
X153002095Y-106885952D02*
X153002095Y-106809761D01*
X153002095Y-106809761D02*
X153040190Y-106695476D01*
X153040190Y-106695476D02*
X153078285Y-106657380D01*
X153802095Y-106314523D02*
X153002095Y-106314523D01*
X153002095Y-106314523D02*
X153573523Y-106047857D01*
X153573523Y-106047857D02*
X153002095Y-105781190D01*
X153002095Y-105781190D02*
X153802095Y-105781190D01*
X153802095Y-105400237D02*
X153002095Y-105400237D01*
X153002095Y-105400237D02*
X153002095Y-105209761D01*
X153002095Y-105209761D02*
X153040190Y-105095475D01*
X153040190Y-105095475D02*
X153116380Y-105019285D01*
X153116380Y-105019285D02*
X153192571Y-104981190D01*
X153192571Y-104981190D02*
X153344952Y-104943094D01*
X153344952Y-104943094D02*
X153459238Y-104943094D01*
X153459238Y-104943094D02*
X153611619Y-104981190D01*
X153611619Y-104981190D02*
X153687809Y-105019285D01*
X153687809Y-105019285D02*
X153764000Y-105095475D01*
X153764000Y-105095475D02*
X153802095Y-105209761D01*
X153802095Y-105209761D02*
X153802095Y-105400237D01*
X164104761Y-106207095D02*
X164104761Y-106397571D01*
X163914285Y-106321380D02*
X164104761Y-106397571D01*
X164104761Y-106397571D02*
X164295238Y-106321380D01*
X163990476Y-106549952D02*
X164104761Y-106397571D01*
X164104761Y-106397571D02*
X164219047Y-106549952D01*
X139209523Y-95946523D02*
X139590476Y-95946523D01*
X139133333Y-96175095D02*
X139400000Y-95375095D01*
X139400000Y-95375095D02*
X139666666Y-96175095D01*
X135457142Y-106588047D02*
X135571428Y-106626142D01*
X135571428Y-106626142D02*
X135609523Y-106664238D01*
X135609523Y-106664238D02*
X135647619Y-106740428D01*
X135647619Y-106740428D02*
X135647619Y-106854714D01*
X135647619Y-106854714D02*
X135609523Y-106930904D01*
X135609523Y-106930904D02*
X135571428Y-106969000D01*
X135571428Y-106969000D02*
X135495238Y-107007095D01*
X135495238Y-107007095D02*
X135190476Y-107007095D01*
X135190476Y-107007095D02*
X135190476Y-106207095D01*
X135190476Y-106207095D02*
X135457142Y-106207095D01*
X135457142Y-106207095D02*
X135533333Y-106245190D01*
X135533333Y-106245190D02*
X135571428Y-106283285D01*
X135571428Y-106283285D02*
X135609523Y-106359476D01*
X135609523Y-106359476D02*
X135609523Y-106435666D01*
X135609523Y-106435666D02*
X135571428Y-106511857D01*
X135571428Y-106511857D02*
X135533333Y-106549952D01*
X135533333Y-106549952D02*
X135457142Y-106588047D01*
X135457142Y-106588047D02*
X135190476Y-106588047D01*
X136447619Y-106930904D02*
X136409523Y-106969000D01*
X136409523Y-106969000D02*
X136295238Y-107007095D01*
X136295238Y-107007095D02*
X136219047Y-107007095D01*
X136219047Y-107007095D02*
X136104761Y-106969000D01*
X136104761Y-106969000D02*
X136028571Y-106892809D01*
X136028571Y-106892809D02*
X135990476Y-106816619D01*
X135990476Y-106816619D02*
X135952380Y-106664238D01*
X135952380Y-106664238D02*
X135952380Y-106549952D01*
X135952380Y-106549952D02*
X135990476Y-106397571D01*
X135990476Y-106397571D02*
X136028571Y-106321380D01*
X136028571Y-106321380D02*
X136104761Y-106245190D01*
X136104761Y-106245190D02*
X136219047Y-106207095D01*
X136219047Y-106207095D02*
X136295238Y-106207095D01*
X136295238Y-106207095D02*
X136409523Y-106245190D01*
X136409523Y-106245190D02*
X136447619Y-106283285D01*
X136790476Y-107007095D02*
X136790476Y-106207095D01*
X137247619Y-107007095D02*
X136904761Y-106549952D01*
X137247619Y-106207095D02*
X136790476Y-106664238D01*
X163152380Y-90269000D02*
X163266666Y-90307095D01*
X163266666Y-90307095D02*
X163457142Y-90307095D01*
X163457142Y-90307095D02*
X163533333Y-90269000D01*
X163533333Y-90269000D02*
X163571428Y-90230904D01*
X163571428Y-90230904D02*
X163609523Y-90154714D01*
X163609523Y-90154714D02*
X163609523Y-90078523D01*
X163609523Y-90078523D02*
X163571428Y-90002333D01*
X163571428Y-90002333D02*
X163533333Y-89964238D01*
X163533333Y-89964238D02*
X163457142Y-89926142D01*
X163457142Y-89926142D02*
X163304761Y-89888047D01*
X163304761Y-89888047D02*
X163228571Y-89849952D01*
X163228571Y-89849952D02*
X163190476Y-89811857D01*
X163190476Y-89811857D02*
X163152380Y-89735666D01*
X163152380Y-89735666D02*
X163152380Y-89659476D01*
X163152380Y-89659476D02*
X163190476Y-89583285D01*
X163190476Y-89583285D02*
X163228571Y-89545190D01*
X163228571Y-89545190D02*
X163304761Y-89507095D01*
X163304761Y-89507095D02*
X163495238Y-89507095D01*
X163495238Y-89507095D02*
X163609523Y-89545190D01*
X163952381Y-90307095D02*
X163952381Y-89507095D01*
X163952381Y-89507095D02*
X164142857Y-89507095D01*
X164142857Y-89507095D02*
X164257143Y-89545190D01*
X164257143Y-89545190D02*
X164333333Y-89621380D01*
X164333333Y-89621380D02*
X164371428Y-89697571D01*
X164371428Y-89697571D02*
X164409524Y-89849952D01*
X164409524Y-89849952D02*
X164409524Y-89964238D01*
X164409524Y-89964238D02*
X164371428Y-90116619D01*
X164371428Y-90116619D02*
X164333333Y-90192809D01*
X164333333Y-90192809D02*
X164257143Y-90269000D01*
X164257143Y-90269000D02*
X164142857Y-90307095D01*
X164142857Y-90307095D02*
X163952381Y-90307095D01*
X164714285Y-90078523D02*
X165095238Y-90078523D01*
X164638095Y-90307095D02*
X164904762Y-89507095D01*
X164904762Y-89507095D02*
X165171428Y-90307095D01*
X133009523Y-106245190D02*
X132933333Y-106207095D01*
X132933333Y-106207095D02*
X132819047Y-106207095D01*
X132819047Y-106207095D02*
X132704761Y-106245190D01*
X132704761Y-106245190D02*
X132628571Y-106321380D01*
X132628571Y-106321380D02*
X132590476Y-106397571D01*
X132590476Y-106397571D02*
X132552380Y-106549952D01*
X132552380Y-106549952D02*
X132552380Y-106664238D01*
X132552380Y-106664238D02*
X132590476Y-106816619D01*
X132590476Y-106816619D02*
X132628571Y-106892809D01*
X132628571Y-106892809D02*
X132704761Y-106969000D01*
X132704761Y-106969000D02*
X132819047Y-107007095D01*
X132819047Y-107007095D02*
X132895238Y-107007095D01*
X132895238Y-107007095D02*
X133009523Y-106969000D01*
X133009523Y-106969000D02*
X133047619Y-106930904D01*
X133047619Y-106930904D02*
X133047619Y-106664238D01*
X133047619Y-106664238D02*
X132895238Y-106664238D01*
X133390476Y-107007095D02*
X133390476Y-106207095D01*
X133390476Y-106207095D02*
X133847619Y-107007095D01*
X133847619Y-107007095D02*
X133847619Y-106207095D01*
X134228571Y-107007095D02*
X134228571Y-106207095D01*
X134228571Y-106207095D02*
X134419047Y-106207095D01*
X134419047Y-106207095D02*
X134533333Y-106245190D01*
X134533333Y-106245190D02*
X134609523Y-106321380D01*
X134609523Y-106321380D02*
X134647618Y-106397571D01*
X134647618Y-106397571D02*
X134685714Y-106549952D01*
X134685714Y-106549952D02*
X134685714Y-106664238D01*
X134685714Y-106664238D02*
X134647618Y-106816619D01*
X134647618Y-106816619D02*
X134609523Y-106892809D01*
X134609523Y-106892809D02*
X134533333Y-106969000D01*
X134533333Y-106969000D02*
X134419047Y-107007095D01*
X134419047Y-107007095D02*
X134228571Y-107007095D01*
X158090476Y-90307095D02*
X158090476Y-89507095D01*
X158090476Y-89507095D02*
X158280952Y-89507095D01*
X158280952Y-89507095D02*
X158395238Y-89545190D01*
X158395238Y-89545190D02*
X158471428Y-89621380D01*
X158471428Y-89621380D02*
X158509523Y-89697571D01*
X158509523Y-89697571D02*
X158547619Y-89849952D01*
X158547619Y-89849952D02*
X158547619Y-89964238D01*
X158547619Y-89964238D02*
X158509523Y-90116619D01*
X158509523Y-90116619D02*
X158471428Y-90192809D01*
X158471428Y-90192809D02*
X158395238Y-90269000D01*
X158395238Y-90269000D02*
X158280952Y-90307095D01*
X158280952Y-90307095D02*
X158090476Y-90307095D01*
X158890476Y-89888047D02*
X159157142Y-89888047D01*
X159271428Y-90307095D02*
X158890476Y-90307095D01*
X158890476Y-90307095D02*
X158890476Y-89507095D01*
X158890476Y-89507095D02*
X159271428Y-89507095D01*
X159500000Y-89507095D02*
X159957143Y-89507095D01*
X159728571Y-90307095D02*
X159728571Y-89507095D01*
X155790476Y-90307095D02*
X155790476Y-89507095D01*
X155790476Y-89507095D02*
X155980952Y-89507095D01*
X155980952Y-89507095D02*
X156095238Y-89545190D01*
X156095238Y-89545190D02*
X156171428Y-89621380D01*
X156171428Y-89621380D02*
X156209523Y-89697571D01*
X156209523Y-89697571D02*
X156247619Y-89849952D01*
X156247619Y-89849952D02*
X156247619Y-89964238D01*
X156247619Y-89964238D02*
X156209523Y-90116619D01*
X156209523Y-90116619D02*
X156171428Y-90192809D01*
X156171428Y-90192809D02*
X156095238Y-90269000D01*
X156095238Y-90269000D02*
X155980952Y-90307095D01*
X155980952Y-90307095D02*
X155790476Y-90307095D01*
X157009523Y-90307095D02*
X156552380Y-90307095D01*
X156780952Y-90307095D02*
X156780952Y-89507095D01*
X156780952Y-89507095D02*
X156704761Y-89621380D01*
X156704761Y-89621380D02*
X156628571Y-89697571D01*
X156628571Y-89697571D02*
X156552380Y-89735666D01*
X130414285Y-106207095D02*
X130909523Y-106207095D01*
X130909523Y-106207095D02*
X130642857Y-106511857D01*
X130642857Y-106511857D02*
X130757142Y-106511857D01*
X130757142Y-106511857D02*
X130833333Y-106549952D01*
X130833333Y-106549952D02*
X130871428Y-106588047D01*
X130871428Y-106588047D02*
X130909523Y-106664238D01*
X130909523Y-106664238D02*
X130909523Y-106854714D01*
X130909523Y-106854714D02*
X130871428Y-106930904D01*
X130871428Y-106930904D02*
X130833333Y-106969000D01*
X130833333Y-106969000D02*
X130757142Y-107007095D01*
X130757142Y-107007095D02*
X130528571Y-107007095D01*
X130528571Y-107007095D02*
X130452380Y-106969000D01*
X130452380Y-106969000D02*
X130414285Y-106930904D01*
X131138095Y-106207095D02*
X131404762Y-107007095D01*
X131404762Y-107007095D02*
X131671428Y-106207095D01*
X155290476Y-107107095D02*
X155290476Y-106307095D01*
X155290476Y-106307095D02*
X155480952Y-106307095D01*
X155480952Y-106307095D02*
X155595238Y-106345190D01*
X155595238Y-106345190D02*
X155671428Y-106421380D01*
X155671428Y-106421380D02*
X155709523Y-106497571D01*
X155709523Y-106497571D02*
X155747619Y-106649952D01*
X155747619Y-106649952D02*
X155747619Y-106764238D01*
X155747619Y-106764238D02*
X155709523Y-106916619D01*
X155709523Y-106916619D02*
X155671428Y-106992809D01*
X155671428Y-106992809D02*
X155595238Y-107069000D01*
X155595238Y-107069000D02*
X155480952Y-107107095D01*
X155480952Y-107107095D02*
X155290476Y-107107095D01*
X156242857Y-106307095D02*
X156319047Y-106307095D01*
X156319047Y-106307095D02*
X156395238Y-106345190D01*
X156395238Y-106345190D02*
X156433333Y-106383285D01*
X156433333Y-106383285D02*
X156471428Y-106459476D01*
X156471428Y-106459476D02*
X156509523Y-106611857D01*
X156509523Y-106611857D02*
X156509523Y-106802333D01*
X156509523Y-106802333D02*
X156471428Y-106954714D01*
X156471428Y-106954714D02*
X156433333Y-107030904D01*
X156433333Y-107030904D02*
X156395238Y-107069000D01*
X156395238Y-107069000D02*
X156319047Y-107107095D01*
X156319047Y-107107095D02*
X156242857Y-107107095D01*
X156242857Y-107107095D02*
X156166666Y-107069000D01*
X156166666Y-107069000D02*
X156128571Y-107030904D01*
X156128571Y-107030904D02*
X156090476Y-106954714D01*
X156090476Y-106954714D02*
X156052380Y-106802333D01*
X156052380Y-106802333D02*
X156052380Y-106611857D01*
X156052380Y-106611857D02*
X156090476Y-106459476D01*
X156090476Y-106459476D02*
X156128571Y-106383285D01*
X156128571Y-106383285D02*
X156166666Y-106345190D01*
X156166666Y-106345190D02*
X156242857Y-106307095D01*
X152198000Y-106990714D02*
X152226571Y-106905000D01*
X152226571Y-106905000D02*
X152226571Y-106762142D01*
X152226571Y-106762142D02*
X152198000Y-106705000D01*
X152198000Y-106705000D02*
X152169428Y-106676428D01*
X152169428Y-106676428D02*
X152112285Y-106647857D01*
X152112285Y-106647857D02*
X152055142Y-106647857D01*
X152055142Y-106647857D02*
X151998000Y-106676428D01*
X151998000Y-106676428D02*
X151969428Y-106705000D01*
X151969428Y-106705000D02*
X151940857Y-106762142D01*
X151940857Y-106762142D02*
X151912285Y-106876428D01*
X151912285Y-106876428D02*
X151883714Y-106933571D01*
X151883714Y-106933571D02*
X151855142Y-106962142D01*
X151855142Y-106962142D02*
X151798000Y-106990714D01*
X151798000Y-106990714D02*
X151740857Y-106990714D01*
X151740857Y-106990714D02*
X151683714Y-106962142D01*
X151683714Y-106962142D02*
X151655142Y-106933571D01*
X151655142Y-106933571D02*
X151626571Y-106876428D01*
X151626571Y-106876428D02*
X151626571Y-106733571D01*
X151626571Y-106733571D02*
X151655142Y-106647857D01*
X152169428Y-106047856D02*
X152198000Y-106076428D01*
X152198000Y-106076428D02*
X152226571Y-106162142D01*
X152226571Y-106162142D02*
X152226571Y-106219285D01*
X152226571Y-106219285D02*
X152198000Y-106304999D01*
X152198000Y-106304999D02*
X152140857Y-106362142D01*
X152140857Y-106362142D02*
X152083714Y-106390713D01*
X152083714Y-106390713D02*
X151969428Y-106419285D01*
X151969428Y-106419285D02*
X151883714Y-106419285D01*
X151883714Y-106419285D02*
X151769428Y-106390713D01*
X151769428Y-106390713D02*
X151712285Y-106362142D01*
X151712285Y-106362142D02*
X151655142Y-106304999D01*
X151655142Y-106304999D02*
X151626571Y-106219285D01*
X151626571Y-106219285D02*
X151626571Y-106162142D01*
X151626571Y-106162142D02*
X151655142Y-106076428D01*
X151655142Y-106076428D02*
X151683714Y-106047856D01*
X152226571Y-105790713D02*
X151626571Y-105790713D01*
X152226571Y-105447856D02*
X151883714Y-105704999D01*
X151626571Y-105447856D02*
X151969428Y-105790713D01*
X154698000Y-106990714D02*
X154726571Y-106905000D01*
X154726571Y-106905000D02*
X154726571Y-106762142D01*
X154726571Y-106762142D02*
X154698000Y-106705000D01*
X154698000Y-106705000D02*
X154669428Y-106676428D01*
X154669428Y-106676428D02*
X154612285Y-106647857D01*
X154612285Y-106647857D02*
X154555142Y-106647857D01*
X154555142Y-106647857D02*
X154498000Y-106676428D01*
X154498000Y-106676428D02*
X154469428Y-106705000D01*
X154469428Y-106705000D02*
X154440857Y-106762142D01*
X154440857Y-106762142D02*
X154412285Y-106876428D01*
X154412285Y-106876428D02*
X154383714Y-106933571D01*
X154383714Y-106933571D02*
X154355142Y-106962142D01*
X154355142Y-106962142D02*
X154298000Y-106990714D01*
X154298000Y-106990714D02*
X154240857Y-106990714D01*
X154240857Y-106990714D02*
X154183714Y-106962142D01*
X154183714Y-106962142D02*
X154155142Y-106933571D01*
X154155142Y-106933571D02*
X154126571Y-106876428D01*
X154126571Y-106876428D02*
X154126571Y-106733571D01*
X154126571Y-106733571D02*
X154155142Y-106647857D01*
X154726571Y-106390713D02*
X154126571Y-106390713D01*
X160652380Y-90269000D02*
X160766666Y-90307095D01*
X160766666Y-90307095D02*
X160957142Y-90307095D01*
X160957142Y-90307095D02*
X161033333Y-90269000D01*
X161033333Y-90269000D02*
X161071428Y-90230904D01*
X161071428Y-90230904D02*
X161109523Y-90154714D01*
X161109523Y-90154714D02*
X161109523Y-90078523D01*
X161109523Y-90078523D02*
X161071428Y-90002333D01*
X161071428Y-90002333D02*
X161033333Y-89964238D01*
X161033333Y-89964238D02*
X160957142Y-89926142D01*
X160957142Y-89926142D02*
X160804761Y-89888047D01*
X160804761Y-89888047D02*
X160728571Y-89849952D01*
X160728571Y-89849952D02*
X160690476Y-89811857D01*
X160690476Y-89811857D02*
X160652380Y-89735666D01*
X160652380Y-89735666D02*
X160652380Y-89659476D01*
X160652380Y-89659476D02*
X160690476Y-89583285D01*
X160690476Y-89583285D02*
X160728571Y-89545190D01*
X160728571Y-89545190D02*
X160804761Y-89507095D01*
X160804761Y-89507095D02*
X160995238Y-89507095D01*
X160995238Y-89507095D02*
X161109523Y-89545190D01*
X161909524Y-90230904D02*
X161871428Y-90269000D01*
X161871428Y-90269000D02*
X161757143Y-90307095D01*
X161757143Y-90307095D02*
X161680952Y-90307095D01*
X161680952Y-90307095D02*
X161566666Y-90269000D01*
X161566666Y-90269000D02*
X161490476Y-90192809D01*
X161490476Y-90192809D02*
X161452381Y-90116619D01*
X161452381Y-90116619D02*
X161414285Y-89964238D01*
X161414285Y-89964238D02*
X161414285Y-89849952D01*
X161414285Y-89849952D02*
X161452381Y-89697571D01*
X161452381Y-89697571D02*
X161490476Y-89621380D01*
X161490476Y-89621380D02*
X161566666Y-89545190D01*
X161566666Y-89545190D02*
X161680952Y-89507095D01*
X161680952Y-89507095D02*
X161757143Y-89507095D01*
X161757143Y-89507095D02*
X161871428Y-89545190D01*
X161871428Y-89545190D02*
X161909524Y-89583285D01*
X162633333Y-90307095D02*
X162252381Y-90307095D01*
X162252381Y-90307095D02*
X162252381Y-89507095D01*
X160876190Y-106207095D02*
X161333333Y-106207095D01*
X161104761Y-107007095D02*
X161104761Y-106207095D01*
X161523809Y-106207095D02*
X162057143Y-107007095D01*
X162057143Y-106207095D02*
X161523809Y-107007095D01*
X157271428Y-106403000D02*
X156757142Y-107174428D01*
X157442856Y-107003000D02*
X157528571Y-107031571D01*
X157528571Y-107031571D02*
X157671428Y-107031571D01*
X157671428Y-107031571D02*
X157728571Y-107003000D01*
X157728571Y-107003000D02*
X157757142Y-106974428D01*
X157757142Y-106974428D02*
X157785713Y-106917285D01*
X157785713Y-106917285D02*
X157785713Y-106860142D01*
X157785713Y-106860142D02*
X157757142Y-106803000D01*
X157757142Y-106803000D02*
X157728571Y-106774428D01*
X157728571Y-106774428D02*
X157671428Y-106745857D01*
X157671428Y-106745857D02*
X157557142Y-106717285D01*
X157557142Y-106717285D02*
X157499999Y-106688714D01*
X157499999Y-106688714D02*
X157471428Y-106660142D01*
X157471428Y-106660142D02*
X157442856Y-106603000D01*
X157442856Y-106603000D02*
X157442856Y-106545857D01*
X157442856Y-106545857D02*
X157471428Y-106488714D01*
X157471428Y-106488714D02*
X157499999Y-106460142D01*
X157499999Y-106460142D02*
X157557142Y-106431571D01*
X157557142Y-106431571D02*
X157699999Y-106431571D01*
X157699999Y-106431571D02*
X157785713Y-106460142D01*
X158157142Y-106431571D02*
X158271428Y-106431571D01*
X158271428Y-106431571D02*
X158328571Y-106460142D01*
X158328571Y-106460142D02*
X158385714Y-106517285D01*
X158385714Y-106517285D02*
X158414285Y-106631571D01*
X158414285Y-106631571D02*
X158414285Y-106831571D01*
X158414285Y-106831571D02*
X158385714Y-106945857D01*
X158385714Y-106945857D02*
X158328571Y-107003000D01*
X158328571Y-107003000D02*
X158271428Y-107031571D01*
X158271428Y-107031571D02*
X158157142Y-107031571D01*
X158157142Y-107031571D02*
X158100000Y-107003000D01*
X158100000Y-107003000D02*
X158042857Y-106945857D01*
X158042857Y-106945857D02*
X158014285Y-106831571D01*
X158014285Y-106831571D02*
X158014285Y-106631571D01*
X158014285Y-106631571D02*
X158042857Y-106517285D01*
X158042857Y-106517285D02*
X158100000Y-106460142D01*
X158100000Y-106460142D02*
X158157142Y-106431571D01*
X145352380Y-106778523D02*
X145733333Y-106778523D01*
X145276190Y-107007095D02*
X145542857Y-106207095D01*
X145542857Y-106207095D02*
X145809523Y-107007095D01*
X146419047Y-106473761D02*
X146419047Y-107007095D01*
X146228571Y-106169000D02*
X146038094Y-106740428D01*
X146038094Y-106740428D02*
X146533333Y-106740428D01*
X148565457Y-92301083D02*
X147999772Y-91735398D01*
X147999772Y-91735398D02*
X148134459Y-91600711D01*
X148134459Y-91600711D02*
X148242209Y-91546836D01*
X148242209Y-91546836D02*
X148349958Y-91546836D01*
X148349958Y-91546836D02*
X148430770Y-91573774D01*
X148430770Y-91573774D02*
X148565457Y-91654586D01*
X148565457Y-91654586D02*
X148646270Y-91735398D01*
X148646270Y-91735398D02*
X148727082Y-91870085D01*
X148727082Y-91870085D02*
X148754019Y-91950897D01*
X148754019Y-91950897D02*
X148754019Y-92058647D01*
X148754019Y-92058647D02*
X148700144Y-92166396D01*
X148700144Y-92166396D02*
X148565457Y-92301083D01*
X148511583Y-91223587D02*
X148861769Y-90873401D01*
X148861769Y-90873401D02*
X148888706Y-91277462D01*
X148888706Y-91277462D02*
X148969518Y-91196650D01*
X148969518Y-91196650D02*
X149050331Y-91169713D01*
X149050331Y-91169713D02*
X149104205Y-91169713D01*
X149104205Y-91169713D02*
X149185018Y-91196650D01*
X149185018Y-91196650D02*
X149319705Y-91331337D01*
X149319705Y-91331337D02*
X149346642Y-91412149D01*
X149346642Y-91412149D02*
X149346642Y-91466024D01*
X149346642Y-91466024D02*
X149319705Y-91546836D01*
X149319705Y-91546836D02*
X149158080Y-91708461D01*
X149158080Y-91708461D02*
X149077268Y-91735398D01*
X149077268Y-91735398D02*
X149023393Y-91735398D01*
X149481329Y-90199966D02*
X149723766Y-91412149D01*
X150531888Y-90226903D02*
X150531888Y-90280778D01*
X150531888Y-90280778D02*
X150478013Y-90388528D01*
X150478013Y-90388528D02*
X150424138Y-90442403D01*
X150424138Y-90442403D02*
X150316388Y-90496277D01*
X150316388Y-90496277D02*
X150208639Y-90496277D01*
X150208639Y-90496277D02*
X150127827Y-90469340D01*
X150127827Y-90469340D02*
X149993140Y-90388528D01*
X149993140Y-90388528D02*
X149912327Y-90307716D01*
X149912327Y-90307716D02*
X149831515Y-90173029D01*
X149831515Y-90173029D02*
X149804578Y-90092216D01*
X149804578Y-90092216D02*
X149804578Y-89984467D01*
X149804578Y-89984467D02*
X149858453Y-89876717D01*
X149858453Y-89876717D02*
X149912327Y-89822842D01*
X149912327Y-89822842D02*
X150020077Y-89768968D01*
X150020077Y-89768968D02*
X150073952Y-89768968D01*
X150774324Y-90038342D02*
X150882074Y-89984467D01*
X150882074Y-89984467D02*
X151016761Y-89849780D01*
X151016761Y-89849780D02*
X151043698Y-89768968D01*
X151043698Y-89768968D02*
X151043698Y-89715093D01*
X151043698Y-89715093D02*
X151016761Y-89634281D01*
X151016761Y-89634281D02*
X150962886Y-89580406D01*
X150962886Y-89580406D02*
X150882074Y-89553468D01*
X150882074Y-89553468D02*
X150828199Y-89553468D01*
X150828199Y-89553468D02*
X150747387Y-89580406D01*
X150747387Y-89580406D02*
X150612700Y-89661218D01*
X150612700Y-89661218D02*
X150531888Y-89688155D01*
X150531888Y-89688155D02*
X150478013Y-89688155D01*
X150478013Y-89688155D02*
X150397201Y-89661218D01*
X150397201Y-89661218D02*
X150343326Y-89607343D01*
X150343326Y-89607343D02*
X150316388Y-89526531D01*
X150316388Y-89526531D02*
X150316388Y-89472656D01*
X150316388Y-89472656D02*
X150343326Y-89391844D01*
X150343326Y-89391844D02*
X150478013Y-89257157D01*
X150478013Y-89257157D02*
X150585762Y-89203282D01*
X153190476Y-90307095D02*
X153190476Y-89507095D01*
X153190476Y-89507095D02*
X153380952Y-89507095D01*
X153380952Y-89507095D02*
X153495238Y-89545190D01*
X153495238Y-89545190D02*
X153571428Y-89621380D01*
X153571428Y-89621380D02*
X153609523Y-89697571D01*
X153609523Y-89697571D02*
X153647619Y-89849952D01*
X153647619Y-89849952D02*
X153647619Y-89964238D01*
X153647619Y-89964238D02*
X153609523Y-90116619D01*
X153609523Y-90116619D02*
X153571428Y-90192809D01*
X153571428Y-90192809D02*
X153495238Y-90269000D01*
X153495238Y-90269000D02*
X153380952Y-90307095D01*
X153380952Y-90307095D02*
X153190476Y-90307095D01*
X153952380Y-89583285D02*
X153990476Y-89545190D01*
X153990476Y-89545190D02*
X154066666Y-89507095D01*
X154066666Y-89507095D02*
X154257142Y-89507095D01*
X154257142Y-89507095D02*
X154333333Y-89545190D01*
X154333333Y-89545190D02*
X154371428Y-89583285D01*
X154371428Y-89583285D02*
X154409523Y-89659476D01*
X154409523Y-89659476D02*
X154409523Y-89735666D01*
X154409523Y-89735666D02*
X154371428Y-89849952D01*
X154371428Y-89849952D02*
X153914285Y-90307095D01*
X153914285Y-90307095D02*
X154409523Y-90307095D01*
X139034831Y-106631709D02*
X138765457Y-106901083D01*
X138765457Y-106901083D02*
X138199772Y-106335398D01*
X139546642Y-106119899D02*
X139088706Y-106039087D01*
X139223393Y-106443148D02*
X138657708Y-105877462D01*
X138657708Y-105877462D02*
X138873207Y-105661963D01*
X138873207Y-105661963D02*
X138954019Y-105635026D01*
X138954019Y-105635026D02*
X139007894Y-105635026D01*
X139007894Y-105635026D02*
X139088706Y-105661963D01*
X139088706Y-105661963D02*
X139169518Y-105742775D01*
X139169518Y-105742775D02*
X139196456Y-105823587D01*
X139196456Y-105823587D02*
X139196456Y-105877462D01*
X139196456Y-105877462D02*
X139169518Y-105958274D01*
X139169518Y-105958274D02*
X138954019Y-106173774D01*
X140058453Y-105500339D02*
X140058453Y-105554213D01*
X140058453Y-105554213D02*
X140004578Y-105661963D01*
X140004578Y-105661963D02*
X139950703Y-105715838D01*
X139950703Y-105715838D02*
X139842953Y-105769713D01*
X139842953Y-105769713D02*
X139735204Y-105769713D01*
X139735204Y-105769713D02*
X139654392Y-105742775D01*
X139654392Y-105742775D02*
X139519705Y-105661963D01*
X139519705Y-105661963D02*
X139438892Y-105581151D01*
X139438892Y-105581151D02*
X139358080Y-105446464D01*
X139358080Y-105446464D02*
X139331143Y-105365652D01*
X139331143Y-105365652D02*
X139331143Y-105257902D01*
X139331143Y-105257902D02*
X139385018Y-105150152D01*
X139385018Y-105150152D02*
X139438892Y-105096278D01*
X139438892Y-105096278D02*
X139546642Y-105042403D01*
X139546642Y-105042403D02*
X139600517Y-105042403D01*
X140354764Y-105311777D02*
X139789079Y-104746091D01*
X140678013Y-104988528D02*
X140112327Y-104907716D01*
X140112327Y-104422842D02*
X140112327Y-105069340D01*
X143152380Y-106778523D02*
X143533333Y-106778523D01*
X143076190Y-107007095D02*
X143342857Y-106207095D01*
X143342857Y-106207095D02*
X143609523Y-107007095D01*
X143799999Y-106207095D02*
X144295237Y-106207095D01*
X144295237Y-106207095D02*
X144028571Y-106511857D01*
X144028571Y-106511857D02*
X144142856Y-106511857D01*
X144142856Y-106511857D02*
X144219047Y-106549952D01*
X144219047Y-106549952D02*
X144257142Y-106588047D01*
X144257142Y-106588047D02*
X144295237Y-106664238D01*
X144295237Y-106664238D02*
X144295237Y-106854714D01*
X144295237Y-106854714D02*
X144257142Y-106930904D01*
X144257142Y-106930904D02*
X144219047Y-106969000D01*
X144219047Y-106969000D02*
X144142856Y-107007095D01*
X144142856Y-107007095D02*
X143914285Y-107007095D01*
X143914285Y-107007095D02*
X143838094Y-106969000D01*
X143838094Y-106969000D02*
X143799999Y-106930904D01*
X142487619Y-99496904D02*
X143297142Y-99496904D01*
X143297142Y-99496904D02*
X143392380Y-99449285D01*
X143392380Y-99449285D02*
X143440000Y-99401666D01*
X143440000Y-99401666D02*
X143487619Y-99306428D01*
X143487619Y-99306428D02*
X143487619Y-99115952D01*
X143487619Y-99115952D02*
X143440000Y-99020714D01*
X143440000Y-99020714D02*
X143392380Y-98973095D01*
X143392380Y-98973095D02*
X143297142Y-98925476D01*
X143297142Y-98925476D02*
X142487619Y-98925476D01*
X143487619Y-97925476D02*
X143487619Y-98496904D01*
X143487619Y-98211190D02*
X142487619Y-98211190D01*
X142487619Y-98211190D02*
X142630476Y-98306428D01*
X142630476Y-98306428D02*
X142725714Y-98401666D01*
X142725714Y-98401666D02*
X142773333Y-98496904D01*
X161539725Y-103438621D02*
X162683201Y-103438621D01*
X162683201Y-103438621D02*
X162911896Y-103514852D01*
X162911896Y-103514852D02*
X163064360Y-103667316D01*
X163064360Y-103667316D02*
X163140591Y-103896011D01*
X163140591Y-103896011D02*
X163140591Y-104048474D01*
X163140591Y-101837755D02*
X163140591Y-102752536D01*
X163140591Y-102295145D02*
X161539725Y-102295145D01*
X161539725Y-102295145D02*
X161768420Y-102447609D01*
X161768420Y-102447609D02*
X161920884Y-102600072D01*
X161920884Y-102600072D02*
X161997116Y-102752536D01*
X121162619Y-98838333D02*
X121876904Y-98838333D01*
X121876904Y-98838333D02*
X122019761Y-98885952D01*
X122019761Y-98885952D02*
X122115000Y-98981190D01*
X122115000Y-98981190D02*
X122162619Y-99124047D01*
X122162619Y-99124047D02*
X122162619Y-99219285D01*
X121257857Y-98409761D02*
X121210238Y-98362142D01*
X121210238Y-98362142D02*
X121162619Y-98266904D01*
X121162619Y-98266904D02*
X121162619Y-98028809D01*
X121162619Y-98028809D02*
X121210238Y-97933571D01*
X121210238Y-97933571D02*
X121257857Y-97885952D01*
X121257857Y-97885952D02*
X121353095Y-97838333D01*
X121353095Y-97838333D02*
X121448333Y-97838333D01*
X121448333Y-97838333D02*
X121591190Y-97885952D01*
X121591190Y-97885952D02*
X122162619Y-98457380D01*
X122162619Y-98457380D02*
X122162619Y-97838333D01*
D12*
X152440580Y-104315000D02*
X152159420Y-104315000D01*
X152440580Y-103295000D02*
X152159420Y-103295000D01*
X152440580Y-102615000D02*
X152159420Y-102615000D01*
X152440580Y-101595000D02*
X152159420Y-101595000D01*
X141335000Y-98494420D02*
X141335000Y-98775580D01*
X140315000Y-98494420D02*
X140315000Y-98775580D01*
D13*
X147425000Y-92480000D02*
X145425000Y-92480000D01*
X145425000Y-93730000D02*
X148050000Y-93730000D01*
D14*
X141975000Y-100935000D02*
X141975000Y-96535000D01*
X148875000Y-100935000D02*
X148875000Y-96535000D01*
D13*
X142600000Y-102925000D02*
G75*
G03*
X142600000Y-102925000I-100000J0D01*
G01*
D12*
X130137258Y-92227500D02*
X129662742Y-92227500D01*
X130137258Y-91182500D02*
X129662742Y-91182500D01*
D13*
X154650000Y-105345000D02*
X154650000Y-104618800D01*
X166925000Y-105345000D02*
X154650000Y-105345000D01*
X170100000Y-105345000D02*
X169425000Y-105345000D01*
X170100000Y-105345000D02*
X170100000Y-92795000D01*
X154650000Y-102155000D02*
X154650000Y-98802200D01*
X154650000Y-96363800D02*
X154650000Y-91345000D01*
X167925000Y-91345000D02*
X154650000Y-91345000D01*
X165725000Y-95345000D02*
G75*
G03*
X165725000Y-95345000I-100000J0D01*
G01*
D12*
X143540580Y-104515000D02*
X143259420Y-104515000D01*
X143540580Y-103495000D02*
X143259420Y-103495000D01*
X142965580Y-91615000D02*
X142684420Y-91615000D01*
X142965580Y-90595000D02*
X142684420Y-90595000D01*
X140315000Y-102075580D02*
X140315000Y-101794420D01*
X141335000Y-102075580D02*
X141335000Y-101794420D01*
X146165580Y-91615000D02*
X145884420Y-91615000D01*
X146165580Y-90595000D02*
X145884420Y-90595000D01*
D13*
X138200000Y-101235000D02*
X138200000Y-103235000D01*
X139450000Y-103235000D02*
X139450000Y-100610000D01*
D12*
X122100000Y-101405000D02*
X122100000Y-100905000D01*
X123300000Y-101405000D02*
X123300000Y-103405000D01*
X123300000Y-101405000D02*
X122100000Y-101405000D01*
X125900000Y-101405000D02*
X125900000Y-103405000D01*
X132400000Y-101405000D02*
X125900000Y-101405000D01*
X136800000Y-101405000D02*
X135600000Y-101405000D01*
X119600000Y-100905000D02*
X119600000Y-95705000D01*
X122100000Y-100905000D02*
X119600000Y-100905000D01*
X119600000Y-95705000D02*
X122100000Y-95705000D01*
X122100000Y-95705000D02*
X122100000Y-95205000D01*
X122100000Y-95205000D02*
X125300000Y-95205000D01*
X127900000Y-95205000D02*
X136800000Y-95205000D01*
X136800000Y-95205000D02*
X136800000Y-101405000D01*
X132740580Y-105515000D02*
X132459420Y-105515000D01*
X132740580Y-104495000D02*
X132459420Y-104495000D01*
X126940580Y-92215000D02*
X126659420Y-92215000D01*
X126940580Y-91195000D02*
X126659420Y-91195000D01*
D13*
X147425000Y-106360000D02*
X149425000Y-106360000D01*
X149425000Y-105110000D02*
X146800000Y-105110000D01*
X141425000Y-93730000D02*
X143425000Y-93730000D01*
X143425000Y-92480000D02*
X140800000Y-92480000D01*
D12*
X136012258Y-105527500D02*
X135537742Y-105527500D01*
X136012258Y-104482500D02*
X135537742Y-104482500D01*
X152500000Y-95025000D02*
X151500000Y-95025000D01*
X152500000Y-98385000D02*
X151500000Y-98385000D01*
X148165580Y-104345000D02*
X147884420Y-104345000D01*
X148165580Y-103325000D02*
X147884420Y-103325000D01*
X152500000Y-90725000D02*
X151500000Y-90725000D01*
X152500000Y-94085000D02*
X151500000Y-94085000D01*
%LPC*%
D15*
X153075000Y-103805000D03*
X151525000Y-103805000D03*
X153075000Y-102105000D03*
X151525000Y-102105000D03*
D16*
X140825000Y-97860000D03*
X140825000Y-99410000D03*
D17*
X147325000Y-93105000D03*
X145525000Y-93105000D03*
D18*
X142500000Y-101605000D03*
X143150000Y-101605000D03*
X143800000Y-101605000D03*
X144450000Y-101605000D03*
X145100000Y-101605000D03*
X145750000Y-101605000D03*
X146400000Y-101605000D03*
X147050000Y-101605000D03*
X147700000Y-101605000D03*
X148350000Y-101605000D03*
X148350000Y-95865000D03*
X147700000Y-95865000D03*
X147050000Y-95865000D03*
X146400000Y-95865000D03*
X145750000Y-95865000D03*
X145100000Y-95865000D03*
X144450000Y-95865000D03*
X143800000Y-95865000D03*
X143150000Y-95865000D03*
X142500000Y-95865000D03*
D19*
X130725000Y-91705000D03*
X129075000Y-91705000D03*
D20*
X165600000Y-96405000D03*
X165200000Y-97505000D03*
X165600000Y-98605000D03*
X165800000Y-99705000D03*
X165600000Y-100805000D03*
X165800000Y-101905000D03*
X165600000Y-103005000D03*
X165600000Y-104105000D03*
D21*
X155050000Y-103295000D03*
X155050000Y-97595000D03*
D22*
X168200000Y-104895000D03*
X169200000Y-91745000D03*
D15*
X144175000Y-104005000D03*
X142625000Y-104005000D03*
X143600000Y-91105000D03*
X142050000Y-91105000D03*
D23*
X140825000Y-102710000D03*
X140825000Y-101160000D03*
D15*
X146800000Y-91105000D03*
X145250000Y-91105000D03*
D24*
X138825000Y-101335000D03*
X138825000Y-103135000D03*
D25*
X125700000Y-98305000D03*
X132700000Y-98305000D03*
D26*
X126600000Y-94605000D03*
X124600000Y-102005000D03*
D27*
X134000000Y-102005000D03*
D15*
X133375000Y-105005000D03*
X131825000Y-105005000D03*
X127575000Y-91705000D03*
X126025000Y-91705000D03*
D17*
X147525000Y-105735000D03*
X149325000Y-105735000D03*
X141525000Y-93105000D03*
X143325000Y-93105000D03*
D19*
X136600000Y-105005000D03*
X134950000Y-105005000D03*
D28*
X151100000Y-95505000D03*
D29*
X151100000Y-96305000D03*
X151100000Y-97105000D03*
D28*
X151100000Y-97905000D03*
X152900000Y-97905000D03*
D29*
X152900000Y-97105000D03*
X152900000Y-96305000D03*
D28*
X152900000Y-95505000D03*
D15*
X148800000Y-103835000D03*
X147250000Y-103835000D03*
D30*
X167900000Y-88755000D03*
X167900000Y-107805000D03*
D31*
X125977800Y-108457200D03*
X128517800Y-108457200D03*
X131057800Y-108457200D03*
X133597800Y-108457200D03*
X136137800Y-108457200D03*
X138677800Y-108457200D03*
X141217800Y-108457200D03*
X143757800Y-108457200D03*
X146297800Y-108457200D03*
X148837800Y-108457200D03*
X151377800Y-108457200D03*
X153917800Y-108457200D03*
X156457800Y-108457200D03*
X158997800Y-108457200D03*
X161537800Y-108457200D03*
X164077800Y-108482600D03*
X164077800Y-88137200D03*
X161537800Y-88137200D03*
X158997800Y-88137200D03*
X156457800Y-88137200D03*
X153917800Y-88137200D03*
X151377800Y-88137200D03*
X148837800Y-88137200D03*
X146297800Y-88137200D03*
X143757800Y-88137200D03*
X141217800Y-88137200D03*
X138677800Y-88137200D03*
X136137800Y-88137200D03*
D32*
X122150000Y-107205000D03*
X122150000Y-89405000D03*
D28*
X151100000Y-91205000D03*
D29*
X151100000Y-92005000D03*
X151100000Y-92805000D03*
D28*
X151100000Y-93605000D03*
X152900000Y-93605000D03*
D29*
X152900000Y-92805000D03*
X152900000Y-92005000D03*
D28*
X152900000Y-91205000D03*
M02*
