G04 #@! TF.GenerationSoftware,KiCad,Pcbnew,7.0.1*
G04 #@! TF.CreationDate,2023-08-17T16:00:53-05:00*
G04 #@! TF.ProjectId,MiniWAV,4d696e69-5741-4562-9e6b-696361645f70,A*
G04 #@! TF.SameCoordinates,Original*
G04 #@! TF.FileFunction,Copper,L1,Top*
G04 #@! TF.FilePolarity,Positive*
%FSLAX46Y46*%
G04 Gerber Fmt 4.6, Leading zero omitted, Abs format (unit mm)*
G04 Created by KiCad (PCBNEW 7.0.1) date 2023-08-17 16:00:53*
%MOMM*%
%LPD*%
G01*
G04 APERTURE LIST*
G04 Aperture macros list*
%AMRoundRect*
0 Rectangle with rounded corners*
0 $1 Rounding radius*
0 $2 $3 $4 $5 $6 $7 $8 $9 X,Y pos of 4 corners*
0 Add a 4 corners polygon primitive as box body*
4,1,4,$2,$3,$4,$5,$6,$7,$8,$9,$2,$3,0*
0 Add four circle primitives for the rounded corners*
1,1,$1+$1,$2,$3*
1,1,$1+$1,$4,$5*
1,1,$1+$1,$6,$7*
1,1,$1+$1,$8,$9*
0 Add four rect primitives between the rounded corners*
20,1,$1+$1,$2,$3,$4,$5,0*
20,1,$1+$1,$4,$5,$6,$7,0*
20,1,$1+$1,$6,$7,$8,$9,0*
20,1,$1+$1,$8,$9,$2,$3,0*%
G04 Aperture macros list end*
G04 #@! TA.AperFunction,SMDPad,CuDef*
%ADD10RoundRect,0.225000X0.225000X0.250000X-0.225000X0.250000X-0.225000X-0.250000X0.225000X-0.250000X0*%
G04 #@! TD*
G04 #@! TA.AperFunction,SMDPad,CuDef*
%ADD11RoundRect,0.225000X-0.250000X0.225000X-0.250000X-0.225000X0.250000X-0.225000X0.250000X0.225000X0*%
G04 #@! TD*
G04 #@! TA.AperFunction,SMDPad,CuDef*
%ADD12R,1.450000X0.950000*%
G04 #@! TD*
G04 #@! TA.AperFunction,SMDPad,CuDef*
%ADD13RoundRect,0.020500X0.184500X-0.764500X0.184500X0.764500X-0.184500X0.764500X-0.184500X-0.764500X0*%
G04 #@! TD*
G04 #@! TA.AperFunction,SMDPad,CuDef*
%ADD14RoundRect,0.200000X0.200000X0.275000X-0.200000X0.275000X-0.200000X-0.275000X0.200000X-0.275000X0*%
G04 #@! TD*
G04 #@! TA.AperFunction,SMDPad,CuDef*
%ADD15R,2.000000X0.800000*%
G04 #@! TD*
G04 #@! TA.AperFunction,SMDPad,CuDef*
%ADD16R,1.400000X1.800000*%
G04 #@! TD*
G04 #@! TA.AperFunction,SMDPad,CuDef*
%ADD17R,1.900000X1.400000*%
G04 #@! TD*
G04 #@! TA.AperFunction,SMDPad,CuDef*
%ADD18RoundRect,0.225000X0.250000X-0.225000X0.250000X0.225000X-0.250000X0.225000X-0.250000X-0.225000X0*%
G04 #@! TD*
G04 #@! TA.AperFunction,SMDPad,CuDef*
%ADD19R,0.950000X1.450000*%
G04 #@! TD*
G04 #@! TA.AperFunction,SMDPad,CuDef*
%ADD20R,2.200000X2.800000*%
G04 #@! TD*
G04 #@! TA.AperFunction,SMDPad,CuDef*
%ADD21R,2.800000X2.800000*%
G04 #@! TD*
G04 #@! TA.AperFunction,SMDPad,CuDef*
%ADD22R,0.800000X0.500000*%
G04 #@! TD*
G04 #@! TA.AperFunction,SMDPad,CuDef*
%ADD23R,0.800000X0.400000*%
G04 #@! TD*
G04 #@! TA.AperFunction,ComponentPad*
%ADD24O,1.700000X1.700000*%
G04 #@! TD*
G04 #@! TA.AperFunction,ComponentPad*
%ADD25C,4.500000*%
G04 #@! TD*
G04 #@! TA.AperFunction,ViaPad*
%ADD26C,0.900000*%
G04 #@! TD*
G04 #@! TA.AperFunction,ViaPad*
%ADD27C,0.600000*%
G04 #@! TD*
G04 #@! TA.AperFunction,ViaPad*
%ADD28C,0.800000*%
G04 #@! TD*
G04 #@! TA.AperFunction,Conductor*
%ADD29C,0.450000*%
G04 #@! TD*
G04 #@! TA.AperFunction,Conductor*
%ADD30C,0.250000*%
G04 #@! TD*
G04 #@! TA.AperFunction,Conductor*
%ADD31C,0.350000*%
G04 #@! TD*
G04 APERTURE END LIST*
D10*
X153075000Y-103805000D03*
X151525000Y-103805000D03*
X153075000Y-102105000D03*
X151525000Y-102105000D03*
D11*
X140825000Y-97860000D03*
X140825000Y-99410000D03*
D12*
X147325000Y-93105000D03*
X145525000Y-93105000D03*
D13*
X142500000Y-101605000D03*
X143150000Y-101605000D03*
X143800000Y-101605000D03*
X144450000Y-101605000D03*
X145100000Y-101605000D03*
X145750000Y-101605000D03*
X146400000Y-101605000D03*
X147050000Y-101605000D03*
X147700000Y-101605000D03*
X148350000Y-101605000D03*
X148350000Y-95865000D03*
X147700000Y-95865000D03*
X147050000Y-95865000D03*
X146400000Y-95865000D03*
X145750000Y-95865000D03*
X145100000Y-95865000D03*
X144450000Y-95865000D03*
X143800000Y-95865000D03*
X143150000Y-95865000D03*
X142500000Y-95865000D03*
D14*
X130725000Y-91705000D03*
X129075000Y-91705000D03*
D15*
X165600000Y-96405000D03*
X165200000Y-97505000D03*
X165600000Y-98605000D03*
X165800000Y-99705000D03*
X165600000Y-100805000D03*
X165800000Y-101905000D03*
X165600000Y-103005000D03*
X165600000Y-104105000D03*
D16*
X155050000Y-103295000D03*
X155050000Y-97595000D03*
D17*
X168200000Y-104895000D03*
X169200000Y-91745000D03*
D10*
X144175000Y-104005000D03*
X142625000Y-104005000D03*
X143600000Y-91105000D03*
X142050000Y-91105000D03*
D18*
X140825000Y-102710000D03*
X140825000Y-101160000D03*
D10*
X146800000Y-91105000D03*
X145250000Y-91105000D03*
D19*
X138825000Y-101335000D03*
X138825000Y-103135000D03*
D20*
X126600000Y-94605000D03*
X124600000Y-102005000D03*
D21*
X134000000Y-102005000D03*
D10*
X133375000Y-105005000D03*
X131825000Y-105005000D03*
X127575000Y-91705000D03*
X126025000Y-91705000D03*
D12*
X147525000Y-105735000D03*
X149325000Y-105735000D03*
X141525000Y-93105000D03*
X143325000Y-93105000D03*
D14*
X136600000Y-105005000D03*
X134950000Y-105005000D03*
D22*
X151100000Y-95505000D03*
D23*
X151100000Y-96305000D03*
X151100000Y-97105000D03*
D22*
X151100000Y-97905000D03*
X152900000Y-97905000D03*
D23*
X152900000Y-97105000D03*
X152900000Y-96305000D03*
D22*
X152900000Y-95505000D03*
D10*
X148800000Y-103835000D03*
X147250000Y-103835000D03*
D24*
X125977800Y-108457200D03*
X128517800Y-108457200D03*
X131057800Y-108457200D03*
X133597800Y-108457200D03*
X136137800Y-108457200D03*
X138677800Y-108457200D03*
X141217800Y-108457200D03*
X143757800Y-108457200D03*
X146297800Y-108457200D03*
X148837800Y-108457200D03*
X151377800Y-108457200D03*
X153917800Y-108457200D03*
X156457800Y-108457200D03*
X158997800Y-108457200D03*
X161537800Y-108457200D03*
X164077800Y-108482600D03*
X164077800Y-88137200D03*
X161537800Y-88137200D03*
X158997800Y-88137200D03*
X156457800Y-88137200D03*
X153917800Y-88137200D03*
X151377800Y-88137200D03*
X148837800Y-88137200D03*
X146297800Y-88137200D03*
X143757800Y-88137200D03*
X141217800Y-88137200D03*
X138677800Y-88137200D03*
X136137800Y-88137200D03*
D25*
X122150000Y-107205000D03*
X122150000Y-89405000D03*
D22*
X151100000Y-91205000D03*
D23*
X151100000Y-92005000D03*
X151100000Y-92805000D03*
D22*
X151100000Y-93605000D03*
X152900000Y-93605000D03*
D23*
X152900000Y-92805000D03*
X152900000Y-92005000D03*
D22*
X152900000Y-91205000D03*
D26*
X160900000Y-99405000D03*
D27*
X138300000Y-106605000D03*
D26*
X153100000Y-100605000D03*
D27*
X139000000Y-99905000D03*
D28*
X165500000Y-92105000D03*
X161200000Y-97105000D03*
X155900000Y-94505000D03*
X137100000Y-94305000D03*
X168600000Y-102305000D03*
X137100000Y-101905000D03*
X149900000Y-102505000D03*
X156400000Y-105005000D03*
X163300000Y-106305000D03*
X149500000Y-92305000D03*
D27*
X140800000Y-104005000D03*
D28*
X163000000Y-98705000D03*
X162500000Y-101605000D03*
X161600000Y-103005000D03*
X154600000Y-101005000D03*
X163800000Y-104105000D03*
X157200000Y-90405000D03*
X156072905Y-100229500D03*
X152000000Y-94705000D03*
D27*
X138100000Y-105681000D03*
X135100000Y-99805000D03*
D28*
X147200000Y-97405000D03*
X146400000Y-98205000D03*
X145600000Y-99205000D03*
D29*
X151100000Y-97105000D02*
X151100000Y-96305000D01*
X130370000Y-106605000D02*
X138300000Y-106605000D01*
X138300000Y-106605000D02*
X146655000Y-106605000D01*
X153075000Y-103805000D02*
X153075000Y-102105000D01*
X153100000Y-100605000D02*
X153100000Y-102080000D01*
D30*
X141525000Y-94890000D02*
X141525000Y-93105000D01*
X142500000Y-96652611D02*
X142822389Y-96975000D01*
X140825000Y-101160000D02*
X142055000Y-101160000D01*
D29*
X138825000Y-100080000D02*
X139000000Y-99905000D01*
D30*
X141525000Y-91630000D02*
X142050000Y-91105000D01*
D29*
X151100000Y-96305000D02*
X151100000Y-95505000D01*
D30*
X141525000Y-93105000D02*
X141525000Y-91630000D01*
X142822389Y-96975000D02*
X144127611Y-96975000D01*
D29*
X151100000Y-100130000D02*
X151100000Y-97905000D01*
X151100000Y-95505000D02*
X151100000Y-93605000D01*
X139000000Y-92605000D02*
X139000000Y-99905000D01*
D30*
X144450000Y-96652611D02*
X144450000Y-95865000D01*
X147250000Y-105460000D02*
X147525000Y-105735000D01*
D29*
X151100000Y-92805000D02*
X151100000Y-92005000D01*
D30*
X138825000Y-101335000D02*
X140650000Y-101335000D01*
D29*
X153100000Y-102080000D02*
X153075000Y-102105000D01*
X146685000Y-106635000D02*
X151170000Y-106635000D01*
D30*
X144127611Y-96975000D02*
X144450000Y-96652611D01*
X142055000Y-101160000D02*
X142500000Y-101605000D01*
X142500000Y-95865000D02*
X142500000Y-96652611D01*
D29*
X153075000Y-102105000D02*
X151100000Y-100130000D01*
X146655000Y-106605000D02*
X147525000Y-105735000D01*
X161200000Y-99705000D02*
X160900000Y-99405000D01*
X151170000Y-106635000D02*
X153075000Y-104730000D01*
D30*
X147250000Y-103835000D02*
X147050000Y-103635000D01*
D29*
X146655000Y-106605000D02*
X146685000Y-106635000D01*
D30*
X142500000Y-95865000D02*
X141525000Y-94890000D01*
X147050000Y-103635000D02*
X147050000Y-101605000D01*
D29*
X153075000Y-104730000D02*
X153075000Y-103805000D01*
X142050000Y-91105000D02*
X139000000Y-92605000D01*
X151100000Y-92005000D02*
X151100000Y-91205000D01*
D30*
X147250000Y-103835000D02*
X147250000Y-105460000D01*
D29*
X128517800Y-108457200D02*
X130370000Y-106605000D01*
X151100000Y-97905000D02*
X151100000Y-97105000D01*
X165800000Y-99705000D02*
X161200000Y-99705000D01*
X151100000Y-93605000D02*
X151100000Y-92805000D01*
D30*
X140650000Y-101335000D02*
X140825000Y-101160000D01*
D29*
X138825000Y-101335000D02*
X138825000Y-100080000D01*
D30*
X142625000Y-104005000D02*
X143800000Y-102830000D01*
D29*
X145525000Y-91380000D02*
X145250000Y-91105000D01*
D30*
X143325000Y-93105000D02*
X143150000Y-93280000D01*
D29*
X145525000Y-93105000D02*
X145525000Y-91380000D01*
D30*
X145100000Y-95865000D02*
X145100000Y-95077389D01*
X147700000Y-95005000D02*
X147700000Y-95865000D01*
X148800000Y-105210000D02*
X149325000Y-105735000D01*
X147700000Y-101605000D02*
X147700000Y-102735000D01*
X148800000Y-103835000D02*
X148800000Y-105210000D01*
X147700000Y-102735000D02*
X148800000Y-103835000D01*
X145422389Y-94755000D02*
X147450000Y-94755000D01*
X143150000Y-93280000D02*
X143150000Y-95865000D01*
X143800000Y-102830000D02*
X143800000Y-101605000D01*
D29*
X139250000Y-102710000D02*
X138825000Y-103135000D01*
X143325000Y-93105000D02*
X143325000Y-91380000D01*
X140825000Y-102710000D02*
X139250000Y-102710000D01*
D30*
X147450000Y-94755000D02*
X147700000Y-95005000D01*
X145100000Y-95077389D02*
X145422389Y-94755000D01*
D29*
X143325000Y-91380000D02*
X143600000Y-91105000D01*
D30*
X147325000Y-93105000D02*
X147325000Y-91630000D01*
X146124501Y-94305499D02*
X147325000Y-93105000D01*
X143800000Y-95077389D02*
X144571890Y-94305499D01*
X143800000Y-95865000D02*
X143800000Y-95077389D01*
X144571890Y-94305499D02*
X146124501Y-94305499D01*
X147325000Y-91630000D02*
X146800000Y-91105000D01*
X144450000Y-100817389D02*
X144450000Y-101605000D01*
X141492611Y-97860000D02*
X144450000Y-100817389D01*
X140825000Y-97860000D02*
X141492611Y-97860000D01*
X141742611Y-99410000D02*
X140825000Y-99410000D01*
X143150000Y-100817389D02*
X141742611Y-99410000D01*
X143150000Y-101605000D02*
X143150000Y-100817389D01*
X144175000Y-104005000D02*
X145100000Y-103080000D01*
X145100000Y-103080000D02*
X145100000Y-101605000D01*
D31*
X129075000Y-91705000D02*
X127575000Y-91705000D01*
X127575000Y-93630000D02*
X126600000Y-94605000D01*
X127575000Y-91705000D02*
X127575000Y-93630000D01*
X133375000Y-102630000D02*
X134000000Y-102005000D01*
X134950000Y-105005000D02*
X133375000Y-105005000D01*
X133375000Y-105005000D02*
X133375000Y-102630000D01*
D30*
X165600000Y-96405000D02*
X165600000Y-94705000D01*
X152900000Y-91205000D02*
X152900000Y-89155000D01*
X165600000Y-94705000D02*
X162100000Y-91205000D01*
X162100000Y-91205000D02*
X152900000Y-91205000D01*
X152900000Y-89155000D02*
X153917800Y-88137200D01*
X151825000Y-91580000D02*
X151825000Y-88584400D01*
X152250000Y-92005000D02*
X151825000Y-91580000D01*
X152900000Y-92005000D02*
X152250000Y-92005000D01*
X161900000Y-92005000D02*
X152900000Y-92005000D01*
X151825000Y-88584400D02*
X151377800Y-88137200D01*
X163500000Y-93605000D02*
X161900000Y-92005000D01*
X165200000Y-97505000D02*
X164600000Y-97505000D01*
X164600000Y-97505000D02*
X163500000Y-96405000D01*
X163500000Y-96405000D02*
X163500000Y-93605000D01*
X160800000Y-105305000D02*
X159400000Y-106705000D01*
X162700000Y-97055000D02*
X162700000Y-93805000D01*
X162500000Y-101605000D02*
X161600000Y-101605000D01*
X160800000Y-102405000D02*
X160800000Y-105305000D01*
X155670000Y-106705000D02*
X153917800Y-108457200D01*
X163100000Y-98605000D02*
X163000000Y-98705000D01*
X162700000Y-93805000D02*
X161700000Y-92805000D01*
X164250000Y-98605000D02*
X162700000Y-97055000D01*
X161700000Y-92805000D02*
X152900000Y-92805000D01*
X159400000Y-106705000D02*
X155670000Y-106705000D01*
X165600000Y-98605000D02*
X164250000Y-98605000D01*
X161600000Y-101605000D02*
X160800000Y-102405000D01*
X164250000Y-98605000D02*
X163100000Y-98605000D01*
X159900000Y-94705000D02*
X158800000Y-93605000D01*
X159200000Y-106105000D02*
X153730000Y-106105000D01*
X160900000Y-100805000D02*
X159900000Y-101805000D01*
X158800000Y-93605000D02*
X152900000Y-93605000D01*
X159900000Y-101805000D02*
X159900000Y-105405000D01*
X165600000Y-100805000D02*
X160900000Y-100805000D01*
X153730000Y-106105000D02*
X151377800Y-108457200D01*
X159900000Y-99805000D02*
X159900000Y-94705000D01*
X160900000Y-100805000D02*
X159900000Y-99805000D01*
X159900000Y-105405000D02*
X159200000Y-106105000D01*
X153400000Y-97105000D02*
X152900000Y-97105000D01*
X153625000Y-97330000D02*
X153400000Y-97105000D01*
X161600000Y-105140690D02*
X159586189Y-107154501D01*
X153625000Y-100030000D02*
X153625000Y-97330000D01*
X157760499Y-107154501D02*
X156457800Y-108457200D01*
X161600000Y-103005000D02*
X161600000Y-105140690D01*
X154600000Y-101005000D02*
X153625000Y-100030000D01*
X159586189Y-107154501D02*
X157760499Y-107154501D01*
X165600000Y-103005000D02*
X161600000Y-103005000D01*
X156075500Y-96370500D02*
X156075500Y-100226905D01*
X165600000Y-104105000D02*
X163800000Y-104105000D01*
X157200000Y-90405000D02*
X156457800Y-89662800D01*
X156075500Y-100226905D02*
X156072905Y-100229500D01*
X156457800Y-89662800D02*
X156457800Y-88137200D01*
X156010000Y-96305000D02*
X156075500Y-96370500D01*
X152900000Y-96305000D02*
X156010000Y-96305000D01*
X152900000Y-95505000D02*
X152800000Y-95505000D01*
X152800000Y-95505000D02*
X152000000Y-94705000D01*
X156800000Y-96005000D02*
X156300000Y-95505000D01*
X155050000Y-103295000D02*
X156800000Y-101545000D01*
X156800000Y-101545000D02*
X156800000Y-96005000D01*
X156300000Y-95505000D02*
X152900000Y-95505000D01*
D31*
X135100000Y-99805000D02*
X135100000Y-96080000D01*
X146400000Y-101605000D02*
X146400000Y-103881346D01*
X135100000Y-96080000D02*
X130725000Y-91705000D01*
X144600346Y-105681000D02*
X138100000Y-105681000D01*
X146400000Y-103881346D02*
X144600346Y-105681000D01*
X145750000Y-101605000D02*
X145750000Y-103753528D01*
X145750000Y-103753528D02*
X144498528Y-105005000D01*
X144498528Y-105005000D02*
X136600000Y-105005000D01*
D30*
X147050000Y-97255000D02*
X147050000Y-95865000D01*
X147200000Y-97405000D02*
X147050000Y-97255000D01*
X146400000Y-98205000D02*
X146400000Y-95865000D01*
X145609500Y-96793111D02*
X145750000Y-96652611D01*
X145750000Y-96652611D02*
X145750000Y-95865000D01*
X145609500Y-99195500D02*
X145609500Y-96793111D01*
X145600000Y-99205000D02*
X145609500Y-99195500D01*
G04 #@! TA.AperFunction,Conductor*
G36*
X167434647Y-87222862D02*
G01*
X167480291Y-87271302D01*
X167494313Y-87336365D01*
X167472674Y-87399306D01*
X167421608Y-87441992D01*
X167217940Y-87534056D01*
X167021410Y-87666886D01*
X166850155Y-87831020D01*
X166709104Y-88021735D01*
X166602312Y-88233545D01*
X166559724Y-88372608D01*
X166532852Y-88460357D01*
X166514860Y-88600862D01*
X166502722Y-88695647D01*
X166512789Y-88932636D01*
X166512790Y-88932639D01*
X166562764Y-89164524D01*
X166562765Y-89164526D01*
X166627707Y-89326142D01*
X166651209Y-89384627D01*
X166775579Y-89586617D01*
X166929430Y-89761426D01*
X166932298Y-89764684D01*
X167116850Y-89913700D01*
X167323940Y-90029388D01*
X167547601Y-90108412D01*
X167781394Y-90148500D01*
X167781396Y-90148500D01*
X167959191Y-90148500D01*
X167959195Y-90148500D01*
X168077299Y-90138447D01*
X168136354Y-90133421D01*
X168289390Y-90093573D01*
X168365910Y-90073650D01*
X168473984Y-90024796D01*
X168582060Y-89975943D01*
X168778590Y-89843113D01*
X168949844Y-89678979D01*
X169090896Y-89488264D01*
X169197688Y-89276454D01*
X169267148Y-89049643D01*
X169297278Y-88814356D01*
X169287210Y-88577361D01*
X169237236Y-88345476D01*
X169148791Y-88125373D01*
X169024421Y-87923383D01*
X168867703Y-87745317D01*
X168867701Y-87745315D01*
X168683149Y-87596299D01*
X168476059Y-87480611D01*
X168377863Y-87445917D01*
X168322038Y-87406077D01*
X168295927Y-87342659D01*
X168307517Y-87275063D01*
X168353264Y-87223966D01*
X168419172Y-87205000D01*
X169248638Y-87205000D01*
X169296091Y-87214439D01*
X169336319Y-87241319D01*
X170063681Y-87968681D01*
X170090561Y-88008909D01*
X170100000Y-88056362D01*
X170100000Y-90421000D01*
X170083387Y-90483000D01*
X170038000Y-90528387D01*
X169976000Y-90545000D01*
X169450000Y-90545000D01*
X169450000Y-92945000D01*
X169976000Y-92945000D01*
X170038000Y-92961613D01*
X170083387Y-93007000D01*
X170100000Y-93069000D01*
X170100000Y-108462454D01*
X170093288Y-108502697D01*
X170073880Y-108538582D01*
X169925794Y-108728979D01*
X169437233Y-109357129D01*
X169393833Y-109392391D01*
X169339353Y-109405000D01*
X168253705Y-109405000D01*
X168196318Y-109390922D01*
X168151963Y-109351884D01*
X168130709Y-109296750D01*
X168137385Y-109238040D01*
X168170473Y-109189085D01*
X168222460Y-109161001D01*
X168365910Y-109123650D01*
X168473984Y-109074796D01*
X168582060Y-109025943D01*
X168778590Y-108893113D01*
X168949844Y-108728979D01*
X169090896Y-108538264D01*
X169197688Y-108326454D01*
X169267148Y-108099643D01*
X169297278Y-107864356D01*
X169287210Y-107627361D01*
X169237236Y-107395476D01*
X169148791Y-107175373D01*
X169024421Y-106973383D01*
X168867703Y-106795317D01*
X168867701Y-106795315D01*
X168683149Y-106646299D01*
X168476059Y-106530611D01*
X168252398Y-106451587D01*
X168018606Y-106411500D01*
X168018604Y-106411500D01*
X167840809Y-106411500D01*
X167840805Y-106411500D01*
X167663647Y-106426578D01*
X167434089Y-106486349D01*
X167217940Y-106584056D01*
X167021410Y-106716886D01*
X166850155Y-106881020D01*
X166709104Y-107071735D01*
X166602312Y-107283545D01*
X166532852Y-107510356D01*
X166502722Y-107745647D01*
X166512789Y-107982636D01*
X166531938Y-108071492D01*
X166562764Y-108214524D01*
X166651209Y-108434627D01*
X166775579Y-108636617D01*
X166881985Y-108757518D01*
X166932298Y-108814684D01*
X167116850Y-108963700D01*
X167323940Y-109079388D01*
X167547601Y-109158412D01*
X167549771Y-109158784D01*
X167554144Y-109160723D01*
X167557550Y-109161927D01*
X167557456Y-109162192D01*
X167605341Y-109183431D01*
X167642519Y-109231528D01*
X167652368Y-109291516D01*
X167632523Y-109348976D01*
X167587751Y-109390099D01*
X167528815Y-109405000D01*
X165318787Y-109405000D01*
X165254459Y-109387009D01*
X165208798Y-109338257D01*
X165195052Y-109272890D01*
X165217212Y-109209877D01*
X165231771Y-109189085D01*
X165251835Y-109160430D01*
X165351703Y-108946263D01*
X165412863Y-108718008D01*
X165433459Y-108482600D01*
X165429261Y-108434623D01*
X165412863Y-108247192D01*
X165404110Y-108214524D01*
X165351703Y-108018937D01*
X165251835Y-107804771D01*
X165116295Y-107611199D01*
X164949201Y-107444105D01*
X164755630Y-107308565D01*
X164541463Y-107208697D01*
X164446668Y-107183297D01*
X164313207Y-107147536D01*
X164077800Y-107126940D01*
X163842392Y-107147536D01*
X163614136Y-107208697D01*
X163399970Y-107308565D01*
X163206398Y-107444105D01*
X163039308Y-107611195D01*
X162918267Y-107784060D01*
X162873949Y-107822925D01*
X162816692Y-107836936D01*
X162759435Y-107822925D01*
X162715117Y-107784059D01*
X162711836Y-107779373D01*
X162711835Y-107779371D01*
X162576295Y-107585799D01*
X162409201Y-107418705D01*
X162215630Y-107283165D01*
X162001463Y-107183297D01*
X161940302Y-107166909D01*
X161773207Y-107122136D01*
X161537800Y-107101540D01*
X161302392Y-107122136D01*
X161074136Y-107183297D01*
X160859970Y-107283165D01*
X160666398Y-107418705D01*
X160499305Y-107585798D01*
X160369375Y-107771359D01*
X160325057Y-107810225D01*
X160267800Y-107824236D01*
X160210543Y-107810225D01*
X160166226Y-107771361D01*
X160097283Y-107672899D01*
X160076169Y-107619752D01*
X160081154Y-107562777D01*
X160111177Y-107514101D01*
X161983789Y-105641490D01*
X161999885Y-105628596D01*
X162001873Y-105626477D01*
X162001877Y-105626476D01*
X162047948Y-105577413D01*
X162050566Y-105574713D01*
X162070120Y-105555161D01*
X162072581Y-105551988D01*
X162080156Y-105543117D01*
X162110062Y-105511272D01*
X162119712Y-105493717D01*
X162130400Y-105477447D01*
X162142673Y-105461626D01*
X162160026Y-105421522D01*
X162165157Y-105411052D01*
X162168680Y-105404644D01*
X162186197Y-105372782D01*
X162191175Y-105353389D01*
X162197481Y-105334972D01*
X162199018Y-105331418D01*
X162205438Y-105316586D01*
X162212272Y-105273435D01*
X162214635Y-105262021D01*
X162225500Y-105219709D01*
X162225500Y-105199674D01*
X162227027Y-105180275D01*
X162227037Y-105180213D01*
X162230160Y-105160494D01*
X162226050Y-105117015D01*
X162225500Y-105105346D01*
X162225500Y-103754500D01*
X162242113Y-103692500D01*
X162287500Y-103647113D01*
X162349500Y-103630500D01*
X162836661Y-103630500D01*
X162892956Y-103644015D01*
X162936979Y-103681615D01*
X162959134Y-103735102D01*
X162954592Y-103792818D01*
X162914326Y-103916742D01*
X162894540Y-104105000D01*
X162914326Y-104293257D01*
X162972820Y-104473284D01*
X163067466Y-104637216D01*
X163194129Y-104777889D01*
X163347269Y-104889151D01*
X163520197Y-104966144D01*
X163705352Y-105005500D01*
X163705354Y-105005500D01*
X163894646Y-105005500D01*
X163894648Y-105005500D01*
X164021968Y-104978437D01*
X164079803Y-104966144D01*
X164170614Y-104925712D01*
X164202086Y-104911700D01*
X164266363Y-104901754D01*
X164326832Y-104925712D01*
X164342789Y-104937657D01*
X164357669Y-104948796D01*
X164492517Y-104999091D01*
X164552127Y-105005500D01*
X166626000Y-105005499D01*
X166688000Y-105022112D01*
X166733387Y-105067499D01*
X166750000Y-105129499D01*
X166750000Y-105642824D01*
X166756402Y-105702375D01*
X166806647Y-105837089D01*
X166892811Y-105952188D01*
X167007910Y-106038352D01*
X167142624Y-106088597D01*
X167202176Y-106095000D01*
X167950000Y-106095000D01*
X167950000Y-105145000D01*
X168450000Y-105145000D01*
X168450000Y-106095000D01*
X169197824Y-106095000D01*
X169257375Y-106088597D01*
X169392089Y-106038352D01*
X169507188Y-105952188D01*
X169593352Y-105837089D01*
X169643597Y-105702375D01*
X169650000Y-105642824D01*
X169650000Y-105145000D01*
X168450000Y-105145000D01*
X167950000Y-105145000D01*
X167950000Y-103695000D01*
X168450000Y-103695000D01*
X168450000Y-104645000D01*
X169650000Y-104645000D01*
X169650000Y-104147176D01*
X169643597Y-104087624D01*
X169593352Y-103952910D01*
X169507188Y-103837811D01*
X169392089Y-103751647D01*
X169257375Y-103701402D01*
X169197824Y-103695000D01*
X168450000Y-103695000D01*
X167950000Y-103695000D01*
X167215955Y-103695000D01*
X167157827Y-103680532D01*
X167113265Y-103640503D01*
X167102467Y-103611020D01*
X167099535Y-103612114D01*
X167094396Y-103598337D01*
X167086577Y-103554999D01*
X167093858Y-103514644D01*
X167094090Y-103512485D01*
X167094091Y-103512483D01*
X167100500Y-103452873D01*
X167100499Y-102766695D01*
X167113616Y-102711190D01*
X167150191Y-102667427D01*
X167157189Y-102662188D01*
X167243352Y-102547089D01*
X167293597Y-102412375D01*
X167300000Y-102352824D01*
X167300000Y-102155000D01*
X166848069Y-102155000D01*
X166804737Y-102147182D01*
X166707483Y-102110909D01*
X166647873Y-102104500D01*
X166647869Y-102104500D01*
X164552130Y-102104500D01*
X164492515Y-102110909D01*
X164395264Y-102147182D01*
X164351931Y-102155000D01*
X164300000Y-102155000D01*
X164296071Y-102158928D01*
X164286884Y-102197809D01*
X164250312Y-102241571D01*
X164242454Y-102247452D01*
X164180802Y-102329811D01*
X164137039Y-102366384D01*
X164081535Y-102379500D01*
X163292888Y-102379500D01*
X163237753Y-102366568D01*
X163194118Y-102330470D01*
X163171084Y-102278735D01*
X163173456Y-102222153D01*
X163200739Y-102172527D01*
X163232533Y-102137216D01*
X163327179Y-101973284D01*
X163331667Y-101959470D01*
X163385674Y-101793256D01*
X163405460Y-101605000D01*
X163401514Y-101567459D01*
X163413384Y-101500142D01*
X163459125Y-101449342D01*
X163524835Y-101430500D01*
X164081535Y-101430500D01*
X164137039Y-101443616D01*
X164180800Y-101480187D01*
X164202861Y-101509656D01*
X164242454Y-101562547D01*
X164250312Y-101568429D01*
X164286884Y-101612191D01*
X164296071Y-101651071D01*
X164300000Y-101655000D01*
X164351931Y-101655000D01*
X164395262Y-101662817D01*
X164492517Y-101699091D01*
X164552127Y-101705500D01*
X166647872Y-101705499D01*
X166707483Y-101699091D01*
X166804736Y-101662817D01*
X166848069Y-101655000D01*
X167300000Y-101655000D01*
X167300000Y-101457176D01*
X167293597Y-101397624D01*
X167243352Y-101262910D01*
X167157188Y-101147810D01*
X167150188Y-101142570D01*
X167113615Y-101098807D01*
X167100499Y-101043306D01*
X167100499Y-100567320D01*
X167113615Y-100511816D01*
X167150189Y-100468054D01*
X167154209Y-100465043D01*
X167157546Y-100462546D01*
X167243796Y-100347331D01*
X167294091Y-100212483D01*
X167300500Y-100152873D01*
X167300499Y-99257128D01*
X167294091Y-99197517D01*
X167243796Y-99062669D01*
X167157546Y-98947454D01*
X167157544Y-98947453D01*
X167157544Y-98947452D01*
X167150189Y-98941946D01*
X167113615Y-98898184D01*
X167100499Y-98842679D01*
X167100499Y-98157130D01*
X167097942Y-98133344D01*
X167094091Y-98097517D01*
X167043796Y-97962669D01*
X166957546Y-97847454D01*
X166842331Y-97761204D01*
X166781163Y-97738389D01*
X166738929Y-97711952D01*
X166710511Y-97671022D01*
X166700499Y-97622209D01*
X166700499Y-97387791D01*
X166710511Y-97338978D01*
X166738929Y-97298048D01*
X166781163Y-97271610D01*
X166842331Y-97248796D01*
X166957546Y-97162546D01*
X167043796Y-97047331D01*
X167094091Y-96912483D01*
X167100500Y-96852873D01*
X167100499Y-95957128D01*
X167094091Y-95897517D01*
X167043796Y-95762669D01*
X166957546Y-95647454D01*
X166842331Y-95561204D01*
X166707483Y-95510909D01*
X166647873Y-95504500D01*
X166647869Y-95504500D01*
X166349500Y-95504500D01*
X166287500Y-95487887D01*
X166242113Y-95442500D01*
X166225500Y-95380500D01*
X166225500Y-94787740D01*
X166227763Y-94767236D01*
X166226561Y-94728989D01*
X166225561Y-94697144D01*
X166225500Y-94693250D01*
X166225500Y-94665657D01*
X166225500Y-94665650D01*
X166224995Y-94661653D01*
X166224080Y-94650023D01*
X166223829Y-94642024D01*
X166222709Y-94606372D01*
X166217119Y-94587134D01*
X166213174Y-94568082D01*
X166210664Y-94548208D01*
X166202815Y-94528385D01*
X166194578Y-94507581D01*
X166190805Y-94496560D01*
X166178617Y-94454610D01*
X166174886Y-94448302D01*
X166168421Y-94437369D01*
X166159863Y-94419902D01*
X166152486Y-94401268D01*
X166126798Y-94365912D01*
X166120409Y-94356184D01*
X166098170Y-94318579D01*
X166084006Y-94304415D01*
X166071369Y-94289620D01*
X166059595Y-94273414D01*
X166040317Y-94257466D01*
X166025935Y-94245568D01*
X166017305Y-94237714D01*
X163774591Y-91995000D01*
X167750000Y-91995000D01*
X167750000Y-92492824D01*
X167756402Y-92552375D01*
X167806647Y-92687089D01*
X167892811Y-92802188D01*
X168007910Y-92888352D01*
X168142624Y-92938597D01*
X168202176Y-92945000D01*
X168950000Y-92945000D01*
X168950000Y-91995000D01*
X167750000Y-91995000D01*
X163774591Y-91995000D01*
X163274591Y-91495000D01*
X167750000Y-91495000D01*
X168950000Y-91495000D01*
X168950000Y-90545000D01*
X168202176Y-90545000D01*
X168142624Y-90551402D01*
X168007910Y-90601647D01*
X167892811Y-90687811D01*
X167806647Y-90802910D01*
X167756402Y-90937624D01*
X167750000Y-90997176D01*
X167750000Y-91495000D01*
X163274591Y-91495000D01*
X162600802Y-90821211D01*
X162587906Y-90805113D01*
X162536775Y-90757098D01*
X162533978Y-90754387D01*
X162514470Y-90734879D01*
X162511290Y-90732412D01*
X162502424Y-90724839D01*
X162470582Y-90694938D01*
X162453024Y-90685285D01*
X162436764Y-90674604D01*
X162420936Y-90662327D01*
X162380851Y-90644980D01*
X162370361Y-90639841D01*
X162332091Y-90618802D01*
X162312691Y-90613821D01*
X162294284Y-90607519D01*
X162275897Y-90599562D01*
X162232758Y-90592729D01*
X162221324Y-90590361D01*
X162179019Y-90579500D01*
X162158984Y-90579500D01*
X162139586Y-90577973D01*
X162132162Y-90576797D01*
X162119805Y-90574840D01*
X162119804Y-90574840D01*
X162086751Y-90577964D01*
X162076325Y-90578950D01*
X162064656Y-90579500D01*
X158224835Y-90579500D01*
X158159125Y-90560658D01*
X158113384Y-90509858D01*
X158101514Y-90442540D01*
X158105460Y-90405000D01*
X158085674Y-90216744D01*
X158036150Y-90064326D01*
X158027179Y-90036715D01*
X157932533Y-89872783D01*
X157805870Y-89732110D01*
X157652730Y-89620848D01*
X157479802Y-89543855D01*
X157294648Y-89504500D01*
X157294646Y-89504500D01*
X157252896Y-89504500D01*
X157192780Y-89488953D01*
X157147738Y-89446210D01*
X157129066Y-89386990D01*
X157141446Y-89326142D01*
X157181769Y-89278927D01*
X157329201Y-89175695D01*
X157496295Y-89008601D01*
X157626226Y-88823039D01*
X157670543Y-88784175D01*
X157727800Y-88770164D01*
X157785057Y-88784175D01*
X157829373Y-88823039D01*
X157959305Y-89008601D01*
X158126399Y-89175695D01*
X158319970Y-89311235D01*
X158534137Y-89411103D01*
X158761272Y-89471963D01*
X158762392Y-89472263D01*
X158997799Y-89492859D01*
X158997799Y-89492858D01*
X158997800Y-89492859D01*
X159233208Y-89472263D01*
X159461463Y-89411103D01*
X159675630Y-89311235D01*
X159869201Y-89175695D01*
X160036295Y-89008601D01*
X160166226Y-88823039D01*
X160210543Y-88784175D01*
X160267800Y-88770164D01*
X160325057Y-88784175D01*
X160369373Y-88823039D01*
X160499305Y-89008601D01*
X160666399Y-89175695D01*
X160859970Y-89311235D01*
X161074137Y-89411103D01*
X161301272Y-89471963D01*
X161302392Y-89472263D01*
X161537799Y-89492859D01*
X161537799Y-89492858D01*
X161537800Y-89492859D01*
X161773208Y-89472263D01*
X162001463Y-89411103D01*
X162215630Y-89311235D01*
X162409201Y-89175695D01*
X162576295Y-89008601D01*
X162706226Y-88823039D01*
X162750543Y-88784175D01*
X162807800Y-88770164D01*
X162865057Y-88784175D01*
X162909373Y-88823039D01*
X163039305Y-89008601D01*
X163206399Y-89175695D01*
X163399970Y-89311235D01*
X163614137Y-89411103D01*
X163841272Y-89471963D01*
X163842392Y-89472263D01*
X164077799Y-89492859D01*
X164077799Y-89492858D01*
X164077800Y-89492859D01*
X164313208Y-89472263D01*
X164541463Y-89411103D01*
X164755630Y-89311235D01*
X164949201Y-89175695D01*
X165116295Y-89008601D01*
X165251835Y-88815030D01*
X165351703Y-88600863D01*
X165412863Y-88372608D01*
X165433459Y-88137200D01*
X165412863Y-87901792D01*
X165351703Y-87673537D01*
X165251835Y-87459371D01*
X165210348Y-87400121D01*
X165188189Y-87337110D01*
X165201935Y-87271743D01*
X165247596Y-87222991D01*
X165311924Y-87205000D01*
X167370532Y-87205000D01*
X167434647Y-87222862D01*
G37*
G04 #@! TD.AperFunction*
G04 #@! TA.AperFunction,Conductor*
G36*
X134968004Y-87222991D02*
G01*
X135013665Y-87271743D01*
X135027411Y-87337110D01*
X135005251Y-87400121D01*
X134975934Y-87441992D01*
X134963764Y-87459373D01*
X134863897Y-87673536D01*
X134802736Y-87901792D01*
X134782140Y-88137199D01*
X134802736Y-88372607D01*
X134826249Y-88460357D01*
X134863897Y-88600863D01*
X134963765Y-88815030D01*
X135099305Y-89008601D01*
X135266399Y-89175695D01*
X135459970Y-89311235D01*
X135674137Y-89411103D01*
X135901272Y-89471963D01*
X135902392Y-89472263D01*
X136137799Y-89492859D01*
X136137799Y-89492858D01*
X136137800Y-89492859D01*
X136373208Y-89472263D01*
X136601463Y-89411103D01*
X136815630Y-89311235D01*
X137009201Y-89175695D01*
X137176295Y-89008601D01*
X137306226Y-88823039D01*
X137350543Y-88784175D01*
X137407800Y-88770164D01*
X137465057Y-88784175D01*
X137509373Y-88823039D01*
X137639305Y-89008601D01*
X137806399Y-89175695D01*
X137999970Y-89311235D01*
X138214137Y-89411103D01*
X138441272Y-89471963D01*
X138442392Y-89472263D01*
X138677799Y-89492859D01*
X138677799Y-89492858D01*
X138677800Y-89492859D01*
X138913208Y-89472263D01*
X139141463Y-89411103D01*
X139355630Y-89311235D01*
X139549201Y-89175695D01*
X139716295Y-89008601D01*
X139846226Y-88823039D01*
X139890543Y-88784175D01*
X139947800Y-88770164D01*
X140005057Y-88784175D01*
X140049373Y-88823039D01*
X140179305Y-89008601D01*
X140346399Y-89175695D01*
X140539970Y-89311235D01*
X140754137Y-89411103D01*
X140981272Y-89471963D01*
X140982392Y-89472263D01*
X141217799Y-89492859D01*
X141217799Y-89492858D01*
X141217800Y-89492859D01*
X141453208Y-89472263D01*
X141681463Y-89411103D01*
X141895630Y-89311235D01*
X142089201Y-89175695D01*
X142256295Y-89008601D01*
X142386226Y-88823039D01*
X142430543Y-88784175D01*
X142487800Y-88770164D01*
X142545057Y-88784175D01*
X142589373Y-88823039D01*
X142719305Y-89008601D01*
X142886399Y-89175695D01*
X143079970Y-89311235D01*
X143294137Y-89411103D01*
X143521272Y-89471963D01*
X143522392Y-89472263D01*
X143757799Y-89492859D01*
X143757799Y-89492858D01*
X143757800Y-89492859D01*
X143993208Y-89472263D01*
X144221463Y-89411103D01*
X144435630Y-89311235D01*
X144629201Y-89175695D01*
X144796295Y-89008601D01*
X144926226Y-88823039D01*
X144970543Y-88784175D01*
X145027800Y-88770164D01*
X145085057Y-88784175D01*
X145129373Y-88823039D01*
X145259305Y-89008601D01*
X145426399Y-89175695D01*
X145619970Y-89311235D01*
X145834137Y-89411103D01*
X146061272Y-89471963D01*
X146062392Y-89472263D01*
X146297799Y-89492859D01*
X146297799Y-89492858D01*
X146297800Y-89492859D01*
X146533208Y-89472263D01*
X146761463Y-89411103D01*
X146975630Y-89311235D01*
X147169201Y-89175695D01*
X147336295Y-89008601D01*
X147466226Y-88823039D01*
X147510543Y-88784175D01*
X147567800Y-88770164D01*
X147625057Y-88784175D01*
X147669373Y-88823039D01*
X147799305Y-89008601D01*
X147966399Y-89175695D01*
X148159970Y-89311235D01*
X148374137Y-89411103D01*
X148601272Y-89471963D01*
X148602392Y-89472263D01*
X148837799Y-89492859D01*
X148837799Y-89492858D01*
X148837800Y-89492859D01*
X149073208Y-89472263D01*
X149301463Y-89411103D01*
X149515630Y-89311235D01*
X149709201Y-89175695D01*
X149876295Y-89008601D01*
X150006226Y-88823039D01*
X150050543Y-88784175D01*
X150107800Y-88770164D01*
X150165057Y-88784175D01*
X150209373Y-88823039D01*
X150339305Y-89008601D01*
X150506399Y-89175695D01*
X150699970Y-89311235D01*
X150914137Y-89411103D01*
X151045160Y-89446210D01*
X151107593Y-89462939D01*
X151155206Y-89487724D01*
X151187882Y-89530309D01*
X151199500Y-89582714D01*
X151199500Y-90330500D01*
X151182887Y-90392500D01*
X151137500Y-90437887D01*
X151075500Y-90454500D01*
X150652130Y-90454500D01*
X150592515Y-90460909D01*
X150457669Y-90511204D01*
X150342454Y-90597454D01*
X150256204Y-90712668D01*
X150205909Y-90847516D01*
X150199500Y-90907130D01*
X150199500Y-91502869D01*
X150205909Y-91562483D01*
X150214929Y-91586668D01*
X150222746Y-91629998D01*
X150214929Y-91673329D01*
X150205909Y-91697513D01*
X150199500Y-91757130D01*
X150199500Y-92252869D01*
X150205652Y-92310096D01*
X150205909Y-92312483D01*
X150221830Y-92355171D01*
X150224253Y-92361666D01*
X150232071Y-92404999D01*
X150224253Y-92448331D01*
X150205909Y-92497513D01*
X150199500Y-92557130D01*
X150199500Y-93052869D01*
X150205909Y-93112483D01*
X150214929Y-93136668D01*
X150222746Y-93179998D01*
X150214929Y-93223329D01*
X150205909Y-93247513D01*
X150199500Y-93307130D01*
X150199500Y-93902869D01*
X150200559Y-93912717D01*
X150205909Y-93962483D01*
X150256204Y-94097331D01*
X150342454Y-94212546D01*
X150342455Y-94212547D01*
X150349767Y-94222314D01*
X150368154Y-94257466D01*
X150374500Y-94296625D01*
X150374500Y-94813375D01*
X150368154Y-94852534D01*
X150349767Y-94887686D01*
X150342455Y-94897452D01*
X150342454Y-94897454D01*
X150259804Y-95007860D01*
X150256204Y-95012669D01*
X150205909Y-95147516D01*
X150199500Y-95207130D01*
X150199500Y-95802869D01*
X150205909Y-95862486D01*
X150214928Y-95886667D01*
X150222746Y-95929998D01*
X150214929Y-95973329D01*
X150205909Y-95997513D01*
X150205909Y-95997517D01*
X150199958Y-96052873D01*
X150199500Y-96057130D01*
X150199500Y-96552869D01*
X150205909Y-96612483D01*
X150224253Y-96661666D01*
X150232071Y-96704999D01*
X150224253Y-96748331D01*
X150205909Y-96797513D01*
X150205909Y-96797517D01*
X150199958Y-96852873D01*
X150199500Y-96857130D01*
X150199500Y-97352869D01*
X150205909Y-97412483D01*
X150214929Y-97436668D01*
X150222746Y-97479998D01*
X150214929Y-97523329D01*
X150205909Y-97547513D01*
X150205909Y-97547517D01*
X150199712Y-97605160D01*
X150199500Y-97607130D01*
X150199500Y-98202869D01*
X150204825Y-98252398D01*
X150205909Y-98262483D01*
X150256204Y-98397331D01*
X150342454Y-98512546D01*
X150342455Y-98512547D01*
X150349767Y-98522314D01*
X150368154Y-98557466D01*
X150374500Y-98596625D01*
X150374500Y-100068113D01*
X150373191Y-100086083D01*
X150369870Y-100108756D01*
X150374028Y-100156284D01*
X150374500Y-100167091D01*
X150374500Y-100172255D01*
X150377971Y-100201956D01*
X150378337Y-100205541D01*
X150384785Y-100279245D01*
X150388721Y-100297000D01*
X150414018Y-100366504D01*
X150415202Y-100369908D01*
X150438481Y-100440160D01*
X150446405Y-100456526D01*
X150487051Y-100518327D01*
X150488987Y-100521366D01*
X150527845Y-100584362D01*
X150539327Y-100598456D01*
X150540450Y-100599515D01*
X150540451Y-100599517D01*
X150568843Y-100626303D01*
X150593147Y-100649233D01*
X150595734Y-100651746D01*
X150970879Y-101026891D01*
X151000324Y-101073860D01*
X151006360Y-101128967D01*
X150987779Y-101181196D01*
X150948296Y-101220110D01*
X150847266Y-101282427D01*
X150727426Y-101402267D01*
X150638453Y-101546513D01*
X150585143Y-101707393D01*
X150575000Y-101806685D01*
X150575000Y-101855000D01*
X151651000Y-101855000D01*
X151713000Y-101871613D01*
X151758387Y-101917000D01*
X151775000Y-101979000D01*
X151775000Y-104779999D01*
X151799312Y-104804311D01*
X151831406Y-104859898D01*
X151831406Y-104924085D01*
X151799312Y-104979673D01*
X150905808Y-105873181D01*
X150865580Y-105900061D01*
X150818127Y-105909500D01*
X149199000Y-105909500D01*
X149137000Y-105892887D01*
X149091613Y-105847500D01*
X149075000Y-105785500D01*
X149075000Y-105609000D01*
X149091613Y-105547000D01*
X149137000Y-105501613D01*
X149199000Y-105485000D01*
X150550000Y-105485000D01*
X150550000Y-105212176D01*
X150543597Y-105152624D01*
X150493352Y-105017910D01*
X150407188Y-104902811D01*
X150292089Y-104816647D01*
X150157375Y-104766402D01*
X150097824Y-104760000D01*
X149674668Y-104760000D01*
X149618373Y-104746485D01*
X149574350Y-104708885D01*
X149552195Y-104655398D01*
X149556737Y-104597682D01*
X149586987Y-104548319D01*
X149597573Y-104537732D01*
X149686546Y-104393486D01*
X149739856Y-104232606D01*
X149750000Y-104133315D01*
X149750000Y-104085000D01*
X148674000Y-104085000D01*
X148612000Y-104068387D01*
X148598613Y-104055000D01*
X150575001Y-104055000D01*
X150575001Y-104103315D01*
X150585143Y-104202605D01*
X150638453Y-104363486D01*
X150727426Y-104507732D01*
X150847267Y-104627573D01*
X150991513Y-104716546D01*
X151152393Y-104769856D01*
X151251685Y-104780000D01*
X151275000Y-104780000D01*
X151275000Y-104055000D01*
X150575001Y-104055000D01*
X148598613Y-104055000D01*
X148566613Y-104023000D01*
X148550000Y-103961000D01*
X148550000Y-103709000D01*
X148566613Y-103647000D01*
X148612000Y-103601613D01*
X148674000Y-103585000D01*
X149749999Y-103585000D01*
X149749999Y-103555000D01*
X150575000Y-103555000D01*
X151275000Y-103555000D01*
X151275000Y-102355000D01*
X150575001Y-102355000D01*
X150575001Y-102403315D01*
X150585143Y-102502605D01*
X150638453Y-102663486D01*
X150727426Y-102807732D01*
X150787013Y-102867319D01*
X150819107Y-102922906D01*
X150819107Y-102987094D01*
X150787013Y-103042681D01*
X150727426Y-103102267D01*
X150638453Y-103246513D01*
X150585143Y-103407393D01*
X150575000Y-103506685D01*
X150575000Y-103555000D01*
X149749999Y-103555000D01*
X149749999Y-103536685D01*
X149739856Y-103437394D01*
X149686546Y-103276513D01*
X149597573Y-103132267D01*
X149477732Y-103012426D01*
X149333486Y-102923453D01*
X149172606Y-102870143D01*
X149073315Y-102860000D01*
X149065430Y-102860000D01*
X149000100Y-102841394D01*
X148954374Y-102791160D01*
X148941976Y-102724373D01*
X148966626Y-102661075D01*
X148992465Y-102627000D01*
X149044955Y-102493897D01*
X149055000Y-102410251D01*
X149055000Y-101810000D01*
X147879500Y-101810000D01*
X147817500Y-101793387D01*
X147772113Y-101748000D01*
X147755500Y-101686000D01*
X147755500Y-101524000D01*
X147772113Y-101462000D01*
X147817500Y-101416613D01*
X147879500Y-101400000D01*
X148145000Y-101400000D01*
X148145000Y-100320000D01*
X148555000Y-100320000D01*
X148555000Y-101400000D01*
X149055000Y-101400000D01*
X149055000Y-100799749D01*
X149044955Y-100716102D01*
X148992465Y-100582999D01*
X148906010Y-100468989D01*
X148792000Y-100382534D01*
X148658897Y-100330044D01*
X148575251Y-100320000D01*
X148555000Y-100320000D01*
X148145000Y-100320000D01*
X148124748Y-100320000D01*
X148039783Y-100330202D01*
X148010217Y-100330202D01*
X147925252Y-100320000D01*
X147905000Y-100320000D01*
X147905000Y-100493706D01*
X147889906Y-100552998D01*
X147848298Y-100597855D01*
X147790306Y-100617356D01*
X147730049Y-100606755D01*
X147682196Y-100568631D01*
X147606366Y-100468633D01*
X147544075Y-100421397D01*
X147507944Y-100377753D01*
X147495000Y-100322593D01*
X147495000Y-100320000D01*
X147474749Y-100320000D01*
X147391880Y-100329951D01*
X147362312Y-100329950D01*
X147275291Y-100319500D01*
X147275286Y-100319500D01*
X146824714Y-100319500D01*
X146781616Y-100324675D01*
X146739784Y-100329699D01*
X146710216Y-100329699D01*
X146668383Y-100324675D01*
X146625286Y-100319500D01*
X146174714Y-100319500D01*
X146131616Y-100324675D01*
X146089784Y-100329699D01*
X146060216Y-100329699D01*
X146018383Y-100324675D01*
X145975286Y-100319500D01*
X145867639Y-100319500D01*
X145809424Y-100304985D01*
X145764838Y-100264840D01*
X145744318Y-100208461D01*
X145752668Y-100149049D01*
X145787934Y-100100510D01*
X145841858Y-100074210D01*
X145870220Y-100068181D01*
X145879803Y-100066144D01*
X146052730Y-99989151D01*
X146146272Y-99921189D01*
X146205870Y-99877889D01*
X146220883Y-99861216D01*
X146332533Y-99737216D01*
X146427179Y-99573284D01*
X146485674Y-99393256D01*
X146505460Y-99205000D01*
X146505459Y-99204998D01*
X146506822Y-99192039D01*
X146510052Y-99192378D01*
X146515003Y-99157078D01*
X146550269Y-99108521D01*
X146604202Y-99082212D01*
X146679803Y-99066144D01*
X146679804Y-99066143D01*
X146679806Y-99066143D01*
X146852730Y-98989151D01*
X147005870Y-98877889D01*
X147042943Y-98836716D01*
X147132533Y-98737216D01*
X147227179Y-98573284D01*
X147285674Y-98393256D01*
X147285674Y-98393254D01*
X147289701Y-98380861D01*
X147290056Y-98380976D01*
X147301417Y-98346007D01*
X147335920Y-98307686D01*
X147383022Y-98286714D01*
X147479803Y-98266144D01*
X147652730Y-98189151D01*
X147805871Y-98077888D01*
X147932533Y-97937216D01*
X148027179Y-97773284D01*
X148085674Y-97593256D01*
X148105460Y-97405000D01*
X148091150Y-97268848D01*
X148097584Y-97214497D01*
X148126791Y-97168208D01*
X148145000Y-97149999D01*
X148145000Y-96070000D01*
X148555000Y-96070000D01*
X148555000Y-97150000D01*
X148575251Y-97150000D01*
X148658897Y-97139955D01*
X148792000Y-97087465D01*
X148906010Y-97001010D01*
X148992465Y-96887000D01*
X149044955Y-96753897D01*
X149055000Y-96670251D01*
X149055000Y-96070000D01*
X148555000Y-96070000D01*
X148145000Y-96070000D01*
X147879500Y-96070000D01*
X147817500Y-96053387D01*
X147772113Y-96008000D01*
X147755500Y-95946000D01*
X147755500Y-95784000D01*
X147772113Y-95722000D01*
X147817500Y-95676613D01*
X147879500Y-95660000D01*
X148145000Y-95660000D01*
X148145000Y-94580000D01*
X148555000Y-94580000D01*
X148555000Y-95660000D01*
X149055000Y-95660000D01*
X149055000Y-95059749D01*
X149044955Y-94976102D01*
X148992465Y-94842999D01*
X148906010Y-94728989D01*
X148792000Y-94642534D01*
X148658897Y-94590044D01*
X148575251Y-94580000D01*
X148555000Y-94580000D01*
X148145000Y-94580000D01*
X148124748Y-94580000D01*
X148039783Y-94590202D01*
X148010217Y-94590202D01*
X147925252Y-94580000D01*
X147905000Y-94580000D01*
X147905000Y-94753706D01*
X147889906Y-94812998D01*
X147848298Y-94857855D01*
X147790306Y-94877356D01*
X147730049Y-94866755D01*
X147682196Y-94828631D01*
X147606366Y-94728633D01*
X147544075Y-94681397D01*
X147507944Y-94637753D01*
X147495000Y-94582593D01*
X147495000Y-94580000D01*
X147474749Y-94580000D01*
X147391880Y-94589951D01*
X147362312Y-94589950D01*
X147275291Y-94579500D01*
X147275286Y-94579500D01*
X147034452Y-94579500D01*
X146978157Y-94565985D01*
X146934134Y-94528385D01*
X146911979Y-94474898D01*
X146916521Y-94417182D01*
X146946771Y-94367819D01*
X147197772Y-94116818D01*
X147238000Y-94089938D01*
X147285453Y-94080499D01*
X148097870Y-94080499D01*
X148097872Y-94080499D01*
X148157483Y-94074091D01*
X148292331Y-94023796D01*
X148407546Y-93937546D01*
X148493796Y-93822331D01*
X148544091Y-93687483D01*
X148550500Y-93627873D01*
X148550499Y-92582128D01*
X148544091Y-92522517D01*
X148493796Y-92387669D01*
X148407546Y-92272454D01*
X148292331Y-92186204D01*
X148157483Y-92135909D01*
X148097873Y-92129500D01*
X148097869Y-92129500D01*
X148074500Y-92129500D01*
X148012500Y-92112887D01*
X147967113Y-92067500D01*
X147950500Y-92005500D01*
X147950500Y-91712741D01*
X147952763Y-91692237D01*
X147952583Y-91686518D01*
X147950561Y-91622145D01*
X147950500Y-91618251D01*
X147950500Y-91590657D01*
X147950500Y-91590650D01*
X147949995Y-91586653D01*
X147949080Y-91575023D01*
X147948686Y-91562483D01*
X147947709Y-91531373D01*
X147942120Y-91512140D01*
X147938174Y-91493082D01*
X147935664Y-91473208D01*
X147919588Y-91432606D01*
X147915804Y-91421552D01*
X147903619Y-91379613D01*
X147903618Y-91379612D01*
X147903618Y-91379610D01*
X147893417Y-91362361D01*
X147884860Y-91344895D01*
X147877486Y-91326268D01*
X147851813Y-91290932D01*
X147845402Y-91281172D01*
X147823169Y-91243578D01*
X147809006Y-91229415D01*
X147796369Y-91214620D01*
X147775387Y-91185741D01*
X147777477Y-91184221D01*
X147762296Y-91164645D01*
X147750499Y-91111857D01*
X147750499Y-90806655D01*
X147740349Y-90707292D01*
X147687002Y-90546300D01*
X147597968Y-90401955D01*
X147478044Y-90282031D01*
X147333699Y-90192997D01*
X147172707Y-90139650D01*
X147078239Y-90130000D01*
X147073344Y-90129500D01*
X146526655Y-90129500D01*
X146427292Y-90139650D01*
X146266300Y-90192997D01*
X146121954Y-90282031D01*
X146112325Y-90291661D01*
X146056738Y-90323753D01*
X145992551Y-90323753D01*
X145936965Y-90291659D01*
X145927732Y-90282426D01*
X145783486Y-90193453D01*
X145622606Y-90140143D01*
X145523315Y-90130000D01*
X145500000Y-90130000D01*
X145500000Y-91231000D01*
X145483387Y-91293000D01*
X145438000Y-91338387D01*
X145376000Y-91355000D01*
X143474000Y-91355000D01*
X143412000Y-91338387D01*
X143366613Y-91293000D01*
X143350000Y-91231000D01*
X143350000Y-90130001D01*
X143326685Y-90130001D01*
X143227394Y-90140143D01*
X143066513Y-90193453D01*
X142922266Y-90282426D01*
X142913032Y-90291661D01*
X142857445Y-90323753D01*
X142793258Y-90323753D01*
X142737672Y-90291659D01*
X142728044Y-90282031D01*
X142583699Y-90192997D01*
X142422707Y-90139650D01*
X142328239Y-90130000D01*
X143850000Y-90130000D01*
X143850000Y-90855000D01*
X145000000Y-90855000D01*
X145000000Y-90130001D01*
X144976685Y-90130001D01*
X144877394Y-90140143D01*
X144716513Y-90193453D01*
X144572267Y-90282426D01*
X144512681Y-90342013D01*
X144457094Y-90374107D01*
X144392906Y-90374107D01*
X144337319Y-90342013D01*
X144277732Y-90282426D01*
X144133486Y-90193453D01*
X143972606Y-90140143D01*
X143873315Y-90130000D01*
X143850000Y-90130000D01*
X142328239Y-90130000D01*
X142323344Y-90129500D01*
X141776655Y-90129500D01*
X141677292Y-90139650D01*
X141516300Y-90192997D01*
X141371955Y-90282031D01*
X141252031Y-90401955D01*
X141162997Y-90546300D01*
X141105538Y-90719703D01*
X141081313Y-90762169D01*
X141042556Y-90791970D01*
X138698814Y-91944631D01*
X138693206Y-91947218D01*
X138634780Y-91972421D01*
X138589429Y-92006182D01*
X138582659Y-92010880D01*
X138535173Y-92041548D01*
X138525443Y-92051690D01*
X138510018Y-92065302D01*
X138498743Y-92073696D01*
X138462403Y-92117004D01*
X138456897Y-92123139D01*
X138417760Y-92163935D01*
X138410633Y-92176044D01*
X138398766Y-92192842D01*
X138389726Y-92203615D01*
X138364352Y-92254139D01*
X138360410Y-92261379D01*
X138331736Y-92310100D01*
X138327591Y-92323534D01*
X138319920Y-92342611D01*
X138313613Y-92355171D01*
X138300573Y-92410185D01*
X138298407Y-92418136D01*
X138281742Y-92472160D01*
X138280808Y-92486175D01*
X138277742Y-92506519D01*
X138274500Y-92520201D01*
X138274500Y-92576724D01*
X138274226Y-92584967D01*
X138270467Y-92641380D01*
X138272792Y-92655240D01*
X138274500Y-92675751D01*
X138274500Y-99533583D01*
X138267541Y-99574538D01*
X138258133Y-99601426D01*
X138250334Y-99623712D01*
X138228285Y-99662458D01*
X138213737Y-99679795D01*
X138203961Y-99695141D01*
X138172699Y-99762182D01*
X138171129Y-99765426D01*
X138137919Y-99831554D01*
X138131947Y-99848738D01*
X138116985Y-99921189D01*
X138116206Y-99924704D01*
X138099142Y-99996708D01*
X138097295Y-100014785D01*
X138097340Y-100016337D01*
X138097340Y-100016338D01*
X138097863Y-100034302D01*
X138099448Y-100088782D01*
X138099500Y-100092388D01*
X138099500Y-100110249D01*
X138086384Y-100165753D01*
X138049811Y-100209515D01*
X137992456Y-100252451D01*
X137906204Y-100367668D01*
X137857774Y-100497515D01*
X137855909Y-100502517D01*
X137850033Y-100557176D01*
X137849500Y-100562130D01*
X137849500Y-102107869D01*
X137854567Y-102155000D01*
X137855909Y-102167483D01*
X137860768Y-102180512D01*
X137865195Y-102192380D01*
X137873013Y-102235712D01*
X137865196Y-102279044D01*
X137856402Y-102302622D01*
X137850000Y-102362176D01*
X137850000Y-102885000D01*
X138951000Y-102885000D01*
X139013000Y-102901613D01*
X139058387Y-102947000D01*
X139075000Y-103009000D01*
X139075000Y-103261000D01*
X139058387Y-103323000D01*
X139013000Y-103368387D01*
X138951000Y-103385000D01*
X137850000Y-103385000D01*
X137850000Y-103907824D01*
X137856402Y-103967375D01*
X137906647Y-104102088D01*
X137928432Y-104131189D01*
X137952671Y-104194447D01*
X137940049Y-104261004D01*
X137894332Y-104310995D01*
X137829165Y-104329500D01*
X137441519Y-104329500D01*
X137394066Y-104320061D01*
X137353840Y-104293183D01*
X137235185Y-104174528D01*
X137235184Y-104174527D01*
X137158425Y-104128125D01*
X137089606Y-104086522D01*
X136927196Y-104035914D01*
X136927193Y-104035913D01*
X136856617Y-104029500D01*
X136856616Y-104029500D01*
X136343384Y-104029500D01*
X136343383Y-104029500D01*
X136272806Y-104035913D01*
X136191598Y-104061218D01*
X136110394Y-104086522D01*
X136110392Y-104086522D01*
X136110392Y-104086523D01*
X135964813Y-104174528D01*
X135862681Y-104276661D01*
X135807094Y-104308755D01*
X135742906Y-104308755D01*
X135687319Y-104276661D01*
X135585186Y-104174528D01*
X135493232Y-104118940D01*
X135446651Y-104068631D01*
X135433922Y-104001261D01*
X135458938Y-103937426D01*
X135514046Y-103896643D01*
X135642331Y-103848796D01*
X135757546Y-103762546D01*
X135843796Y-103647331D01*
X135894091Y-103512483D01*
X135900500Y-103452873D01*
X135900499Y-100557128D01*
X135894091Y-100497517D01*
X135843796Y-100362669D01*
X135813934Y-100322779D01*
X135792798Y-100278115D01*
X135790783Y-100228739D01*
X135808210Y-100182498D01*
X135814606Y-100172319D01*
X135825789Y-100154522D01*
X135885368Y-99984255D01*
X135905565Y-99805000D01*
X135885368Y-99625745D01*
X135825789Y-99455478D01*
X135794505Y-99405691D01*
X135775500Y-99339720D01*
X135775500Y-96104151D01*
X135775726Y-96096665D01*
X135775823Y-96095059D01*
X135779219Y-96038915D01*
X135768785Y-95981982D01*
X135767663Y-95974603D01*
X135760688Y-95917155D01*
X135760687Y-95917153D01*
X135760687Y-95917151D01*
X135757364Y-95908388D01*
X135751337Y-95886768D01*
X135749650Y-95877561D01*
X135725903Y-95824798D01*
X135723039Y-95817883D01*
X135702518Y-95763774D01*
X135697193Y-95756059D01*
X135686174Y-95736523D01*
X135682326Y-95727972D01*
X135677647Y-95722000D01*
X135646633Y-95682413D01*
X135642194Y-95676380D01*
X135609331Y-95628769D01*
X135566035Y-95590413D01*
X135560581Y-95585279D01*
X133617483Y-93642181D01*
X131661818Y-91686517D01*
X131634939Y-91646290D01*
X131625500Y-91598837D01*
X131625500Y-91373383D01*
X131619086Y-91302806D01*
X131619086Y-91302804D01*
X131568478Y-91140394D01*
X131480472Y-90994815D01*
X131480471Y-90994813D01*
X131360186Y-90874528D01*
X131255974Y-90811530D01*
X131214606Y-90786522D01*
X131064189Y-90739651D01*
X131052193Y-90735913D01*
X130981617Y-90729500D01*
X130981616Y-90729500D01*
X130468384Y-90729500D01*
X130468383Y-90729500D01*
X130397806Y-90735913D01*
X130338521Y-90754387D01*
X130235394Y-90786522D01*
X130235392Y-90786522D01*
X130235392Y-90786523D01*
X130089815Y-90874527D01*
X129987680Y-90976662D01*
X129932092Y-91008755D01*
X129867905Y-91008755D01*
X129812319Y-90976662D01*
X129710185Y-90874528D01*
X129710184Y-90874527D01*
X129605974Y-90811530D01*
X129564606Y-90786522D01*
X129414189Y-90739651D01*
X129402193Y-90735913D01*
X129331617Y-90729500D01*
X129331616Y-90729500D01*
X128818384Y-90729500D01*
X128818383Y-90729500D01*
X128747806Y-90735913D01*
X128688521Y-90754387D01*
X128585394Y-90786522D01*
X128585392Y-90786522D01*
X128585392Y-90786523D01*
X128439811Y-90874529D01*
X128430356Y-90883985D01*
X128374769Y-90916077D01*
X128310582Y-90916077D01*
X128254996Y-90883983D01*
X128253044Y-90882031D01*
X128108699Y-90792997D01*
X127947707Y-90739650D01*
X127853239Y-90730000D01*
X127848344Y-90729500D01*
X127301655Y-90729500D01*
X127202292Y-90739650D01*
X127041300Y-90792997D01*
X126896954Y-90882031D01*
X126887325Y-90891661D01*
X126831738Y-90923753D01*
X126767551Y-90923753D01*
X126711965Y-90891659D01*
X126702732Y-90882426D01*
X126558486Y-90793453D01*
X126397606Y-90740143D01*
X126298315Y-90730000D01*
X126275000Y-90730000D01*
X126275000Y-91831000D01*
X126258387Y-91893000D01*
X126213000Y-91938387D01*
X126151000Y-91955000D01*
X125075001Y-91955000D01*
X125075001Y-92003315D01*
X125085143Y-92102605D01*
X125138453Y-92263486D01*
X125227426Y-92407732D01*
X125356656Y-92536962D01*
X125387952Y-92589708D01*
X125390141Y-92651001D01*
X125362688Y-92705846D01*
X125312310Y-92740824D01*
X125284689Y-92751126D01*
X125257668Y-92761204D01*
X125142454Y-92847454D01*
X125056204Y-92962668D01*
X125005909Y-93097516D01*
X124999500Y-93157130D01*
X124999500Y-96052869D01*
X125004610Y-96100401D01*
X125005909Y-96112483D01*
X125056204Y-96247331D01*
X125142454Y-96362546D01*
X125257669Y-96448796D01*
X125392517Y-96499091D01*
X125452127Y-96505500D01*
X127747872Y-96505499D01*
X127807483Y-96499091D01*
X127942331Y-96448796D01*
X128057546Y-96362546D01*
X128143796Y-96247331D01*
X128194091Y-96112483D01*
X128200500Y-96052873D01*
X128200499Y-93912716D01*
X128211425Y-93861823D01*
X128224648Y-93832443D01*
X128224647Y-93832443D01*
X128224650Y-93832439D01*
X128226338Y-93823222D01*
X128232364Y-93801608D01*
X128235688Y-93792845D01*
X128242663Y-93735396D01*
X128243790Y-93727993D01*
X128246525Y-93713068D01*
X128254219Y-93671085D01*
X128250726Y-93613335D01*
X128250500Y-93605849D01*
X128250500Y-92640885D01*
X128267426Y-92578345D01*
X128313584Y-92532879D01*
X128376373Y-92516899D01*
X128438650Y-92534768D01*
X128467776Y-92552375D01*
X128585394Y-92623478D01*
X128747804Y-92674086D01*
X128794857Y-92678362D01*
X128818383Y-92680500D01*
X128818384Y-92680500D01*
X129331616Y-92680500D01*
X129331617Y-92680500D01*
X129349260Y-92678896D01*
X129402196Y-92674086D01*
X129564606Y-92623478D01*
X129710185Y-92535472D01*
X129759482Y-92486175D01*
X129812319Y-92433339D01*
X129867906Y-92401245D01*
X129932094Y-92401245D01*
X129987681Y-92433339D01*
X130089813Y-92535471D01*
X130117776Y-92552375D01*
X130235394Y-92623478D01*
X130397804Y-92674086D01*
X130444857Y-92678362D01*
X130468383Y-92680500D01*
X130468384Y-92680500D01*
X130693837Y-92680500D01*
X130741290Y-92689939D01*
X130781518Y-92716819D01*
X134388181Y-96323483D01*
X134415061Y-96363711D01*
X134424500Y-96411164D01*
X134424500Y-99339720D01*
X134405494Y-99405691D01*
X134374211Y-99455478D01*
X134332203Y-99575530D01*
X134314631Y-99625748D01*
X134294434Y-99805000D01*
X134312644Y-99966616D01*
X134301144Y-100034302D01*
X134255396Y-100085494D01*
X134189424Y-100104500D01*
X132552130Y-100104500D01*
X132492515Y-100110909D01*
X132357669Y-100161204D01*
X132242454Y-100247454D01*
X132156204Y-100362668D01*
X132105909Y-100497516D01*
X132099500Y-100557130D01*
X132099500Y-103452869D01*
X132105286Y-103506685D01*
X132105909Y-103512483D01*
X132156204Y-103647331D01*
X132242454Y-103762546D01*
X132333379Y-103830613D01*
X132374927Y-103885686D01*
X132380612Y-103954439D01*
X132348677Y-104015590D01*
X132289005Y-104050211D01*
X132220068Y-104047586D01*
X132197607Y-104040143D01*
X132098315Y-104030000D01*
X132075000Y-104030000D01*
X132075000Y-105131000D01*
X132058387Y-105193000D01*
X132013000Y-105238387D01*
X131951000Y-105255000D01*
X130875001Y-105255000D01*
X130875001Y-105303315D01*
X130885143Y-105402605D01*
X130938452Y-105563483D01*
X131016738Y-105690403D01*
X131035169Y-105752795D01*
X131019476Y-105815932D01*
X130973978Y-105862433D01*
X130911199Y-105879500D01*
X130431887Y-105879500D01*
X130413917Y-105878191D01*
X130401287Y-105876341D01*
X130391244Y-105874870D01*
X130391243Y-105874870D01*
X130343716Y-105879028D01*
X130332909Y-105879500D01*
X130327744Y-105879500D01*
X130298041Y-105882971D01*
X130294457Y-105883337D01*
X130220758Y-105889785D01*
X130203000Y-105893721D01*
X130133478Y-105919025D01*
X130130074Y-105920208D01*
X130059845Y-105943480D01*
X130043466Y-105951410D01*
X129981665Y-105992055D01*
X129978629Y-105993988D01*
X129915645Y-106032839D01*
X129901537Y-106044332D01*
X129850746Y-106098166D01*
X129848235Y-106100751D01*
X128861813Y-107087174D01*
X128816543Y-107116015D01*
X128763325Y-107123021D01*
X128517800Y-107101540D01*
X128282392Y-107122136D01*
X128054136Y-107183297D01*
X127839970Y-107283165D01*
X127646398Y-107418705D01*
X127479308Y-107585795D01*
X127479307Y-107585797D01*
X127479305Y-107585799D01*
X127461523Y-107611195D01*
X127349374Y-107771360D01*
X127305055Y-107810226D01*
X127247799Y-107824236D01*
X127190542Y-107810225D01*
X127146226Y-107771361D01*
X127016295Y-107585799D01*
X126849201Y-107418705D01*
X126655630Y-107283165D01*
X126441463Y-107183297D01*
X126380302Y-107166909D01*
X126213207Y-107122136D01*
X125977800Y-107101540D01*
X125742392Y-107122136D01*
X125514136Y-107183297D01*
X125299970Y-107283165D01*
X125097512Y-107424928D01*
X125096491Y-107423470D01*
X125058697Y-107446313D01*
X124999457Y-107449891D01*
X124945339Y-107425531D01*
X124908740Y-107378812D01*
X124898043Y-107320437D01*
X124905026Y-107204999D01*
X124884938Y-106872917D01*
X124824968Y-106545673D01*
X124725994Y-106228053D01*
X124589456Y-105924681D01*
X124417338Y-105639960D01*
X124264138Y-105444416D01*
X124264136Y-105444416D01*
X122503553Y-107205000D01*
X122503553Y-107205001D01*
X124264136Y-108965582D01*
X124264137Y-108965582D01*
X124417341Y-108770032D01*
X124437322Y-108736980D01*
X124477588Y-108696059D01*
X124531968Y-108677660D01*
X124588808Y-108685725D01*
X124635923Y-108718527D01*
X124663215Y-108769034D01*
X124703897Y-108920864D01*
X124723872Y-108963700D01*
X124803765Y-109135030D01*
X124856175Y-109209879D01*
X124878333Y-109272890D01*
X124864588Y-109338257D01*
X124818927Y-109387009D01*
X124754599Y-109405000D01*
X124037116Y-109405000D01*
X123972966Y-109387117D01*
X123927319Y-109338625D01*
X123926566Y-109335120D01*
X122150000Y-107558553D01*
X120036319Y-105444872D01*
X120009439Y-105404644D01*
X120000000Y-105357191D01*
X120000000Y-105090862D01*
X120389416Y-105090862D01*
X122150000Y-106851446D01*
X122150001Y-106851446D01*
X123910582Y-105090862D01*
X123910582Y-105090861D01*
X123715033Y-104937657D01*
X123430318Y-104765543D01*
X123406893Y-104755000D01*
X130875000Y-104755000D01*
X131575000Y-104755000D01*
X131575000Y-104030001D01*
X131551685Y-104030001D01*
X131452394Y-104040143D01*
X131291513Y-104093453D01*
X131147267Y-104182426D01*
X131027426Y-104302267D01*
X130938453Y-104446513D01*
X130885143Y-104607393D01*
X130875000Y-104706685D01*
X130875000Y-104755000D01*
X123406893Y-104755000D01*
X123126946Y-104629005D01*
X122809326Y-104530031D01*
X122482082Y-104470061D01*
X122150000Y-104449973D01*
X121817917Y-104470061D01*
X121490673Y-104530031D01*
X121173053Y-104629005D01*
X120869681Y-104765543D01*
X120584966Y-104937657D01*
X120389416Y-105090861D01*
X120389416Y-105090862D01*
X120000000Y-105090862D01*
X120000000Y-102255000D01*
X123000000Y-102255000D01*
X123000000Y-103452824D01*
X123006402Y-103512375D01*
X123056647Y-103647089D01*
X123142811Y-103762188D01*
X123257910Y-103848352D01*
X123392624Y-103898597D01*
X123452176Y-103905000D01*
X124350000Y-103905000D01*
X124350000Y-102255000D01*
X124850000Y-102255000D01*
X124850000Y-103905000D01*
X125747824Y-103905000D01*
X125807375Y-103898597D01*
X125942089Y-103848352D01*
X126057188Y-103762188D01*
X126143352Y-103647089D01*
X126193597Y-103512375D01*
X126200000Y-103452824D01*
X126200000Y-102255000D01*
X124850000Y-102255000D01*
X124350000Y-102255000D01*
X123000000Y-102255000D01*
X120000000Y-102255000D01*
X120000000Y-101755000D01*
X123000000Y-101755000D01*
X124350000Y-101755000D01*
X124350000Y-100105000D01*
X124850000Y-100105000D01*
X124850000Y-101755000D01*
X126200000Y-101755000D01*
X126200000Y-100557176D01*
X126193597Y-100497624D01*
X126143352Y-100362910D01*
X126057188Y-100247811D01*
X125942089Y-100161647D01*
X125807375Y-100111402D01*
X125747824Y-100105000D01*
X124850000Y-100105000D01*
X124350000Y-100105000D01*
X123452176Y-100105000D01*
X123392624Y-100111402D01*
X123257910Y-100161647D01*
X123142811Y-100247811D01*
X123056647Y-100362910D01*
X123006402Y-100497624D01*
X123000000Y-100557176D01*
X123000000Y-101755000D01*
X120000000Y-101755000D01*
X120000000Y-98252398D01*
X124595746Y-98252398D01*
X124600205Y-98346007D01*
X124605746Y-98462330D01*
X124655297Y-98666580D01*
X124742602Y-98857752D01*
X124829299Y-98979500D01*
X124864514Y-99028952D01*
X125016622Y-99173986D01*
X125088964Y-99220478D01*
X125193425Y-99287612D01*
X125232580Y-99303287D01*
X125388543Y-99365725D01*
X125517228Y-99390527D01*
X125594914Y-99405500D01*
X125594915Y-99405500D01*
X125752420Y-99405500D01*
X125752425Y-99405500D01*
X125909218Y-99390528D01*
X126110875Y-99331316D01*
X126297682Y-99235011D01*
X126462886Y-99105092D01*
X126600519Y-98946256D01*
X126705604Y-98764244D01*
X126774344Y-98565633D01*
X126804254Y-98357602D01*
X126799243Y-98252398D01*
X131595746Y-98252398D01*
X131600205Y-98346007D01*
X131605746Y-98462330D01*
X131655297Y-98666580D01*
X131742602Y-98857752D01*
X131829299Y-98979500D01*
X131864514Y-99028952D01*
X132016622Y-99173986D01*
X132088964Y-99220478D01*
X132193425Y-99287612D01*
X132232580Y-99303287D01*
X132388543Y-99365725D01*
X132517228Y-99390527D01*
X132594914Y-99405500D01*
X132594915Y-99405500D01*
X132752420Y-99405500D01*
X132752425Y-99405500D01*
X132909218Y-99390528D01*
X133110875Y-99331316D01*
X133297682Y-99235011D01*
X133462886Y-99105092D01*
X133600519Y-98946256D01*
X133705604Y-98764244D01*
X133774344Y-98565633D01*
X133804254Y-98357602D01*
X133794254Y-98147670D01*
X133744704Y-97943424D01*
X133741869Y-97937216D01*
X133657397Y-97752247D01*
X133571797Y-97632040D01*
X133535486Y-97581048D01*
X133383378Y-97436014D01*
X133346164Y-97412098D01*
X133206574Y-97322387D01*
X133016435Y-97246268D01*
X133011457Y-97244275D01*
X133011456Y-97244274D01*
X133011454Y-97244274D01*
X132805086Y-97204500D01*
X132805085Y-97204500D01*
X132647575Y-97204500D01*
X132549579Y-97213857D01*
X132490779Y-97219472D01*
X132289126Y-97278683D01*
X132102315Y-97374990D01*
X131937115Y-97504906D01*
X131799479Y-97663745D01*
X131694396Y-97845754D01*
X131625655Y-98044366D01*
X131598577Y-98232708D01*
X131595746Y-98252398D01*
X126799243Y-98252398D01*
X126794254Y-98147670D01*
X126744704Y-97943424D01*
X126741869Y-97937216D01*
X126657397Y-97752247D01*
X126571797Y-97632040D01*
X126535486Y-97581048D01*
X126383378Y-97436014D01*
X126346164Y-97412098D01*
X126206574Y-97322387D01*
X126016435Y-97246268D01*
X126011457Y-97244275D01*
X126011456Y-97244274D01*
X126011454Y-97244274D01*
X125805086Y-97204500D01*
X125805085Y-97204500D01*
X125647575Y-97204500D01*
X125549579Y-97213857D01*
X125490779Y-97219472D01*
X125289126Y-97278683D01*
X125102315Y-97374990D01*
X124937115Y-97504906D01*
X124799479Y-97663745D01*
X124694396Y-97845754D01*
X124625655Y-98044366D01*
X124598577Y-98232708D01*
X124595746Y-98252398D01*
X120000000Y-98252398D01*
X120000000Y-91519138D01*
X120389416Y-91519138D01*
X120584960Y-91672338D01*
X120869681Y-91844456D01*
X121173053Y-91980994D01*
X121490673Y-92079968D01*
X121817917Y-92139938D01*
X122150000Y-92160026D01*
X122482082Y-92139938D01*
X122809326Y-92079968D01*
X123126946Y-91980994D01*
X123430318Y-91844456D01*
X123715033Y-91672341D01*
X123910582Y-91519137D01*
X123910582Y-91519136D01*
X123846446Y-91455000D01*
X125075000Y-91455000D01*
X125775000Y-91455000D01*
X125775000Y-90730001D01*
X125751685Y-90730001D01*
X125652394Y-90740143D01*
X125491513Y-90793453D01*
X125347267Y-90882426D01*
X125227426Y-91002267D01*
X125138453Y-91146513D01*
X125085143Y-91307393D01*
X125075000Y-91406685D01*
X125075000Y-91455000D01*
X123846446Y-91455000D01*
X122150001Y-89758553D01*
X122150000Y-89758553D01*
X120389416Y-91519136D01*
X120389416Y-91519138D01*
X120000000Y-91519138D01*
X120000000Y-91252807D01*
X120009439Y-91205354D01*
X120036319Y-91165126D01*
X121796446Y-89405001D01*
X122503553Y-89405001D01*
X124264136Y-91165582D01*
X124264137Y-91165582D01*
X124417341Y-90970033D01*
X124589456Y-90685318D01*
X124725994Y-90381946D01*
X124824968Y-90064326D01*
X124884938Y-89737082D01*
X124905026Y-89404999D01*
X124884938Y-89072917D01*
X124824968Y-88745673D01*
X124725994Y-88428053D01*
X124589456Y-88124681D01*
X124417338Y-87839960D01*
X124264138Y-87644416D01*
X124264136Y-87644416D01*
X122503553Y-89405000D01*
X122503553Y-89405001D01*
X121796446Y-89405001D01*
X122150000Y-89051447D01*
X123926567Y-87274877D01*
X123927319Y-87271376D01*
X123972965Y-87222884D01*
X124037116Y-87205000D01*
X134903676Y-87205000D01*
X134968004Y-87222991D01*
G37*
G04 #@! TD.AperFunction*
G04 #@! TA.AperFunction,Conductor*
G36*
X158537001Y-94239939D02*
G01*
X158577229Y-94266819D01*
X159238181Y-94927772D01*
X159265061Y-94968000D01*
X159274500Y-95015453D01*
X159274500Y-99722256D01*
X159272235Y-99742762D01*
X159274439Y-99812863D01*
X159274500Y-99816758D01*
X159274500Y-99844349D01*
X159275003Y-99848334D01*
X159275918Y-99859967D01*
X159277290Y-99903626D01*
X159282879Y-99922860D01*
X159286825Y-99941916D01*
X159289335Y-99961792D01*
X159305414Y-100002404D01*
X159309197Y-100013451D01*
X159321382Y-100055391D01*
X159331580Y-100072635D01*
X159340136Y-100090100D01*
X159347514Y-100108732D01*
X159348148Y-100109604D01*
X159373180Y-100144059D01*
X159379593Y-100153822D01*
X159401826Y-100191416D01*
X159401829Y-100191419D01*
X159401830Y-100191420D01*
X159415995Y-100205585D01*
X159428627Y-100220375D01*
X159440406Y-100236587D01*
X159474058Y-100264426D01*
X159482699Y-100272289D01*
X159927728Y-100717318D01*
X159959822Y-100772905D01*
X159959822Y-100837093D01*
X159927728Y-100892680D01*
X159516208Y-101304199D01*
X159500110Y-101317096D01*
X159452096Y-101368225D01*
X159449391Y-101371017D01*
X159429874Y-101390534D01*
X159427415Y-101393705D01*
X159419842Y-101402572D01*
X159389935Y-101434420D01*
X159380285Y-101451974D01*
X159369609Y-101468228D01*
X159357326Y-101484063D01*
X159339975Y-101524158D01*
X159334838Y-101534644D01*
X159313802Y-101572907D01*
X159308821Y-101592309D01*
X159302520Y-101610711D01*
X159294561Y-101629102D01*
X159287728Y-101672242D01*
X159285360Y-101683674D01*
X159274500Y-101725978D01*
X159274500Y-101746016D01*
X159272973Y-101765415D01*
X159269840Y-101785194D01*
X159273950Y-101828675D01*
X159274500Y-101840344D01*
X159274500Y-105094547D01*
X159265061Y-105142000D01*
X159238181Y-105182228D01*
X158977228Y-105443181D01*
X158937000Y-105470061D01*
X158889547Y-105479500D01*
X153812741Y-105479500D01*
X153792237Y-105477236D01*
X153722145Y-105479439D01*
X153718251Y-105479500D01*
X153690648Y-105479500D01*
X153686653Y-105480004D01*
X153675031Y-105480918D01*
X153658596Y-105481435D01*
X153597967Y-105467758D01*
X153551591Y-105426381D01*
X153531117Y-105367698D01*
X153541690Y-105306452D01*
X153568219Y-105273482D01*
X153566939Y-105272408D01*
X153576256Y-105261303D01*
X153576258Y-105261302D01*
X153606943Y-105224731D01*
X153614231Y-105216780D01*
X153617886Y-105213126D01*
X153636451Y-105189644D01*
X153638660Y-105186932D01*
X153685273Y-105131383D01*
X153685274Y-105131379D01*
X153686272Y-105130191D01*
X153696030Y-105114876D01*
X153727311Y-105047792D01*
X153728867Y-105044577D01*
X153761388Y-104979825D01*
X153761388Y-104979820D01*
X153762084Y-104978437D01*
X153768049Y-104961276D01*
X153768361Y-104959760D01*
X153768364Y-104959756D01*
X153783027Y-104888735D01*
X153783782Y-104885331D01*
X153800500Y-104814799D01*
X153800500Y-104814793D01*
X153800857Y-104813287D01*
X153802704Y-104795213D01*
X153802659Y-104793666D01*
X153802660Y-104793662D01*
X153800552Y-104721218D01*
X153800500Y-104717612D01*
X153800500Y-104656572D01*
X153819005Y-104591405D01*
X153868996Y-104545688D01*
X153935552Y-104533066D01*
X153998811Y-104557305D01*
X154107669Y-104638796D01*
X154242517Y-104689091D01*
X154302127Y-104695500D01*
X155797872Y-104695499D01*
X155857483Y-104689091D01*
X155992331Y-104638796D01*
X156107546Y-104552546D01*
X156193796Y-104437331D01*
X156244091Y-104302483D01*
X156250500Y-104242873D01*
X156250499Y-103030450D01*
X156259938Y-102982998D01*
X156286815Y-102942773D01*
X157183786Y-102045802D01*
X157199887Y-102032904D01*
X157201874Y-102030787D01*
X157201877Y-102030786D01*
X157247932Y-101981741D01*
X157250613Y-101978976D01*
X157256305Y-101973284D01*
X157270120Y-101959470D01*
X157272581Y-101956295D01*
X157280152Y-101947431D01*
X157310062Y-101915582D01*
X157319713Y-101898026D01*
X157330393Y-101881767D01*
X157342674Y-101865936D01*
X157360018Y-101825851D01*
X157365160Y-101815356D01*
X157386197Y-101777092D01*
X157391178Y-101757688D01*
X157397480Y-101739283D01*
X157405438Y-101720895D01*
X157412270Y-101677748D01*
X157414639Y-101666316D01*
X157425500Y-101624020D01*
X157425500Y-101603984D01*
X157427027Y-101584585D01*
X157428876Y-101572908D01*
X157430160Y-101564804D01*
X157426050Y-101521325D01*
X157425500Y-101509656D01*
X157425500Y-96087744D01*
X157427764Y-96067237D01*
X157427446Y-96057130D01*
X157425561Y-95997127D01*
X157425500Y-95993232D01*
X157425500Y-95965653D01*
X157424997Y-95961672D01*
X157424080Y-95950019D01*
X157423451Y-95929998D01*
X157422709Y-95906373D01*
X157417120Y-95887140D01*
X157413174Y-95868082D01*
X157410664Y-95848206D01*
X157394588Y-95807604D01*
X157390804Y-95796553D01*
X157380959Y-95762669D01*
X157378618Y-95754610D01*
X157368414Y-95737355D01*
X157359861Y-95719895D01*
X157352486Y-95701269D01*
X157352486Y-95701268D01*
X157326808Y-95665925D01*
X157320401Y-95656171D01*
X157304197Y-95628771D01*
X157298170Y-95618580D01*
X157284006Y-95604416D01*
X157271367Y-95589617D01*
X157259595Y-95573413D01*
X157225941Y-95545573D01*
X157217299Y-95537709D01*
X156800806Y-95121216D01*
X156787905Y-95105113D01*
X156736775Y-95057098D01*
X156733978Y-95054387D01*
X156714470Y-95034879D01*
X156711290Y-95032412D01*
X156702424Y-95024839D01*
X156670582Y-94994938D01*
X156653024Y-94985285D01*
X156636764Y-94974604D01*
X156620936Y-94962327D01*
X156580851Y-94944980D01*
X156570361Y-94939841D01*
X156532091Y-94918802D01*
X156512691Y-94913821D01*
X156494284Y-94907519D01*
X156475897Y-94899562D01*
X156432758Y-94892729D01*
X156421324Y-94890361D01*
X156379019Y-94879500D01*
X156358984Y-94879500D01*
X156339586Y-94877973D01*
X156332162Y-94876797D01*
X156319805Y-94874840D01*
X156319804Y-94874840D01*
X156293188Y-94877356D01*
X156276325Y-94878950D01*
X156264656Y-94879500D01*
X153674835Y-94879500D01*
X153635676Y-94873154D01*
X153600525Y-94854767D01*
X153542333Y-94811205D01*
X153542331Y-94811204D01*
X153407483Y-94760909D01*
X153347873Y-94754500D01*
X153347869Y-94754500D01*
X153022313Y-94754500D01*
X152964099Y-94739986D01*
X152919512Y-94699840D01*
X152898992Y-94643462D01*
X152885674Y-94516744D01*
X152885672Y-94516740D01*
X152884311Y-94503783D01*
X152884912Y-94503719D01*
X152881479Y-94460103D01*
X152903634Y-94406615D01*
X152947658Y-94369014D01*
X153003953Y-94355499D01*
X153347870Y-94355499D01*
X153347872Y-94355499D01*
X153407483Y-94349091D01*
X153542331Y-94298796D01*
X153555580Y-94288877D01*
X153600525Y-94255233D01*
X153635676Y-94236846D01*
X153674835Y-94230500D01*
X158489548Y-94230500D01*
X158537001Y-94239939D01*
G37*
G04 #@! TD.AperFunction*
G04 #@! TA.AperFunction,Conductor*
G36*
X141013000Y-102476613D02*
G01*
X141058387Y-102522000D01*
X141075000Y-102584000D01*
X141075000Y-103659999D01*
X141123315Y-103659999D01*
X141222605Y-103649856D01*
X141383484Y-103596546D01*
X141492602Y-103529241D01*
X141558150Y-103510780D01*
X141623562Y-103529716D01*
X141669110Y-103580339D01*
X141681058Y-103647380D01*
X141675000Y-103706683D01*
X141675000Y-103755000D01*
X142751000Y-103755000D01*
X142813000Y-103771613D01*
X142858387Y-103817000D01*
X142875000Y-103879000D01*
X142875000Y-104131000D01*
X142858387Y-104193000D01*
X142813000Y-104238387D01*
X142751000Y-104255000D01*
X141675001Y-104255000D01*
X141638682Y-104291319D01*
X141636625Y-104289262D01*
X141613001Y-104312887D01*
X141551001Y-104329500D01*
X139820835Y-104329500D01*
X139755668Y-104310995D01*
X139709951Y-104261004D01*
X139697329Y-104194447D01*
X139721568Y-104131189D01*
X139743352Y-104102088D01*
X139793597Y-103967375D01*
X139800000Y-103907824D01*
X139800000Y-103484668D01*
X139813515Y-103428373D01*
X139851115Y-103384350D01*
X139904602Y-103362195D01*
X139962318Y-103366737D01*
X140011681Y-103396987D01*
X140122267Y-103507573D01*
X140266513Y-103596546D01*
X140427393Y-103649856D01*
X140526685Y-103660000D01*
X140575000Y-103660000D01*
X140575000Y-102584000D01*
X140591613Y-102522000D01*
X140637000Y-102476613D01*
X140699000Y-102460000D01*
X140951000Y-102460000D01*
X141013000Y-102476613D01*
G37*
G04 #@! TD.AperFunction*
G04 #@! TA.AperFunction,Conductor*
G36*
X143553525Y-102887452D02*
G01*
X143610120Y-102909172D01*
X143649656Y-102955126D01*
X143662683Y-103014330D01*
X143646088Y-103072634D01*
X143603838Y-103116105D01*
X143496953Y-103182033D01*
X143487325Y-103191661D01*
X143431738Y-103223753D01*
X143367551Y-103223753D01*
X143311965Y-103191659D01*
X143302732Y-103182426D01*
X143201586Y-103120038D01*
X143157882Y-103073984D01*
X143142702Y-103012336D01*
X143160025Y-102951255D01*
X143205309Y-102906754D01*
X143266683Y-102890500D01*
X143375288Y-102890500D01*
X143403231Y-102887144D01*
X143459014Y-102880445D01*
X143459015Y-102880444D01*
X143462307Y-102880049D01*
X143491878Y-102880049D01*
X143553525Y-102887452D01*
G37*
G04 #@! TD.AperFunction*
G04 #@! TA.AperFunction,Conductor*
G36*
X161437001Y-93439939D02*
G01*
X161477229Y-93466819D01*
X162038181Y-94027771D01*
X162065061Y-94067999D01*
X162074500Y-94115452D01*
X162074500Y-96972256D01*
X162072235Y-96992762D01*
X162074439Y-97062873D01*
X162074500Y-97066768D01*
X162074500Y-97094349D01*
X162075003Y-97098334D01*
X162075918Y-97109967D01*
X162077290Y-97153626D01*
X162082879Y-97172860D01*
X162086825Y-97191916D01*
X162089335Y-97211792D01*
X162105414Y-97252404D01*
X162109197Y-97263451D01*
X162121382Y-97305391D01*
X162131580Y-97322635D01*
X162140136Y-97340100D01*
X162147514Y-97358732D01*
X162147515Y-97358733D01*
X162173180Y-97394059D01*
X162179593Y-97403822D01*
X162201826Y-97441416D01*
X162201829Y-97441419D01*
X162201830Y-97441420D01*
X162215995Y-97455585D01*
X162228627Y-97470375D01*
X162240406Y-97486587D01*
X162274058Y-97514426D01*
X162282699Y-97522289D01*
X162522213Y-97761804D01*
X162550868Y-97806567D01*
X162558150Y-97859214D01*
X162542721Y-97910074D01*
X162507417Y-97949803D01*
X162394129Y-98032110D01*
X162267466Y-98172783D01*
X162172820Y-98336715D01*
X162114326Y-98516742D01*
X162098578Y-98666576D01*
X162094540Y-98705000D01*
X162108383Y-98836715D01*
X162108996Y-98842539D01*
X162097125Y-98909858D01*
X162051385Y-98960658D01*
X161985675Y-98979500D01*
X161824649Y-98979500D01*
X161760900Y-98961858D01*
X161715291Y-98913953D01*
X161696014Y-98877889D01*
X161694136Y-98874375D01*
X161575357Y-98729643D01*
X161430625Y-98610864D01*
X161430624Y-98610863D01*
X161265500Y-98522603D01*
X161086332Y-98468253D01*
X160900000Y-98449901D01*
X160713667Y-98468253D01*
X160685496Y-98476799D01*
X160628301Y-98480314D01*
X160575634Y-98457737D01*
X160538740Y-98413891D01*
X160525500Y-98358139D01*
X160525500Y-94787744D01*
X160527764Y-94767237D01*
X160525561Y-94697127D01*
X160525500Y-94693232D01*
X160525500Y-94665653D01*
X160525154Y-94662918D01*
X160524996Y-94661665D01*
X160524080Y-94650019D01*
X160523829Y-94642024D01*
X160522709Y-94606373D01*
X160517120Y-94587140D01*
X160513174Y-94568082D01*
X160510664Y-94548206D01*
X160494588Y-94507604D01*
X160490804Y-94496553D01*
X160484512Y-94474898D01*
X160478618Y-94454610D01*
X160468414Y-94437355D01*
X160459861Y-94419895D01*
X160452486Y-94401269D01*
X160452486Y-94401268D01*
X160426808Y-94365925D01*
X160420401Y-94356171D01*
X160416213Y-94349090D01*
X160398170Y-94318580D01*
X160384005Y-94304415D01*
X160371367Y-94289617D01*
X160359595Y-94273413D01*
X160325941Y-94245573D01*
X160317299Y-94237709D01*
X159721772Y-93642181D01*
X159691522Y-93592818D01*
X159686980Y-93535102D01*
X159709135Y-93481615D01*
X159753158Y-93444015D01*
X159809453Y-93430500D01*
X161389548Y-93430500D01*
X161437001Y-93439939D01*
G37*
G04 #@! TD.AperFunction*
G04 #@! TA.AperFunction,Conductor*
G36*
X145713000Y-92871613D02*
G01*
X145758387Y-92917000D01*
X145775000Y-92979000D01*
X145775000Y-93231000D01*
X145758387Y-93293000D01*
X145713000Y-93338387D01*
X145651000Y-93355000D01*
X143575000Y-93355000D01*
X143575000Y-94080000D01*
X143613435Y-94080000D01*
X143669730Y-94093515D01*
X143713753Y-94131115D01*
X143735908Y-94184602D01*
X143731366Y-94242318D01*
X143701116Y-94291681D01*
X143449115Y-94543681D01*
X143408887Y-94570561D01*
X143361434Y-94580000D01*
X143355000Y-94580000D01*
X143355000Y-94582592D01*
X143342056Y-94637751D01*
X143305927Y-94681395D01*
X143290318Y-94693232D01*
X143243634Y-94728634D01*
X143243633Y-94728635D01*
X143230055Y-94738932D01*
X143229311Y-94737952D01*
X143205153Y-94757949D01*
X143149996Y-94770890D01*
X143094839Y-94757945D01*
X143070689Y-94737952D01*
X143069947Y-94738932D01*
X142994075Y-94681397D01*
X142957944Y-94637753D01*
X142945000Y-94582593D01*
X142945000Y-94580000D01*
X142924749Y-94580000D01*
X142841880Y-94589951D01*
X142812312Y-94589950D01*
X142725291Y-94579500D01*
X142725286Y-94579500D01*
X142274714Y-94579500D01*
X142274500Y-94579500D01*
X142212500Y-94562887D01*
X142167113Y-94517500D01*
X142150500Y-94455500D01*
X142150500Y-94204499D01*
X142167113Y-94142499D01*
X142212500Y-94097112D01*
X142274500Y-94080499D01*
X142297870Y-94080499D01*
X142297872Y-94080499D01*
X142357483Y-94074091D01*
X142382381Y-94064804D01*
X142425714Y-94056986D01*
X142469048Y-94064805D01*
X142492621Y-94073597D01*
X142552176Y-94080000D01*
X143075000Y-94080000D01*
X143075000Y-92979000D01*
X143091613Y-92917000D01*
X143137000Y-92871613D01*
X143199000Y-92855000D01*
X145651000Y-92855000D01*
X145713000Y-92871613D01*
G37*
G04 #@! TD.AperFunction*
M02*
