G04 #@! TF.GenerationSoftware,KiCad,Pcbnew,7.0.1*
G04 #@! TF.CreationDate,2023-08-17T16:00:53-05:00*
G04 #@! TF.ProjectId,MiniWAV,4d696e69-5741-4562-9e6b-696361645f70,A*
G04 #@! TF.SameCoordinates,Original*
G04 #@! TF.FileFunction,Copper,L2,Bot*
G04 #@! TF.FilePolarity,Positive*
%FSLAX46Y46*%
G04 Gerber Fmt 4.6, Leading zero omitted, Abs format (unit mm)*
G04 Created by KiCad (PCBNEW 7.0.1) date 2023-08-17 16:00:53*
%MOMM*%
%LPD*%
G01*
G04 APERTURE LIST*
G04 #@! TA.AperFunction,ComponentPad*
%ADD10O,1.700000X1.700000*%
G04 #@! TD*
G04 #@! TA.AperFunction,ComponentPad*
%ADD11C,4.500000*%
G04 #@! TD*
G04 #@! TA.AperFunction,ViaPad*
%ADD12C,0.900000*%
G04 #@! TD*
G04 #@! TA.AperFunction,ViaPad*
%ADD13C,0.600000*%
G04 #@! TD*
G04 #@! TA.AperFunction,ViaPad*
%ADD14C,0.800000*%
G04 #@! TD*
G04 #@! TA.AperFunction,Conductor*
%ADD15C,0.450000*%
G04 #@! TD*
G04 #@! TA.AperFunction,Conductor*
%ADD16C,0.250000*%
G04 #@! TD*
G04 #@! TA.AperFunction,Conductor*
%ADD17C,0.350000*%
G04 #@! TD*
G04 APERTURE END LIST*
D10*
X125977800Y-108457200D03*
X128517800Y-108457200D03*
X131057800Y-108457200D03*
X133597800Y-108457200D03*
X136137800Y-108457200D03*
X138677800Y-108457200D03*
X141217800Y-108457200D03*
X143757800Y-108457200D03*
X146297800Y-108457200D03*
X148837800Y-108457200D03*
X151377800Y-108457200D03*
X153917800Y-108457200D03*
X156457800Y-108457200D03*
X158997800Y-108457200D03*
X161537800Y-108457200D03*
X164077800Y-108482600D03*
X164077800Y-88137200D03*
X161537800Y-88137200D03*
X158997800Y-88137200D03*
X156457800Y-88137200D03*
X153917800Y-88137200D03*
X151377800Y-88137200D03*
X148837800Y-88137200D03*
X146297800Y-88137200D03*
X143757800Y-88137200D03*
X141217800Y-88137200D03*
X138677800Y-88137200D03*
X136137800Y-88137200D03*
D11*
X122150000Y-107205000D03*
X122150000Y-89405000D03*
D12*
X160900000Y-99405000D03*
D13*
X138300000Y-106605000D03*
D12*
X153100000Y-100605000D03*
D13*
X139000000Y-99905000D03*
D14*
X165500000Y-92105000D03*
X161200000Y-97105000D03*
X155900000Y-94505000D03*
X137100000Y-94305000D03*
X168600000Y-102305000D03*
X137100000Y-101905000D03*
X149900000Y-102505000D03*
X156400000Y-105005000D03*
X163300000Y-106305000D03*
X149500000Y-92305000D03*
D13*
X140800000Y-104005000D03*
D14*
X163000000Y-98705000D03*
X162500000Y-101605000D03*
X161600000Y-103005000D03*
X154600000Y-101005000D03*
X163800000Y-104105000D03*
X157200000Y-90405000D03*
X156072905Y-100229500D03*
X152000000Y-94705000D03*
D13*
X138100000Y-105681000D03*
X135100000Y-99805000D03*
D14*
X147200000Y-97405000D03*
X146400000Y-98205000D03*
X145600000Y-99205000D03*
D15*
X139000000Y-105905000D02*
X139000000Y-99905000D01*
X154300000Y-99405000D02*
X153100000Y-100605000D01*
X138300000Y-106605000D02*
X139000000Y-105905000D01*
X160900000Y-99405000D02*
X154300000Y-99405000D01*
D16*
X163000000Y-98705000D02*
X163000000Y-101105000D01*
X163000000Y-101105000D02*
X162500000Y-101605000D01*
X159600000Y-101005000D02*
X161600000Y-103005000D01*
X154600000Y-101005000D02*
X159600000Y-101005000D01*
X157200000Y-90405000D02*
X163800000Y-97005000D01*
X159924500Y-100229500D02*
X163800000Y-104105000D01*
X163800000Y-97005000D02*
X163800000Y-104105000D01*
X156072905Y-100229500D02*
X159924500Y-100229500D01*
X152500000Y-89505000D02*
X157630000Y-89505000D01*
X157630000Y-89505000D02*
X158997800Y-88137200D01*
X152000000Y-90005000D02*
X152500000Y-89505000D01*
X152000000Y-94705000D02*
X152000000Y-90005000D01*
D17*
X138076000Y-105681000D02*
X135100000Y-102705000D01*
X135100000Y-102705000D02*
X135100000Y-99805000D01*
X138100000Y-105681000D02*
X138076000Y-105681000D01*
D16*
X138600000Y-107282200D02*
X138922800Y-107282200D01*
X145200000Y-97405000D02*
X147200000Y-97405000D01*
X144600000Y-102805000D02*
X144600000Y-98005000D01*
X145000000Y-97605000D02*
X145200000Y-97405000D01*
X137312800Y-107282200D02*
X138600000Y-107282200D01*
X144600000Y-98005000D02*
X145000000Y-97605000D01*
X139800000Y-106405000D02*
X141000000Y-106405000D01*
X138922800Y-107282200D02*
X139800000Y-106405000D01*
X136137800Y-108457200D02*
X137312800Y-107282200D01*
X141000000Y-106405000D02*
X144600000Y-102805000D01*
X141217800Y-108457200D02*
X142570000Y-107105000D01*
X146400000Y-103305000D02*
X146400000Y-98205000D01*
X142600000Y-107105000D02*
X146400000Y-103305000D01*
X142570000Y-107105000D02*
X142600000Y-107105000D01*
X138677800Y-108457200D02*
X140030000Y-107105000D01*
X141400000Y-107105000D02*
X145600000Y-102905000D01*
X140030000Y-107105000D02*
X141400000Y-107105000D01*
X145600000Y-102905000D02*
X145600000Y-99205000D01*
G04 #@! TA.AperFunction,Conductor*
G36*
X134968004Y-87222991D02*
G01*
X135013665Y-87271743D01*
X135027411Y-87337110D01*
X135005251Y-87400121D01*
X134975934Y-87441992D01*
X134963764Y-87459373D01*
X134863897Y-87673536D01*
X134802736Y-87901792D01*
X134782140Y-88137199D01*
X134802736Y-88372607D01*
X134826249Y-88460357D01*
X134863897Y-88600863D01*
X134963765Y-88815030D01*
X135099305Y-89008601D01*
X135266399Y-89175695D01*
X135459970Y-89311235D01*
X135674137Y-89411103D01*
X135902392Y-89472263D01*
X136137799Y-89492859D01*
X136137799Y-89492858D01*
X136137800Y-89492859D01*
X136373208Y-89472263D01*
X136601463Y-89411103D01*
X136815630Y-89311235D01*
X137009201Y-89175695D01*
X137176295Y-89008601D01*
X137306226Y-88823039D01*
X137350543Y-88784175D01*
X137407800Y-88770164D01*
X137465057Y-88784175D01*
X137509373Y-88823039D01*
X137639305Y-89008601D01*
X137806399Y-89175695D01*
X137999970Y-89311235D01*
X138214137Y-89411103D01*
X138442392Y-89472263D01*
X138677799Y-89492859D01*
X138677799Y-89492858D01*
X138677800Y-89492859D01*
X138913208Y-89472263D01*
X139141463Y-89411103D01*
X139355630Y-89311235D01*
X139549201Y-89175695D01*
X139716295Y-89008601D01*
X139846226Y-88823039D01*
X139890543Y-88784175D01*
X139947800Y-88770164D01*
X140005057Y-88784175D01*
X140049373Y-88823039D01*
X140179305Y-89008601D01*
X140346399Y-89175695D01*
X140539970Y-89311235D01*
X140754137Y-89411103D01*
X140982392Y-89472263D01*
X141217799Y-89492859D01*
X141217799Y-89492858D01*
X141217800Y-89492859D01*
X141453208Y-89472263D01*
X141681463Y-89411103D01*
X141895630Y-89311235D01*
X142089201Y-89175695D01*
X142256295Y-89008601D01*
X142386226Y-88823039D01*
X142430543Y-88784175D01*
X142487800Y-88770164D01*
X142545057Y-88784175D01*
X142589373Y-88823039D01*
X142719305Y-89008601D01*
X142886399Y-89175695D01*
X143079970Y-89311235D01*
X143294137Y-89411103D01*
X143522392Y-89472263D01*
X143757799Y-89492859D01*
X143757799Y-89492858D01*
X143757800Y-89492859D01*
X143993208Y-89472263D01*
X144221463Y-89411103D01*
X144435630Y-89311235D01*
X144629201Y-89175695D01*
X144796295Y-89008601D01*
X144926226Y-88823039D01*
X144970543Y-88784175D01*
X145027800Y-88770164D01*
X145085057Y-88784175D01*
X145129373Y-88823039D01*
X145259305Y-89008601D01*
X145426399Y-89175695D01*
X145619970Y-89311235D01*
X145834137Y-89411103D01*
X146062392Y-89472263D01*
X146297799Y-89492859D01*
X146297799Y-89492858D01*
X146297800Y-89492859D01*
X146533208Y-89472263D01*
X146761463Y-89411103D01*
X146975630Y-89311235D01*
X147169201Y-89175695D01*
X147336295Y-89008601D01*
X147466226Y-88823039D01*
X147510543Y-88784175D01*
X147567800Y-88770164D01*
X147625057Y-88784175D01*
X147669373Y-88823039D01*
X147799305Y-89008601D01*
X147966399Y-89175695D01*
X148159970Y-89311235D01*
X148374137Y-89411103D01*
X148602392Y-89472263D01*
X148837799Y-89492859D01*
X148837799Y-89492858D01*
X148837800Y-89492859D01*
X149073208Y-89472263D01*
X149301463Y-89411103D01*
X149515630Y-89311235D01*
X149709201Y-89175695D01*
X149876295Y-89008601D01*
X150006226Y-88823039D01*
X150050543Y-88784175D01*
X150107800Y-88770164D01*
X150165057Y-88784175D01*
X150209373Y-88823039D01*
X150339305Y-89008601D01*
X150506399Y-89175695D01*
X150699970Y-89311235D01*
X150914137Y-89411103D01*
X151142392Y-89472263D01*
X151364594Y-89491704D01*
X151426145Y-89514533D01*
X151467414Y-89565585D01*
X151476837Y-89630553D01*
X151461104Y-89668633D01*
X151463547Y-89669691D01*
X151439975Y-89724158D01*
X151434838Y-89734644D01*
X151413802Y-89772907D01*
X151408821Y-89792309D01*
X151402520Y-89810711D01*
X151394561Y-89829102D01*
X151387728Y-89872242D01*
X151385360Y-89883674D01*
X151374500Y-89925978D01*
X151374500Y-89946016D01*
X151372973Y-89965415D01*
X151369840Y-89985194D01*
X151373950Y-90028675D01*
X151374500Y-90040344D01*
X151374500Y-94006313D01*
X151366264Y-94050751D01*
X151342652Y-94089282D01*
X151309545Y-94126051D01*
X151267464Y-94172786D01*
X151172820Y-94336715D01*
X151114326Y-94516742D01*
X151094540Y-94705000D01*
X151114326Y-94893257D01*
X151172820Y-95073284D01*
X151267466Y-95237216D01*
X151394129Y-95377889D01*
X151547269Y-95489151D01*
X151720197Y-95566144D01*
X151905352Y-95605500D01*
X151905354Y-95605500D01*
X152094646Y-95605500D01*
X152094648Y-95605500D01*
X152218084Y-95579262D01*
X152279803Y-95566144D01*
X152452730Y-95489151D01*
X152605871Y-95377888D01*
X152732533Y-95237216D01*
X152827179Y-95073284D01*
X152885674Y-94893256D01*
X152905460Y-94705000D01*
X152885674Y-94516744D01*
X152827179Y-94336716D01*
X152827179Y-94336715D01*
X152732535Y-94172786D01*
X152719427Y-94158229D01*
X152657347Y-94089282D01*
X152633736Y-94050751D01*
X152625500Y-94006313D01*
X152625500Y-90315452D01*
X152634939Y-90267999D01*
X152661819Y-90227771D01*
X152722771Y-90166819D01*
X152762999Y-90139939D01*
X152810452Y-90130500D01*
X156185675Y-90130500D01*
X156251385Y-90149342D01*
X156297125Y-90200142D01*
X156308995Y-90267459D01*
X156294540Y-90405000D01*
X156300254Y-90459369D01*
X156314326Y-90593257D01*
X156372820Y-90773284D01*
X156467466Y-90937216D01*
X156594129Y-91077889D01*
X156747269Y-91189151D01*
X156920197Y-91266144D01*
X157105352Y-91305500D01*
X157105354Y-91305500D01*
X157164548Y-91305500D01*
X157212001Y-91314939D01*
X157252229Y-91341819D01*
X163138181Y-97227771D01*
X163165061Y-97267999D01*
X163174500Y-97315452D01*
X163174500Y-97680500D01*
X163157887Y-97742500D01*
X163112500Y-97787887D01*
X163050500Y-97804500D01*
X162905352Y-97804500D01*
X162720197Y-97843855D01*
X162547269Y-97920848D01*
X162394129Y-98032110D01*
X162267466Y-98172783D01*
X162172820Y-98336715D01*
X162114326Y-98516742D01*
X162094540Y-98704999D01*
X162114326Y-98893257D01*
X162172820Y-99073284D01*
X162267464Y-99237213D01*
X162267467Y-99237216D01*
X162342652Y-99320717D01*
X162366264Y-99359249D01*
X162374500Y-99403687D01*
X162374500Y-100610645D01*
X162361950Y-100665003D01*
X162326841Y-100708359D01*
X162276283Y-100731934D01*
X162220197Y-100743856D01*
X162220196Y-100743856D01*
X162220193Y-100743857D01*
X162047269Y-100820848D01*
X161894129Y-100932110D01*
X161800371Y-101036240D01*
X161744475Y-101071850D01*
X161678223Y-101073585D01*
X161620540Y-101040949D01*
X161106026Y-100526435D01*
X161074199Y-100471826D01*
X161073423Y-100408625D01*
X161103900Y-100353251D01*
X161157707Y-100320094D01*
X161265501Y-100287396D01*
X161430625Y-100199136D01*
X161575357Y-100080357D01*
X161694136Y-99935625D01*
X161782396Y-99770501D01*
X161836747Y-99591331D01*
X161855099Y-99405000D01*
X161836747Y-99218669D01*
X161782396Y-99039499D01*
X161694136Y-98874375D01*
X161575357Y-98729643D01*
X161430625Y-98610864D01*
X161430624Y-98610863D01*
X161265500Y-98522603D01*
X161086332Y-98468253D01*
X160900000Y-98449901D01*
X160713667Y-98468253D01*
X160534499Y-98522603D01*
X160369375Y-98610863D01*
X160320039Y-98651353D01*
X160283148Y-98672251D01*
X160241374Y-98679500D01*
X154361887Y-98679500D01*
X154343917Y-98678191D01*
X154335964Y-98677026D01*
X154321244Y-98674870D01*
X154321243Y-98674870D01*
X154273716Y-98679028D01*
X154262909Y-98679500D01*
X154257744Y-98679500D01*
X154228041Y-98682971D01*
X154224457Y-98683337D01*
X154150758Y-98689785D01*
X154133000Y-98693721D01*
X154063478Y-98719025D01*
X154060074Y-98720208D01*
X153989845Y-98743480D01*
X153973466Y-98751410D01*
X153911665Y-98792055D01*
X153908629Y-98793988D01*
X153845645Y-98832839D01*
X153831537Y-98844332D01*
X153780746Y-98898166D01*
X153778235Y-98900751D01*
X153052713Y-99626274D01*
X153018050Y-99650687D01*
X152977188Y-99661996D01*
X152913666Y-99668253D01*
X152734499Y-99722603D01*
X152569375Y-99810863D01*
X152424643Y-99929643D01*
X152305863Y-100074375D01*
X152217603Y-100239499D01*
X152163253Y-100418667D01*
X152144901Y-100605000D01*
X152163253Y-100791332D01*
X152217603Y-100970500D01*
X152305863Y-101135624D01*
X152327162Y-101161577D01*
X152424643Y-101280357D01*
X152569375Y-101399136D01*
X152734499Y-101487396D01*
X152913669Y-101541747D01*
X153100000Y-101560099D01*
X153286331Y-101541747D01*
X153465501Y-101487396D01*
X153630625Y-101399136D01*
X153630624Y-101399136D01*
X153641396Y-101393379D01*
X153642349Y-101395163D01*
X153671793Y-101380186D01*
X153725109Y-101378216D01*
X153774317Y-101398831D01*
X153810308Y-101438215D01*
X153867466Y-101537215D01*
X153994129Y-101677889D01*
X154147269Y-101789151D01*
X154320197Y-101866144D01*
X154505352Y-101905500D01*
X154505354Y-101905500D01*
X154694646Y-101905500D01*
X154694648Y-101905500D01*
X154818083Y-101879262D01*
X154879803Y-101866144D01*
X155052730Y-101789151D01*
X155205871Y-101677888D01*
X155211598Y-101671526D01*
X155253312Y-101641220D01*
X155303747Y-101630500D01*
X159289548Y-101630500D01*
X159337001Y-101639939D01*
X159377229Y-101666819D01*
X160661038Y-102950629D01*
X160685277Y-102984926D01*
X160696678Y-103025348D01*
X160714326Y-103193257D01*
X160772820Y-103373284D01*
X160867466Y-103537216D01*
X160994129Y-103677889D01*
X161147269Y-103789151D01*
X161320197Y-103866144D01*
X161505352Y-103905500D01*
X161505354Y-103905500D01*
X161694646Y-103905500D01*
X161694648Y-103905500D01*
X161818083Y-103879262D01*
X161879803Y-103866144D01*
X162052730Y-103789151D01*
X162205871Y-103677888D01*
X162252250Y-103626378D01*
X162308144Y-103590769D01*
X162374397Y-103589034D01*
X162432080Y-103621670D01*
X162861038Y-104050628D01*
X162885277Y-104084925D01*
X162896678Y-104125347D01*
X162914326Y-104293257D01*
X162972820Y-104473284D01*
X163067466Y-104637216D01*
X163194129Y-104777889D01*
X163347269Y-104889151D01*
X163520197Y-104966144D01*
X163705352Y-105005500D01*
X163705354Y-105005500D01*
X163894646Y-105005500D01*
X163894648Y-105005500D01*
X164018084Y-104979262D01*
X164079803Y-104966144D01*
X164252730Y-104889151D01*
X164405871Y-104777888D01*
X164532533Y-104637216D01*
X164627179Y-104473284D01*
X164685674Y-104293256D01*
X164705460Y-104105000D01*
X164685674Y-103916744D01*
X164628359Y-103740348D01*
X164627179Y-103736715D01*
X164532535Y-103572786D01*
X164500507Y-103537216D01*
X164457347Y-103489282D01*
X164433736Y-103450751D01*
X164425500Y-103406313D01*
X164425500Y-97087744D01*
X164427764Y-97067236D01*
X164425561Y-96997113D01*
X164425500Y-96993219D01*
X164425500Y-96965654D01*
X164425500Y-96965650D01*
X164424997Y-96961670D01*
X164424081Y-96950028D01*
X164423566Y-96933626D01*
X164422710Y-96906373D01*
X164417118Y-96887126D01*
X164413174Y-96868085D01*
X164410664Y-96848208D01*
X164394579Y-96807583D01*
X164390806Y-96796562D01*
X164378618Y-96754610D01*
X164368419Y-96737364D01*
X164359861Y-96719897D01*
X164352486Y-96701268D01*
X164326808Y-96665926D01*
X164320405Y-96656176D01*
X164298171Y-96618580D01*
X164284006Y-96604415D01*
X164271369Y-96589620D01*
X164259595Y-96573414D01*
X164259594Y-96573413D01*
X164225935Y-96545568D01*
X164217305Y-96537714D01*
X158138960Y-90459369D01*
X158114720Y-90425071D01*
X158103321Y-90384655D01*
X158085674Y-90216744D01*
X158041121Y-90079627D01*
X158037249Y-90018078D01*
X158063506Y-89962274D01*
X158076955Y-89946016D01*
X158089438Y-89930926D01*
X158097279Y-89922309D01*
X158542153Y-89477435D01*
X158597739Y-89445343D01*
X158661926Y-89445343D01*
X158762392Y-89472263D01*
X158919330Y-89485993D01*
X158997799Y-89492859D01*
X158997799Y-89492858D01*
X158997800Y-89492859D01*
X159233208Y-89472263D01*
X159461463Y-89411103D01*
X159675630Y-89311235D01*
X159869201Y-89175695D01*
X160036295Y-89008601D01*
X160166226Y-88823039D01*
X160210543Y-88784175D01*
X160267800Y-88770164D01*
X160325057Y-88784175D01*
X160369373Y-88823039D01*
X160499305Y-89008601D01*
X160666399Y-89175695D01*
X160859970Y-89311235D01*
X161074137Y-89411103D01*
X161302392Y-89472263D01*
X161537799Y-89492859D01*
X161537799Y-89492858D01*
X161537800Y-89492859D01*
X161773208Y-89472263D01*
X162001463Y-89411103D01*
X162215630Y-89311235D01*
X162409201Y-89175695D01*
X162576295Y-89008601D01*
X162706226Y-88823039D01*
X162750543Y-88784175D01*
X162807800Y-88770164D01*
X162865057Y-88784175D01*
X162909373Y-88823039D01*
X163039305Y-89008601D01*
X163206399Y-89175695D01*
X163399970Y-89311235D01*
X163614137Y-89411103D01*
X163842392Y-89472263D01*
X164077799Y-89492859D01*
X164077799Y-89492858D01*
X164077800Y-89492859D01*
X164313208Y-89472263D01*
X164541463Y-89411103D01*
X164755630Y-89311235D01*
X164949201Y-89175695D01*
X165116295Y-89008601D01*
X165251835Y-88815030D01*
X165351703Y-88600863D01*
X165412863Y-88372608D01*
X165433459Y-88137200D01*
X165412863Y-87901792D01*
X165351703Y-87673537D01*
X165251835Y-87459371D01*
X165210348Y-87400121D01*
X165188189Y-87337110D01*
X165201935Y-87271743D01*
X165247596Y-87222991D01*
X165311924Y-87205000D01*
X167370532Y-87205000D01*
X167434647Y-87222862D01*
X167480291Y-87271302D01*
X167494313Y-87336365D01*
X167472674Y-87399306D01*
X167421608Y-87441992D01*
X167217940Y-87534056D01*
X167021410Y-87666886D01*
X166850155Y-87831020D01*
X166709104Y-88021735D01*
X166602312Y-88233545D01*
X166559724Y-88372608D01*
X166532852Y-88460357D01*
X166514860Y-88600862D01*
X166502722Y-88695647D01*
X166512789Y-88932636D01*
X166512790Y-88932639D01*
X166562764Y-89164524D01*
X166562765Y-89164526D01*
X166621717Y-89311235D01*
X166651209Y-89384627D01*
X166775579Y-89586617D01*
X166896630Y-89724158D01*
X166932298Y-89764684D01*
X167116850Y-89913700D01*
X167323940Y-90029388D01*
X167547601Y-90108412D01*
X167781394Y-90148500D01*
X167781396Y-90148500D01*
X167959191Y-90148500D01*
X167959195Y-90148500D01*
X168077299Y-90138447D01*
X168136354Y-90133421D01*
X168289390Y-90093573D01*
X168365910Y-90073650D01*
X168521827Y-90003170D01*
X168582060Y-89975943D01*
X168778590Y-89843113D01*
X168949844Y-89678979D01*
X169090896Y-89488264D01*
X169197688Y-89276454D01*
X169267148Y-89049643D01*
X169297278Y-88814356D01*
X169287210Y-88577361D01*
X169237236Y-88345476D01*
X169148791Y-88125373D01*
X169024421Y-87923383D01*
X168867703Y-87745317D01*
X168867701Y-87745315D01*
X168683149Y-87596299D01*
X168476059Y-87480611D01*
X168377863Y-87445917D01*
X168322038Y-87406077D01*
X168295927Y-87342659D01*
X168307517Y-87275063D01*
X168353264Y-87223966D01*
X168419172Y-87205000D01*
X169248638Y-87205000D01*
X169296091Y-87214439D01*
X169336319Y-87241319D01*
X170063681Y-87968681D01*
X170090561Y-88008909D01*
X170100000Y-88056362D01*
X170100000Y-108462454D01*
X170093288Y-108502697D01*
X170073880Y-108538582D01*
X169925794Y-108728979D01*
X169437233Y-109357129D01*
X169393833Y-109392391D01*
X169339353Y-109405000D01*
X168253705Y-109405000D01*
X168196318Y-109390922D01*
X168151963Y-109351884D01*
X168130709Y-109296750D01*
X168137385Y-109238040D01*
X168170473Y-109189085D01*
X168222460Y-109161001D01*
X168365910Y-109123650D01*
X168473984Y-109074796D01*
X168582060Y-109025943D01*
X168778590Y-108893113D01*
X168949844Y-108728979D01*
X169090896Y-108538264D01*
X169197688Y-108326454D01*
X169267148Y-108099643D01*
X169297278Y-107864356D01*
X169287210Y-107627361D01*
X169237236Y-107395476D01*
X169148791Y-107175373D01*
X169024421Y-106973383D01*
X168867703Y-106795317D01*
X168867701Y-106795315D01*
X168683149Y-106646299D01*
X168476059Y-106530611D01*
X168252398Y-106451587D01*
X168018606Y-106411500D01*
X168018604Y-106411500D01*
X167840809Y-106411500D01*
X167840805Y-106411500D01*
X167663647Y-106426578D01*
X167434089Y-106486349D01*
X167217940Y-106584056D01*
X167021410Y-106716886D01*
X166850155Y-106881020D01*
X166709104Y-107071735D01*
X166602312Y-107283545D01*
X166532852Y-107510356D01*
X166502722Y-107745647D01*
X166512789Y-107982636D01*
X166531938Y-108071492D01*
X166562764Y-108214524D01*
X166651209Y-108434627D01*
X166775579Y-108636617D01*
X166881985Y-108757518D01*
X166932298Y-108814684D01*
X167116850Y-108963700D01*
X167323940Y-109079388D01*
X167547601Y-109158412D01*
X167549771Y-109158784D01*
X167554144Y-109160723D01*
X167557550Y-109161927D01*
X167557456Y-109162192D01*
X167605341Y-109183431D01*
X167642519Y-109231528D01*
X167652368Y-109291516D01*
X167632523Y-109348976D01*
X167587751Y-109390099D01*
X167528815Y-109405000D01*
X165318787Y-109405000D01*
X165254459Y-109387009D01*
X165208798Y-109338257D01*
X165195052Y-109272890D01*
X165217212Y-109209877D01*
X165231771Y-109189085D01*
X165251835Y-109160430D01*
X165351703Y-108946263D01*
X165412863Y-108718008D01*
X165433459Y-108482600D01*
X165429261Y-108434623D01*
X165412863Y-108247192D01*
X165404110Y-108214524D01*
X165351703Y-108018937D01*
X165251835Y-107804771D01*
X165116295Y-107611199D01*
X164949201Y-107444105D01*
X164755630Y-107308565D01*
X164541463Y-107208697D01*
X164480301Y-107192309D01*
X164313207Y-107147536D01*
X164077800Y-107126940D01*
X163842392Y-107147536D01*
X163614136Y-107208697D01*
X163399970Y-107308565D01*
X163206398Y-107444105D01*
X163039308Y-107611195D01*
X162918267Y-107784060D01*
X162873949Y-107822925D01*
X162816692Y-107836936D01*
X162759435Y-107822925D01*
X162715117Y-107784059D01*
X162711836Y-107779373D01*
X162711835Y-107779371D01*
X162576295Y-107585799D01*
X162409201Y-107418705D01*
X162215630Y-107283165D01*
X162001463Y-107183297D01*
X161940302Y-107166909D01*
X161773207Y-107122136D01*
X161537800Y-107101540D01*
X161302392Y-107122136D01*
X161074136Y-107183297D01*
X160859970Y-107283165D01*
X160666398Y-107418705D01*
X160499305Y-107585798D01*
X160369375Y-107771359D01*
X160325057Y-107810225D01*
X160267800Y-107824236D01*
X160210543Y-107810225D01*
X160166225Y-107771359D01*
X160036294Y-107585798D01*
X159869204Y-107418708D01*
X159869204Y-107418707D01*
X159869201Y-107418705D01*
X159675630Y-107283165D01*
X159461463Y-107183297D01*
X159400302Y-107166909D01*
X159233207Y-107122136D01*
X158997800Y-107101540D01*
X158762392Y-107122136D01*
X158534136Y-107183297D01*
X158319970Y-107283165D01*
X158126398Y-107418705D01*
X157959305Y-107585798D01*
X157829375Y-107771359D01*
X157785057Y-107810225D01*
X157727800Y-107824236D01*
X157670543Y-107810225D01*
X157626225Y-107771359D01*
X157496294Y-107585798D01*
X157329204Y-107418708D01*
X157329204Y-107418707D01*
X157329201Y-107418705D01*
X157135630Y-107283165D01*
X156921463Y-107183297D01*
X156860302Y-107166909D01*
X156693207Y-107122136D01*
X156457800Y-107101540D01*
X156222392Y-107122136D01*
X155994136Y-107183297D01*
X155779970Y-107283165D01*
X155586398Y-107418705D01*
X155419305Y-107585798D01*
X155289375Y-107771359D01*
X155245057Y-107810225D01*
X155187800Y-107824236D01*
X155130543Y-107810225D01*
X155086225Y-107771359D01*
X154956294Y-107585798D01*
X154789204Y-107418708D01*
X154789204Y-107418707D01*
X154789201Y-107418705D01*
X154595630Y-107283165D01*
X154381463Y-107183297D01*
X154320302Y-107166909D01*
X154153207Y-107122136D01*
X153917800Y-107101540D01*
X153682392Y-107122136D01*
X153454136Y-107183297D01*
X153239970Y-107283165D01*
X153046398Y-107418705D01*
X152879305Y-107585798D01*
X152749375Y-107771359D01*
X152705057Y-107810225D01*
X152647800Y-107824236D01*
X152590543Y-107810225D01*
X152546225Y-107771359D01*
X152416294Y-107585798D01*
X152249204Y-107418708D01*
X152249204Y-107418707D01*
X152249201Y-107418705D01*
X152055630Y-107283165D01*
X151841463Y-107183297D01*
X151780302Y-107166909D01*
X151613207Y-107122136D01*
X151377800Y-107101540D01*
X151142392Y-107122136D01*
X150914136Y-107183297D01*
X150699970Y-107283165D01*
X150506398Y-107418705D01*
X150339305Y-107585798D01*
X150209375Y-107771359D01*
X150165057Y-107810225D01*
X150107800Y-107824236D01*
X150050543Y-107810225D01*
X150006225Y-107771359D01*
X149876294Y-107585798D01*
X149709204Y-107418708D01*
X149709204Y-107418707D01*
X149709201Y-107418705D01*
X149515630Y-107283165D01*
X149301463Y-107183297D01*
X149240302Y-107166909D01*
X149073207Y-107122136D01*
X148837800Y-107101540D01*
X148602392Y-107122136D01*
X148374136Y-107183297D01*
X148159970Y-107283165D01*
X147966398Y-107418705D01*
X147799305Y-107585798D01*
X147669375Y-107771359D01*
X147625057Y-107810225D01*
X147567800Y-107824236D01*
X147510543Y-107810225D01*
X147466225Y-107771359D01*
X147336294Y-107585798D01*
X147169204Y-107418708D01*
X147169204Y-107418707D01*
X147169201Y-107418705D01*
X146975630Y-107283165D01*
X146761463Y-107183297D01*
X146700302Y-107166909D01*
X146533207Y-107122136D01*
X146297800Y-107101540D01*
X146062392Y-107122136D01*
X145834136Y-107183297D01*
X145619970Y-107283165D01*
X145426398Y-107418705D01*
X145259305Y-107585798D01*
X145129375Y-107771359D01*
X145085057Y-107810225D01*
X145027800Y-107824236D01*
X144970543Y-107810225D01*
X144926225Y-107771359D01*
X144796294Y-107585798D01*
X144629204Y-107418708D01*
X144629204Y-107418707D01*
X144629201Y-107418705D01*
X144435630Y-107283165D01*
X144221463Y-107183297D01*
X144160302Y-107166909D01*
X143993207Y-107122136D01*
X143774655Y-107103015D01*
X143709976Y-107077863D01*
X143668941Y-107021897D01*
X143664402Y-106952648D01*
X143697780Y-106891808D01*
X146783786Y-103805802D01*
X146799887Y-103792904D01*
X146801874Y-103790787D01*
X146801877Y-103790786D01*
X146847932Y-103741741D01*
X146850613Y-103738976D01*
X146852874Y-103736715D01*
X146870120Y-103719470D01*
X146872581Y-103716295D01*
X146880152Y-103707431D01*
X146910062Y-103675582D01*
X146919713Y-103658026D01*
X146930393Y-103641767D01*
X146942674Y-103625936D01*
X146960018Y-103585851D01*
X146965160Y-103575356D01*
X146966574Y-103572784D01*
X146986197Y-103537092D01*
X146991178Y-103517688D01*
X146997480Y-103499283D01*
X147005438Y-103480895D01*
X147012270Y-103437748D01*
X147014639Y-103426316D01*
X147025500Y-103384020D01*
X147025500Y-103363984D01*
X147027027Y-103344585D01*
X147030160Y-103324804D01*
X147026050Y-103281325D01*
X147025500Y-103269656D01*
X147025500Y-98903687D01*
X147033736Y-98859249D01*
X147057347Y-98820717D01*
X147132533Y-98737216D01*
X147136906Y-98729643D01*
X147227179Y-98573284D01*
X147289701Y-98380861D01*
X147290056Y-98380976D01*
X147301417Y-98346007D01*
X147335920Y-98307686D01*
X147383022Y-98286714D01*
X147479803Y-98266144D01*
X147652730Y-98189151D01*
X147805871Y-98077888D01*
X147932533Y-97937216D01*
X148027179Y-97773284D01*
X148085674Y-97593256D01*
X148105460Y-97405000D01*
X148085674Y-97216744D01*
X148037096Y-97067236D01*
X148027179Y-97036715D01*
X147932533Y-96872783D01*
X147805870Y-96732110D01*
X147652730Y-96620848D01*
X147479802Y-96543855D01*
X147294648Y-96504500D01*
X147294646Y-96504500D01*
X147105354Y-96504500D01*
X147105352Y-96504500D01*
X146920197Y-96543855D01*
X146747272Y-96620847D01*
X146698646Y-96656176D01*
X146594129Y-96732112D01*
X146588401Y-96738473D01*
X146546688Y-96768780D01*
X146496253Y-96779500D01*
X145282744Y-96779500D01*
X145262236Y-96777235D01*
X145192113Y-96779439D01*
X145188219Y-96779500D01*
X145160650Y-96779500D01*
X145156671Y-96780002D01*
X145145041Y-96780917D01*
X145101372Y-96782289D01*
X145082128Y-96787880D01*
X145063084Y-96791824D01*
X145043208Y-96794335D01*
X145002600Y-96810413D01*
X144991554Y-96814194D01*
X144949610Y-96826382D01*
X144949607Y-96826383D01*
X144932365Y-96836579D01*
X144914904Y-96845133D01*
X144896267Y-96852512D01*
X144860931Y-96878185D01*
X144851174Y-96884595D01*
X144813580Y-96906829D01*
X144799413Y-96920996D01*
X144784624Y-96933626D01*
X144768415Y-96945402D01*
X144740579Y-96979051D01*
X144732717Y-96987690D01*
X144596138Y-97124269D01*
X144596136Y-97124272D01*
X144216208Y-97504199D01*
X144200110Y-97517096D01*
X144152096Y-97568225D01*
X144149391Y-97571017D01*
X144129874Y-97590534D01*
X144127415Y-97593705D01*
X144119842Y-97602572D01*
X144089935Y-97634420D01*
X144080285Y-97651974D01*
X144069609Y-97668228D01*
X144057326Y-97684063D01*
X144039975Y-97724158D01*
X144034838Y-97734644D01*
X144013802Y-97772907D01*
X144008821Y-97792309D01*
X144002520Y-97810711D01*
X143994561Y-97829102D01*
X143987728Y-97872242D01*
X143985360Y-97883674D01*
X143974500Y-97925978D01*
X143974500Y-97946016D01*
X143972973Y-97965415D01*
X143969840Y-97985194D01*
X143973950Y-98028675D01*
X143974500Y-98040344D01*
X143974500Y-102494548D01*
X143965061Y-102542001D01*
X143938181Y-102582229D01*
X140777228Y-105743181D01*
X140737000Y-105770061D01*
X140689547Y-105779500D01*
X139882741Y-105779500D01*
X139862240Y-105777236D01*
X139857169Y-105777395D01*
X139853395Y-105777514D01*
X139789764Y-105762239D01*
X139742768Y-105716698D01*
X139725500Y-105653576D01*
X139725500Y-100276416D01*
X139732457Y-100235465D01*
X139785368Y-100084255D01*
X139805565Y-99905000D01*
X139785368Y-99725745D01*
X139725789Y-99555478D01*
X139629816Y-99402738D01*
X139629815Y-99402737D01*
X139629814Y-99402735D01*
X139502264Y-99275185D01*
X139412316Y-99218667D01*
X139349522Y-99179211D01*
X139179255Y-99119632D01*
X139179253Y-99119631D01*
X139179251Y-99119631D01*
X139000000Y-99099434D01*
X138820748Y-99119631D01*
X138820745Y-99119631D01*
X138820745Y-99119632D01*
X138650478Y-99179211D01*
X138650476Y-99179211D01*
X138650476Y-99179212D01*
X138497735Y-99275185D01*
X138370185Y-99402735D01*
X138337046Y-99455476D01*
X138274211Y-99555478D01*
X138240896Y-99650687D01*
X138214631Y-99725748D01*
X138194434Y-99905000D01*
X138214631Y-100084251D01*
X138214631Y-100084253D01*
X138214632Y-100084255D01*
X138267542Y-100235465D01*
X138274500Y-100276416D01*
X138274500Y-104624837D01*
X138260985Y-104681132D01*
X138223385Y-104725155D01*
X138169898Y-104747310D01*
X138112182Y-104742768D01*
X138062819Y-104712518D01*
X135811819Y-102461518D01*
X135784939Y-102421290D01*
X135775500Y-102373837D01*
X135775500Y-100270280D01*
X135794506Y-100204308D01*
X135797756Y-100199136D01*
X135825789Y-100154522D01*
X135885368Y-99984255D01*
X135905565Y-99805000D01*
X135885368Y-99625745D01*
X135825789Y-99455478D01*
X135729816Y-99302738D01*
X135729815Y-99302737D01*
X135729814Y-99302735D01*
X135602264Y-99175185D01*
X135539867Y-99135979D01*
X135449522Y-99079211D01*
X135279255Y-99019632D01*
X135279253Y-99019631D01*
X135279251Y-99019631D01*
X135100000Y-98999434D01*
X134920748Y-99019631D01*
X134920745Y-99019631D01*
X134920745Y-99019632D01*
X134750478Y-99079211D01*
X134750476Y-99079211D01*
X134750476Y-99079212D01*
X134597735Y-99175185D01*
X134470185Y-99302735D01*
X134406753Y-99403687D01*
X134374211Y-99455478D01*
X134326674Y-99591331D01*
X134314631Y-99625748D01*
X134294434Y-99805000D01*
X134314631Y-99984251D01*
X134314631Y-99984253D01*
X134314632Y-99984255D01*
X134374211Y-100154522D01*
X134374212Y-100154523D01*
X134405494Y-100204308D01*
X134424500Y-100270280D01*
X134424500Y-102680849D01*
X134424274Y-102688336D01*
X134420780Y-102746087D01*
X134431207Y-102802987D01*
X134432334Y-102810386D01*
X134439312Y-102867847D01*
X134442636Y-102876612D01*
X134448660Y-102898223D01*
X134450348Y-102907436D01*
X134462643Y-102934754D01*
X134474101Y-102960215D01*
X134476960Y-102967117D01*
X134497482Y-103021227D01*
X134502804Y-103028938D01*
X134513824Y-103048476D01*
X134517673Y-103057026D01*
X134517674Y-103057028D01*
X134553360Y-103102577D01*
X134557800Y-103108611D01*
X134590668Y-103156229D01*
X134633989Y-103194608D01*
X134639426Y-103199727D01*
X137302519Y-105862820D01*
X137331879Y-105909546D01*
X137374209Y-106030519D01*
X137470185Y-106183264D01*
X137510870Y-106223949D01*
X137544080Y-106284036D01*
X137540231Y-106352583D01*
X137514631Y-106425745D01*
X137501289Y-106544163D01*
X137481248Y-106599054D01*
X137438293Y-106638672D01*
X137381964Y-106654218D01*
X137304927Y-106656639D01*
X137301032Y-106656700D01*
X137273450Y-106656700D01*
X137269465Y-106657203D01*
X137257833Y-106658118D01*
X137214169Y-106659490D01*
X137194929Y-106665080D01*
X137175881Y-106669025D01*
X137156009Y-106671535D01*
X137115399Y-106687613D01*
X137104354Y-106691394D01*
X137062410Y-106703581D01*
X137045165Y-106713779D01*
X137027704Y-106722333D01*
X137009067Y-106729712D01*
X136973731Y-106755385D01*
X136963974Y-106761795D01*
X136926380Y-106784029D01*
X136912213Y-106798196D01*
X136897424Y-106810826D01*
X136881213Y-106822604D01*
X136853372Y-106856258D01*
X136845511Y-106864897D01*
X136593446Y-107116962D01*
X136537858Y-107149056D01*
X136473672Y-107149056D01*
X136391137Y-107126941D01*
X136373205Y-107122136D01*
X136137800Y-107101540D01*
X135902392Y-107122136D01*
X135674136Y-107183297D01*
X135459970Y-107283165D01*
X135266398Y-107418705D01*
X135099308Y-107585795D01*
X134969069Y-107771796D01*
X134924751Y-107810661D01*
X134867494Y-107824672D01*
X134810237Y-107810661D01*
X134765919Y-107771795D01*
X134635909Y-107586121D01*
X134468881Y-107419093D01*
X134275376Y-107283599D01*
X134061292Y-107183769D01*
X133847800Y-107126564D01*
X133847800Y-108583200D01*
X133831187Y-108645200D01*
X133785800Y-108690587D01*
X133723800Y-108707200D01*
X133471800Y-108707200D01*
X133409800Y-108690587D01*
X133364413Y-108645200D01*
X133347800Y-108583200D01*
X133347800Y-107126564D01*
X133347799Y-107126564D01*
X133134307Y-107183769D01*
X132920221Y-107283600D01*
X132726721Y-107419090D01*
X132559693Y-107586118D01*
X132429680Y-107771796D01*
X132385362Y-107810661D01*
X132328105Y-107824672D01*
X132270848Y-107810661D01*
X132226530Y-107771795D01*
X132096295Y-107585799D01*
X131929201Y-107418705D01*
X131735630Y-107283165D01*
X131521463Y-107183297D01*
X131460302Y-107166909D01*
X131293207Y-107122136D01*
X131057800Y-107101540D01*
X130822392Y-107122136D01*
X130594136Y-107183297D01*
X130379970Y-107283165D01*
X130186398Y-107418705D01*
X130019308Y-107585795D01*
X129889374Y-107771360D01*
X129845055Y-107810226D01*
X129787799Y-107824236D01*
X129730542Y-107810225D01*
X129686226Y-107771361D01*
X129556295Y-107585799D01*
X129389201Y-107418705D01*
X129195630Y-107283165D01*
X128981463Y-107183297D01*
X128920302Y-107166909D01*
X128753207Y-107122136D01*
X128517800Y-107101540D01*
X128282392Y-107122136D01*
X128054136Y-107183297D01*
X127839970Y-107283165D01*
X127646398Y-107418705D01*
X127479308Y-107585795D01*
X127349374Y-107771360D01*
X127305055Y-107810226D01*
X127247799Y-107824236D01*
X127190542Y-107810225D01*
X127146226Y-107771361D01*
X127016295Y-107585799D01*
X126849201Y-107418705D01*
X126655630Y-107283165D01*
X126441463Y-107183297D01*
X126380302Y-107166909D01*
X126213207Y-107122136D01*
X125977800Y-107101540D01*
X125742392Y-107122136D01*
X125514136Y-107183297D01*
X125299970Y-107283165D01*
X125097512Y-107424928D01*
X125096491Y-107423470D01*
X125058697Y-107446313D01*
X124999457Y-107449891D01*
X124945339Y-107425531D01*
X124908740Y-107378812D01*
X124898043Y-107320437D01*
X124905026Y-107204999D01*
X124884938Y-106872917D01*
X124824968Y-106545673D01*
X124725994Y-106228053D01*
X124589456Y-105924681D01*
X124417338Y-105639960D01*
X124264138Y-105444416D01*
X124264136Y-105444416D01*
X122503553Y-107205000D01*
X122503553Y-107205001D01*
X124264136Y-108965582D01*
X124264137Y-108965582D01*
X124417341Y-108770032D01*
X124437322Y-108736980D01*
X124477588Y-108696059D01*
X124531968Y-108677660D01*
X124588808Y-108685725D01*
X124635923Y-108718527D01*
X124663215Y-108769034D01*
X124703897Y-108920864D01*
X124723872Y-108963700D01*
X124803765Y-109135030D01*
X124856175Y-109209879D01*
X124878333Y-109272890D01*
X124864588Y-109338257D01*
X124818927Y-109387009D01*
X124754599Y-109405000D01*
X124037116Y-109405000D01*
X123972966Y-109387117D01*
X123927319Y-109338625D01*
X123926566Y-109335120D01*
X122150000Y-107558553D01*
X120036319Y-105444872D01*
X120009439Y-105404644D01*
X120000000Y-105357191D01*
X120000000Y-105090862D01*
X120389416Y-105090862D01*
X122150000Y-106851446D01*
X122150001Y-106851446D01*
X123910582Y-105090862D01*
X123910582Y-105090861D01*
X123715033Y-104937657D01*
X123430318Y-104765543D01*
X123126946Y-104629005D01*
X122809326Y-104530031D01*
X122482082Y-104470061D01*
X122150000Y-104449973D01*
X121817917Y-104470061D01*
X121490673Y-104530031D01*
X121173053Y-104629005D01*
X120869681Y-104765543D01*
X120584966Y-104937657D01*
X120389416Y-105090861D01*
X120389416Y-105090862D01*
X120000000Y-105090862D01*
X120000000Y-98252398D01*
X124595746Y-98252398D01*
X124600103Y-98343856D01*
X124605746Y-98462330D01*
X124655297Y-98666580D01*
X124742602Y-98857752D01*
X124843494Y-98999434D01*
X124864514Y-99028952D01*
X125016622Y-99173986D01*
X125086147Y-99218667D01*
X125193425Y-99287612D01*
X125231201Y-99302735D01*
X125388543Y-99365725D01*
X125517228Y-99390527D01*
X125594914Y-99405500D01*
X125594915Y-99405500D01*
X125752420Y-99405500D01*
X125752425Y-99405500D01*
X125909218Y-99390528D01*
X126110875Y-99331316D01*
X126297682Y-99235011D01*
X126462886Y-99105092D01*
X126600519Y-98946256D01*
X126705604Y-98764244D01*
X126774344Y-98565633D01*
X126804254Y-98357602D01*
X126799243Y-98252398D01*
X131595746Y-98252398D01*
X131600103Y-98343856D01*
X131605746Y-98462330D01*
X131655297Y-98666580D01*
X131742602Y-98857752D01*
X131843494Y-98999434D01*
X131864514Y-99028952D01*
X132016622Y-99173986D01*
X132086147Y-99218667D01*
X132193425Y-99287612D01*
X132231201Y-99302735D01*
X132388543Y-99365725D01*
X132517228Y-99390527D01*
X132594914Y-99405500D01*
X132594915Y-99405500D01*
X132752420Y-99405500D01*
X132752425Y-99405500D01*
X132909218Y-99390528D01*
X133110875Y-99331316D01*
X133297682Y-99235011D01*
X133462886Y-99105092D01*
X133600519Y-98946256D01*
X133705604Y-98764244D01*
X133774344Y-98565633D01*
X133804254Y-98357602D01*
X133794254Y-98147670D01*
X133744704Y-97943424D01*
X133736737Y-97925978D01*
X133657397Y-97752247D01*
X133550813Y-97602572D01*
X133535486Y-97581048D01*
X133383378Y-97436014D01*
X133335120Y-97405000D01*
X133206574Y-97322387D01*
X133050609Y-97259949D01*
X133011457Y-97244275D01*
X133011456Y-97244274D01*
X133011454Y-97244274D01*
X132805086Y-97204500D01*
X132805085Y-97204500D01*
X132647575Y-97204500D01*
X132549579Y-97213857D01*
X132490779Y-97219472D01*
X132289126Y-97278683D01*
X132102315Y-97374990D01*
X131937115Y-97504906D01*
X131799479Y-97663745D01*
X131694396Y-97845754D01*
X131625655Y-98044366D01*
X131595746Y-98252396D01*
X131595746Y-98252398D01*
X126799243Y-98252398D01*
X126794254Y-98147670D01*
X126744704Y-97943424D01*
X126736737Y-97925978D01*
X126657397Y-97752247D01*
X126550813Y-97602572D01*
X126535486Y-97581048D01*
X126383378Y-97436014D01*
X126335120Y-97405000D01*
X126206574Y-97322387D01*
X126050609Y-97259949D01*
X126011457Y-97244275D01*
X126011456Y-97244274D01*
X126011454Y-97244274D01*
X125805086Y-97204500D01*
X125805085Y-97204500D01*
X125647575Y-97204500D01*
X125549579Y-97213857D01*
X125490779Y-97219472D01*
X125289126Y-97278683D01*
X125102315Y-97374990D01*
X124937115Y-97504906D01*
X124799479Y-97663745D01*
X124694396Y-97845754D01*
X124625655Y-98044366D01*
X124595746Y-98252396D01*
X124595746Y-98252398D01*
X120000000Y-98252398D01*
X120000000Y-91519138D01*
X120389416Y-91519138D01*
X120584960Y-91672338D01*
X120869681Y-91844456D01*
X121173053Y-91980994D01*
X121490673Y-92079968D01*
X121817917Y-92139938D01*
X122150000Y-92160026D01*
X122482082Y-92139938D01*
X122809326Y-92079968D01*
X123126946Y-91980994D01*
X123430318Y-91844456D01*
X123715033Y-91672341D01*
X123910582Y-91519137D01*
X123910582Y-91519136D01*
X122150001Y-89758553D01*
X122150000Y-89758553D01*
X120389416Y-91519136D01*
X120389416Y-91519138D01*
X120000000Y-91519138D01*
X120000000Y-91252807D01*
X120009439Y-91205354D01*
X120036319Y-91165126D01*
X121796446Y-89405001D01*
X122503553Y-89405001D01*
X124264136Y-91165582D01*
X124264137Y-91165582D01*
X124417341Y-90970033D01*
X124589456Y-90685318D01*
X124725994Y-90381946D01*
X124824968Y-90064326D01*
X124884938Y-89737082D01*
X124905026Y-89404999D01*
X124884938Y-89072917D01*
X124824968Y-88745673D01*
X124725994Y-88428053D01*
X124589456Y-88124681D01*
X124417338Y-87839960D01*
X124264138Y-87644416D01*
X124264136Y-87644416D01*
X122503553Y-89405000D01*
X122503553Y-89405001D01*
X121796446Y-89405001D01*
X122150000Y-89051447D01*
X123926567Y-87274877D01*
X123927319Y-87271376D01*
X123972965Y-87222884D01*
X124037116Y-87205000D01*
X134903676Y-87205000D01*
X134968004Y-87222991D01*
G37*
G04 #@! TD.AperFunction*
M02*
