M48
; DRILL file {KiCad 7.0.1} date Thu Aug 17 16:01:54 2023
; FORMAT={-:-/ absolute / metric / decimal}
; #@! TF.CreationDate,2023-08-17T16:01:54-05:00
; #@! TF.GenerationSoftware,Kicad,Pcbnew,7.0.1
; #@! TF.FileFunction,Plated,1,2,PTH
FMAT,2
METRIC
; #@! TA.AperFunction,Plated,PTH,ViaDrill
T1C0.300
; #@! TA.AperFunction,Plated,PTH,ViaDrill
T2C0.400
; #@! TA.AperFunction,Plated,PTH,ComponentDrill
T3C1.000
; #@! TA.AperFunction,Plated,PTH,ComponentDrill
T4C2.700
%
G90
G05
T1
X135.1Y-99.805
X138.1Y-105.681
X138.3Y-106.605
X139.0Y-99.905
X140.8Y-104.005
T2
X137.1Y-94.305
X137.1Y-101.905
X145.6Y-99.205
X146.4Y-98.205
X147.2Y-97.405
X149.5Y-92.305
X149.9Y-102.505
X152.0Y-94.705
X153.1Y-100.605
X154.6Y-101.005
X155.9Y-94.505
X156.073Y-100.23
X156.4Y-105.005
X157.2Y-90.405
X160.9Y-99.405
X161.2Y-97.105
X161.6Y-103.005
X162.5Y-101.605
X163.0Y-98.705
X163.3Y-106.305
X163.8Y-104.105
X165.5Y-92.105
X168.6Y-102.305
T3
X125.978Y-108.457
X128.518Y-108.457
X131.058Y-108.457
X133.598Y-108.457
X136.138Y-88.137
X136.138Y-108.457
X138.678Y-88.137
X138.678Y-108.457
X141.218Y-88.137
X141.218Y-108.457
X143.758Y-88.137
X143.758Y-108.457
X146.298Y-88.137
X146.298Y-108.457
X148.838Y-88.137
X148.838Y-108.457
X151.378Y-88.137
X151.378Y-108.457
X153.918Y-88.137
X153.918Y-108.457
X156.458Y-88.137
X156.458Y-108.457
X158.998Y-88.137
X158.998Y-108.457
X161.538Y-88.137
X161.538Y-108.457
X164.078Y-88.137
X164.078Y-108.483
T4
X122.15Y-89.405
X122.15Y-107.205
T0
M30
