G04 #@! TF.GenerationSoftware,KiCad,Pcbnew,7.0.1*
G04 #@! TF.CreationDate,2023-08-17T16:00:53-05:00*
G04 #@! TF.ProjectId,MiniWAV,4d696e69-5741-4562-9e6b-696361645f70,A*
G04 #@! TF.SameCoordinates,Original*
G04 #@! TF.FileFunction,Soldermask,Top*
G04 #@! TF.FilePolarity,Negative*
%FSLAX46Y46*%
G04 Gerber Fmt 4.6, Leading zero omitted, Abs format (unit mm)*
G04 Created by KiCad (PCBNEW 7.0.1) date 2023-08-17 16:00:53*
%MOMM*%
%LPD*%
G01*
G04 APERTURE LIST*
G04 Aperture macros list*
%AMRoundRect*
0 Rectangle with rounded corners*
0 $1 Rounding radius*
0 $2 $3 $4 $5 $6 $7 $8 $9 X,Y pos of 4 corners*
0 Add a 4 corners polygon primitive as box body*
4,1,4,$2,$3,$4,$5,$6,$7,$8,$9,$2,$3,0*
0 Add four circle primitives for the rounded corners*
1,1,$1+$1,$2,$3*
1,1,$1+$1,$4,$5*
1,1,$1+$1,$6,$7*
1,1,$1+$1,$8,$9*
0 Add four rect primitives between the rounded corners*
20,1,$1+$1,$2,$3,$4,$5,0*
20,1,$1+$1,$4,$5,$6,$7,0*
20,1,$1+$1,$6,$7,$8,$9,0*
20,1,$1+$1,$8,$9,$2,$3,0*%
G04 Aperture macros list end*
%ADD10RoundRect,0.225000X0.225000X0.250000X-0.225000X0.250000X-0.225000X-0.250000X0.225000X-0.250000X0*%
%ADD11RoundRect,0.225000X-0.250000X0.225000X-0.250000X-0.225000X0.250000X-0.225000X0.250000X0.225000X0*%
%ADD12R,1.450000X0.950000*%
%ADD13RoundRect,0.020500X0.184500X-0.764500X0.184500X0.764500X-0.184500X0.764500X-0.184500X-0.764500X0*%
%ADD14RoundRect,0.200000X0.200000X0.275000X-0.200000X0.275000X-0.200000X-0.275000X0.200000X-0.275000X0*%
%ADD15R,2.000000X0.800000*%
%ADD16R,1.400000X1.800000*%
%ADD17R,1.900000X1.400000*%
%ADD18RoundRect,0.225000X0.250000X-0.225000X0.250000X0.225000X-0.250000X0.225000X-0.250000X-0.225000X0*%
%ADD19R,0.950000X1.450000*%
%ADD20C,1.700000*%
%ADD21R,2.200000X2.800000*%
%ADD22R,2.800000X2.800000*%
%ADD23R,0.800000X0.500000*%
%ADD24R,0.800000X0.400000*%
%ADD25C,2.286000*%
%ADD26O,1.700000X1.700000*%
%ADD27C,4.500000*%
G04 APERTURE END LIST*
D10*
X153075000Y-103805000D03*
X151525000Y-103805000D03*
X153075000Y-102105000D03*
X151525000Y-102105000D03*
D11*
X140825000Y-97860000D03*
X140825000Y-99410000D03*
D12*
X147325000Y-93105000D03*
X145525000Y-93105000D03*
D13*
X142500000Y-101605000D03*
X143150000Y-101605000D03*
X143800000Y-101605000D03*
X144450000Y-101605000D03*
X145100000Y-101605000D03*
X145750000Y-101605000D03*
X146400000Y-101605000D03*
X147050000Y-101605000D03*
X147700000Y-101605000D03*
X148350000Y-101605000D03*
X148350000Y-95865000D03*
X147700000Y-95865000D03*
X147050000Y-95865000D03*
X146400000Y-95865000D03*
X145750000Y-95865000D03*
X145100000Y-95865000D03*
X144450000Y-95865000D03*
X143800000Y-95865000D03*
X143150000Y-95865000D03*
X142500000Y-95865000D03*
D14*
X130725000Y-91705000D03*
X129075000Y-91705000D03*
D15*
X165600000Y-96405000D03*
X165200000Y-97505000D03*
X165600000Y-98605000D03*
X165800000Y-99705000D03*
X165600000Y-100805000D03*
X165800000Y-101905000D03*
X165600000Y-103005000D03*
X165600000Y-104105000D03*
D16*
X155050000Y-103295000D03*
X155050000Y-97595000D03*
D17*
X168200000Y-104895000D03*
X169200000Y-91745000D03*
D10*
X144175000Y-104005000D03*
X142625000Y-104005000D03*
X143600000Y-91105000D03*
X142050000Y-91105000D03*
D18*
X140825000Y-102710000D03*
X140825000Y-101160000D03*
D10*
X146800000Y-91105000D03*
X145250000Y-91105000D03*
D19*
X138825000Y-101335000D03*
X138825000Y-103135000D03*
D20*
X125700000Y-98305000D03*
X132700000Y-98305000D03*
D21*
X126600000Y-94605000D03*
X124600000Y-102005000D03*
D22*
X134000000Y-102005000D03*
D10*
X133375000Y-105005000D03*
X131825000Y-105005000D03*
X127575000Y-91705000D03*
X126025000Y-91705000D03*
D12*
X147525000Y-105735000D03*
X149325000Y-105735000D03*
X141525000Y-93105000D03*
X143325000Y-93105000D03*
D14*
X136600000Y-105005000D03*
X134950000Y-105005000D03*
D23*
X151100000Y-95505000D03*
D24*
X151100000Y-96305000D03*
X151100000Y-97105000D03*
D23*
X151100000Y-97905000D03*
X152900000Y-97905000D03*
D24*
X152900000Y-97105000D03*
X152900000Y-96305000D03*
D23*
X152900000Y-95505000D03*
D10*
X148800000Y-103835000D03*
X147250000Y-103835000D03*
D25*
X167900000Y-88755000D03*
X167900000Y-107805000D03*
D26*
X125977800Y-108457200D03*
X128517800Y-108457200D03*
X131057800Y-108457200D03*
X133597800Y-108457200D03*
X136137800Y-108457200D03*
X138677800Y-108457200D03*
X141217800Y-108457200D03*
X143757800Y-108457200D03*
X146297800Y-108457200D03*
X148837800Y-108457200D03*
X151377800Y-108457200D03*
X153917800Y-108457200D03*
X156457800Y-108457200D03*
X158997800Y-108457200D03*
X161537800Y-108457200D03*
X164077800Y-108482600D03*
X164077800Y-88137200D03*
X161537800Y-88137200D03*
X158997800Y-88137200D03*
X156457800Y-88137200D03*
X153917800Y-88137200D03*
X151377800Y-88137200D03*
X148837800Y-88137200D03*
X146297800Y-88137200D03*
X143757800Y-88137200D03*
X141217800Y-88137200D03*
X138677800Y-88137200D03*
X136137800Y-88137200D03*
D27*
X122150000Y-107205000D03*
X122150000Y-89405000D03*
D23*
X151100000Y-91205000D03*
D24*
X151100000Y-92005000D03*
X151100000Y-92805000D03*
D23*
X151100000Y-93605000D03*
X152900000Y-93605000D03*
D24*
X152900000Y-92805000D03*
X152900000Y-92005000D03*
D23*
X152900000Y-91205000D03*
M02*
